<?xml version="1.0" encoding="utf-8"?>
<!-- Generator: Adobe Illustrator 27.5.0, SVG Export Plug-In . SVG Version: 6.00 Build 0)  -->
<svg version="1.1" xmlns="http://www.w3.org/2000/svg" xmlns:xlink="http://www.w3.org/1999/xlink" x="0px" y="0px"
	 viewBox="0 0 3710 3710" style="enable-background:new 0 0 3710 3710;" xml:space="preserve">
<g id="Background">
	<g>
		<g>
			<rect style="fill:#FFFFFF;" width="3710" height="3710"/>
		</g>
	</g>
</g>
<g id="Illustration">
	<g>
		<path style="fill:#F4F7FA;" d="M2949.461,2834.081c-74.746,77.046-141.627,122.336-192.833,156.528
			c-499.403,333.456-1070.275,237.346-1246.774,204.496c-284.76-53-525.137-90.389-731.664-276.978
			c-469.291-423.986-446.466-1308.453-87.87-1856.341c42.519-64.964,400.571-595.709,972.679-670.496
			c13.993-1.829,24.433-2.871,33.578-3.839c88.504-9.371,636.944-58.826,1084.142,315.836
			c64.014,53.631,167.032,150.368,262.562,297.907C3392.585,1540.665,3393.691,2376.186,2949.461,2834.081z"/>
		<g>
			<linearGradient id="SVGID_1_" gradientUnits="userSpaceOnUse" x1="2265.5146" y1="1800.7975" x2="1358.4968" y2="1094.1666">
				<stop  offset="0" style="stop-color:#FFFFFF"/>
				<stop  offset="0.9964" style="stop-color:#EBEFF2"/>
			</linearGradient>
			<path style="fill:url(#SVGID_1_);" d="M504.616,713.152v931.98c0,30.942,26.2,56.174,58.481,56.359l1917.826,10.982
				c29.656,0.17,53.668-23.691,53.668-53.297v-891.72L504.616,713.152z"/>
			<path style="fill:#BFC8D6;" d="M2480.923,652.685L563.097,596.552c-32.281-0.945-58.481,23.371-58.481,54.312v95.498
				l2029.975,52.87v-91.372C2534.591,678.255,2510.578,653.553,2480.923,652.685z"/>
			<g>
				<g>
					<g>
						<path style="fill:#BFC8D6;" d="M981.822,1216.762l106.952-358.736c161.315,54.174,277.55,202.705,278.414,375.178
							L981.822,1216.762z"/>
					</g>
					<g>
						<path style="fill:#FFFFFF;" d="M1267.903,1254.312c-5.966,82.073-46.668,154.424-108.06,203.542l-167.684-215.503
							L1267.903,1254.312z"/>
						<path style="fill:#FFFFFF;" d="M957.874,1204.021c-64.92-61.126-143.361-135.141-205.822-194.342
							c55.406-49.618,130.186-79.108,212.234-77.278c24.846,0.555,48.974,3.953,72.057,9.858L957.874,1204.021z"/>
						<path style="fill:#FFFFFF;" d="M944.341,1226.425l-236.01,163.661c-33.117-47.813-52.464-105.142-52.464-166.552
							c0-75.733,29.413-144.307,77.783-195.873c17.315,16.396,36.557,34.592,57.634,54.498
							C855.064,1142.397,919.054,1202.632,944.341,1226.425z"/>
						<path style="fill:#FFFFFF;" d="M951.161,1253.191l-4.551,270.648c-89.684-5.786-169.364-48.71-222.558-113.008
							L951.161,1253.191z"/>
						<path style="fill:#FFFFFF;" d="M977.234,1265.042l161.925,207.955c-47.218,31.561-104.379,50.412-166.285,51.465
							L977.234,1265.042z"/>
					</g>
				</g>
				<polygon style="fill:#BFC8D6;" points="2395.247,1054.181 1421.476,1034.403 1421.476,943.228 2395.247,964.933 				"/>
				<polygon style="fill:#BFC8D6;" points="2395.247,1215.677 1421.476,1199.385 1421.476,1108.211 2395.247,1126.429 				"/>
				<polygon style="fill:#BFC8D6;" points="2395.247,1377.172 1421.476,1364.367 1421.476,1273.193 2395.247,1287.924 				"/>
				<polygon style="fill:#BFC8D6;" points="2395.247,1538.667 1421.476,1529.349 1421.476,1438.175 2395.247,1449.42 				"/>
			</g>
			<path style="fill:#FFFFFF;" d="M638.77,673.277c0,13.716-11.592,24.521-25.899,24.133c-14.315-0.389-25.927-11.836-25.927-25.567
				c0-13.733,11.612-24.537,25.927-24.133C627.178,648.113,638.77,659.559,638.77,673.277z"/>
		</g>
		<g>
			<g>
				<path style="fill:#EBEFF2;" d="M887.03,1970.119v1041.917c0,34.593,29.291,62.013,65.378,61.249l2144.055-45.36
					c33.154-0.702,59.999-28.099,59.999-61.196v-996.908L887.03,1970.119z"/>
				<path style="fill:#BFC8D6;" d="M3096.463,1843.124l-2144.055-5.116c-36.088-0.086-65.378,27.885-65.378,62.476v106.763
					l2269.432-1.901v-102.151C3156.462,1870.097,3129.617,1843.203,3096.463,1843.124z"/>
				<path style="fill:#FFFFFF;" d="M1037.009,1921.509c0,15.334-12.959,27.763-28.953,27.758
					c-16.004-0.004-28.985-12.453-28.985-27.805c0-15.352,12.982-27.779,28.985-27.758
					C1024.049,1893.725,1037.009,1906.173,1037.009,1921.509z"/>
			</g>
			<g>
				<polygon style="fill:#FFFFFF;" points="1337.861,2929.397 1172.858,2932.459 1172.858,2154.71 1337.861,2154.106 				"/>
				<polygon style="fill:#BFC8D6;" points="1337.861,2929.397 1172.858,2932.459 1172.858,2563.202 1337.861,2561.307 				"/>
				<polygon style="fill:#FFFFFF;" points="1565.706,2925.171 1402.145,2928.205 1402.145,2153.87 1565.706,2153.271 				"/>
				<polygon style="fill:#BFC8D6;" points="1565.706,2925.171 1402.145,2928.205 1402.145,2744.386 1565.706,2741.93 				"/>
				<polygon style="fill:#FFFFFF;" points="1791.565,2920.981 1629.428,2923.989 1629.428,2153.037 1791.565,2152.443 				"/>
				<polygon style="fill:#BFC8D6;" points="1791.565,2920.981 1629.428,2923.989 1629.428,2827.906 1791.565,2825.199 				"/>
				<polygon style="fill:#FFFFFF;" points="2015.465,2916.828 1854.734,2919.809 1854.734,2152.211 2015.465,2151.622 				"/>
				<polygon style="fill:#BFC8D6;" points="2015.465,2916.828 1854.734,2919.809 1854.734,2318.486 2015.465,2317.378 				"/>
				<polygon style="fill:#FFFFFF;" points="2237.432,2912.71 2078.088,2915.666 2078.088,2151.392 2237.432,2150.809 				"/>
				<polygon style="fill:#BFC8D6;" points="2237.432,2912.71 2078.088,2915.666 2078.088,2384.984 2237.432,2383.675 				"/>
				<polygon style="fill:#FFFFFF;" points="2457.49,2908.628 2299.516,2911.559 2299.516,2150.581 2457.49,2150.003 				"/>
				<polygon style="fill:#BFC8D6;" points="2457.49,2908.628 2299.516,2911.559 2299.516,2261.227 2457.49,2260.307 				"/>
				<polygon style="fill:#FFFFFF;" points="2675.664,2904.581 2519.042,2907.486 2519.042,2149.777 2675.664,2149.203 				"/>
				<polygon style="fill:#BFC8D6;" points="2675.664,2904.581 2519.042,2907.486 2519.042,2442.068 2675.664,2440.595 				"/>
				<polygon style="fill:#FFFFFF;" points="2891.979,2900.568 2736.69,2903.449 2736.69,2148.979 2891.979,2148.41 				"/>
				<polygon style="fill:#BFC8D6;" points="2891.979,2900.568 2736.69,2903.449 2736.69,2641.512 2891.979,2639.434 				"/>
			</g>
		</g>
		<g>
			
				<linearGradient id="SVGID_00000163044889882493084960000004404150010311080077_" gradientUnits="userSpaceOnUse" x1="1419.1693" y1="759.252" x2="1790.4987" y2="1447.958">
				<stop  offset="0" style="stop-color:#AA80F9"/>
				<stop  offset="0.9964" style="stop-color:#6165D7"/>
			</linearGradient>
			
				<ellipse style="fill:url(#SVGID_00000163044889882493084960000004404150010311080077_);" cx="1519.603" cy="945.527" rx="280.482" ry="223.278"/>
			<path style="fill:#FFFFFF;" d="M1519.603,799.448c-55.406,0-100.323,44.916-100.323,100.322
				c0,35.905,42.13,119.431,71.786,173.78c12.328,22.592,44.744,22.592,57.072,0c29.657-54.349,71.786-137.875,71.786-173.78
				C1619.926,844.364,1575.01,799.448,1519.603,799.448z M1519.603,953.635c-29.748,0-53.865-24.116-53.865-53.865
				c0-29.749,24.116-53.865,53.865-53.865s53.865,24.116,53.865,53.865C1573.468,929.519,1549.352,953.635,1519.603,953.635z"/>
			<g style="opacity:0.3;">
				
					<linearGradient id="SVGID_00000129166440650666737310000004460084837919329423_" gradientUnits="userSpaceOnUse" x1="1311.7932" y1="801.104" x2="1675.9257" y2="1531.8303">
					<stop  offset="0" style="stop-color:#AA80F9"/>
					<stop  offset="0.9964" style="stop-color:#6165D7"/>
				</linearGradient>
				<path style="fill:url(#SVGID_00000129166440650666737310000004460084837919329423_);" d="M1587.703,1111.933
					c-33.836-65.937,0.371-127.576-45.378-170.19c-46.477-43.291-106.871-3.046-171.869-38.294
					c-25.129-13.628-53.069-39.702-73.837-93.379c-36.069,37.569-57.497,84.521-57.497,135.457
					c0,123.313,125.576,223.278,280.482,223.278c35.487,0,69.433-5.25,100.684-14.821
					C1604.876,1139.947,1594.675,1125.521,1587.703,1111.933z"/>
			</g>
		</g>
		<g>
			
				<linearGradient id="SVGID_00000096769467156989443290000013426446602584446862_" gradientUnits="userSpaceOnUse" x1="1729.5376" y1="408.5052" x2="2013.9994" y2="936.0976">
				<stop  offset="0" style="stop-color:#FFC444"/>
				<stop  offset="0.9964" style="stop-color:#F36F56"/>
			</linearGradient>
			
				<ellipse style="fill:url(#SVGID_00000096769467156989443290000013426446602584446862_);" cx="1806.476" cy="551.204" rx="214.867" ry="171.045"/>
			<path style="fill:#FFFFFF;" d="M1739.302,632.555V469.853c0-10.444,8.761-17.317,16.342-12.818l137.078,81.351
				c8.67,5.145,8.67,20.49,0,25.635l-137.078,81.351C1748.063,649.871,1739.302,642.999,1739.302,632.555z"/>
			<g style="opacity:0.3;">
				
					<linearGradient id="SVGID_00000058586165667868201400000012942305376305004465_" gradientUnits="userSpaceOnUse" x1="1647.2806" y1="440.5663" x2="1926.2294" y2="1000.3494">
					<stop  offset="0" style="stop-color:#FFC444"/>
					<stop  offset="0.9964" style="stop-color:#F36F56"/>
				</linearGradient>
				<path style="fill:url(#SVGID_00000058586165667868201400000012942305376305004465_);" d="M1858.645,678.681
					c-25.921-50.512,0.284-97.731-34.762-130.376c-35.604-33.164-81.87-2.333-131.663-29.336
					c-19.25-10.439-40.654-30.414-56.563-71.534c-27.631,28.78-44.047,64.748-44.047,103.769
					c0,94.466,96.199,171.045,214.867,171.045c27.185,0,53.19-4.022,77.13-11.354
					C1871.801,700.142,1863.986,689.09,1858.645,678.681z"/>
			</g>
		</g>
		<g>
			
				<linearGradient id="SVGID_00000173883462521505769770000018202680065654083498_" gradientUnits="userSpaceOnUse" x1="3460.187" y1="1403.0052" x2="3131.2314" y2="1309.9177">
				<stop  offset="0" style="stop-color:#311944"/>
				<stop  offset="1" style="stop-color:#A03976"/>
			</linearGradient>
			<path style="fill:url(#SVGID_00000173883462521505769770000018202680065654083498_);" d="M3205.921,1379.302
				c10.535,5.349,23.77,0.438,29.562-10.97c5.792-11.407,1.946-24.991-8.589-30.339c-0.546-0.277-1.103-0.51-1.661-0.733
				c1.957-6.312,3.433-12.673,4.423-19.037c0.604-0.002,1.21-0.012,1.825-0.067c12.019-1.071,21.559-12.116,21.307-24.67
				c-0.251-12.553-10.199-21.862-22.219-20.79c-0.628,0.056-1.245,0.155-1.859,0.265c-1.255-6.221-2.976-12.298-5.146-18.18
				c0.553-0.324,1.103-0.658,1.64-1.034c10.283-7.204,13.571-21.423,7.343-31.759c-6.228-10.336-19.613-12.874-29.896-5.67
				c-0.527,0.369-1.022,0.768-1.512,1.173c-4.062-4.49-8.516-8.651-13.336-12.448c0.339-0.556,0.67-1.118,0.971-1.709
				c5.792-11.407,13.36-23.868,2.742-29.051c-24.561-11.99-35.101-1.726-40.893,9.681c-0.3,0.591-0.558,1.191-0.807,1.792
				c-5.91-1.65-11.898-2.791-17.919-3.421c0.038-0.634,0.067-1.27,0.054-1.913c-0.252-12.553,3.473-19.346-8.592-19.581
				c-26.309-0.511-35.186,10.908-34.934,23.461c0.013,0.656,0.068,1.298,0.133,1.935c-6.029,1.719-11.95,3.916-17.714,6.573
				c-0.274-0.56-0.558-1.117-0.884-1.657c-6.228-10.336-19.612-12.874-29.896-5.669c-10.283,7.205-13.571,21.423-7.343,31.759
				c0.319,0.53,0.669,1.025,1.023,1.513c-4.554,4.554-8.819,9.5-12.759,14.805c-0.51-0.32-1.027-0.632-1.573-0.909
				c-10.535-5.349-23.77-0.438-29.562,10.969c-5.792,11.407-1.946,24.991,8.589,30.339c0.546,0.277,1.103,0.51,1.662,0.733
				c-1.958,6.312-3.433,12.673-4.423,19.037c-0.604,0.002-1.21,0.012-1.825,0.066c-12.02,1.072-21.559,12.117-21.308,24.67
				s10.2,21.861,22.219,20.79c0.628-0.056,1.245-0.155,1.858-0.264c1.256,6.221,2.976,12.298,5.146,18.18
				c-0.553,0.324-1.103,0.658-1.64,1.034c-10.283,7.204-13.571,21.424-7.343,31.759s26.845,15.137,37.128,7.933
				c0.527-0.369-6.21-3.031-5.72-3.436c4.062,4.49,8.516,8.651,13.336,12.448c-0.339,0.556-0.671,1.118-0.971,1.709
				c-5.792,11.407-1.946,24.99,8.589,30.339c10.535,5.349,23.77,0.438,29.562-10.969c0.3-0.591,0.558-1.191,0.807-1.792
				c5.91,1.65,11.897,2.791,17.919,3.421c-0.038,0.634-0.067,1.27-0.054,1.913c0.251,12.553,10.199,21.861,22.219,20.79
				c12.019-1.071,21.559-12.117,21.307-24.67c-0.013-0.656-0.068-1.297-0.133-1.935c6.029-1.719,11.95-3.916,17.714-6.573
				c0.274,0.56,0.558,1.116,0.884,1.656c6.228,10.336,19.612,12.874,29.896,5.67c10.283-7.205,13.571-21.423,7.344-31.76
				c-0.319-0.529-0.669-1.024-1.024-1.513c4.554-4.554,8.819-9.5,12.759-14.804
				C3204.858,1378.713,3205.375,1379.025,3205.921,1379.302z M3074.593,1380.968c-38.25-19.42-52.211-68.739-31.183-110.155
				c21.028-41.417,69.083-59.249,107.333-39.828c38.25,19.42,52.211,68.738,31.183,110.155
				C3160.897,1382.557,3112.843,1400.389,3074.593,1380.968z"/>
			
				<linearGradient id="SVGID_00000026844677335639877750000013935164087806243203_" gradientUnits="userSpaceOnUse" x1="3459.3247" y1="1406.0519" x2="3130.3682" y2="1312.9641">
				<stop  offset="0" style="stop-color:#311944"/>
				<stop  offset="1" style="stop-color:#A03976"/>
			</linearGradient>
			<path style="fill:url(#SVGID_00000026844677335639877750000013935164087806243203_);" d="M3231.481,1318.156
				c12.019-1.072,21.559-12.116,21.307-24.67c-0.251-12.553-10.199-21.862-22.219-20.79c-0.628,0.056-1.245,0.155-1.859,0.264
				c-1.255-6.221-2.976-12.298-5.146-18.18c0.553-0.323,1.103-0.658,1.64-1.034c10.283-7.204,23.005-24.612,15.75-34.254
				c-13.77-18.3-28.02-10.379-38.302-3.175c-0.527,0.369-1.022,0.768-1.512,1.172c-4.062-4.49-8.516-8.651-13.336-12.448
				c0.339-0.556,0.67-1.118,0.971-1.709c3.152-6.208,3.43-13.053,1.348-18.872c-9.932,17.481-19.731,35.036-29.354,52.687
				c30.515,22.36,40.229,66.425,21.156,103.993c-16.163,31.835-48.292,49.711-79.664,47.471c-1.399,3.629-2.773,7.278-4.272,10.872
				c-4.067,9.754-8.687,19.307-13.313,28.848c2.909,0.548,5.831,0.98,8.761,1.287c-0.038,0.634-0.067,1.27-0.054,1.913
				c0.251,12.553,7.873,23.219,29.656,22.063c12.05-0.639,14.121-13.39,13.869-25.943c-0.013-0.656-0.068-1.297-0.133-1.934
				c6.029-1.719,11.95-3.916,17.713-6.574c0.274,0.56,0.558,1.116,0.884,1.656c6.228,10.336,27.832,14.728,38.115,7.523
				c10.283-7.205,5.351-23.276-0.876-33.612c-0.319-0.53-0.669-1.025-1.023-1.513c4.553-4.554,8.818-9.5,12.759-14.804
				c0.51,0.32,1.027,0.632,1.572,0.908c10.535,5.349,23.77,0.438,29.562-10.97c5.792-11.406,1.946-24.99-8.589-30.339
				c-0.546-0.277-1.103-0.51-1.662-0.733c1.957-6.312,3.433-12.674,4.423-19.037
				C3230.259,1318.221,3230.865,1318.211,3231.481,1318.156z"/>
			
				<linearGradient id="SVGID_00000079453749159355470020000014375725990521921957_" gradientUnits="userSpaceOnUse" x1="3122.6101" y1="1195.123" x2="3127.7544" y2="1610.5214">
				<stop  offset="0" style="stop-color:#FF9085"/>
				<stop  offset="1" style="stop-color:#FB6FBB"/>
			</linearGradient>
			<path style="fill:url(#SVGID_00000079453749159355470020000014375725990521921957_);" d="M3217.251,1380.59
				c10.535,5.349,23.77,0.438,29.562-10.97c5.792-11.407,1.947-24.99-8.589-30.339c-0.546-0.277-1.103-0.51-1.662-0.733
				c1.958-6.312,3.433-12.673,4.423-19.037c0.604-0.001,1.21-0.012,1.825-0.067c12.019-1.071,21.559-12.116,21.307-24.669
				c-0.252-12.554-10.199-21.862-22.219-20.79c-0.628,0.056-1.245,0.155-1.859,0.265c-1.255-6.221-2.976-12.298-5.146-18.18
				c0.553-0.323,1.103-0.658,1.641-1.034c10.283-7.204,13.571-21.423,7.343-31.759c-6.228-10.336-19.612-12.874-29.895-5.67
				c-0.527,0.369-1.023,0.768-1.513,1.172c-4.062-4.49-8.516-8.651-13.336-12.448c0.339-0.556,0.67-1.119,0.97-1.709
				c5.792-11.407,1.947-24.99-8.588-30.339c-10.535-5.349-23.771-0.438-29.562,10.97c-0.3,0.591-0.559,1.191-0.807,1.792
				c-5.91-1.65-11.897-2.791-17.919-3.421c0.038-0.634,0.066-1.27,0.054-1.913c-0.252-12.553-10.2-21.861-22.219-20.79
				c-12.019,1.071-21.559,12.117-21.307,24.669c0.013,0.656,0.068,1.297,0.133,1.935c-6.029,1.719-11.95,3.916-17.713,6.573
				c-0.274-0.56-0.558-1.116-0.883-1.657c-6.228-10.335-19.613-12.874-29.896-5.669c-10.283,7.205-13.571,21.424-7.343,31.759
				c0.319,0.529,0.668,1.025,1.023,1.513c-4.553,4.554-8.819,9.499-12.76,14.804c-0.509-0.32-1.026-0.632-1.572-0.909
				c-10.535-5.349-23.77-0.438-29.562,10.97c-5.792,11.407-1.947,24.991,8.588,30.339c0.546,0.277,1.103,0.51,1.662,0.733
				c-1.957,6.312-3.433,12.673-4.423,19.037c-0.604,0.002-1.21,0.012-1.825,0.066c-12.019,1.072-21.559,12.116-21.307,24.67
				c0.252,12.553,10.199,21.861,22.219,20.789c0.628-0.056,1.245-0.155,1.858-0.264c1.256,6.221,2.976,12.298,5.146,18.18
				c-0.552,0.323-1.103,0.658-1.64,1.034c-10.283,7.204-13.571,21.423-7.343,31.759c6.228,10.336,19.613,12.874,29.895,5.67
				c0.527-0.37,1.023-0.768,1.513-1.173c4.062,4.49,8.516,8.651,13.336,12.448c-0.339,0.556-0.671,1.118-0.97,1.709
				c-5.792,11.407-1.947,24.99,8.588,30.339c10.535,5.349,23.77,0.437,29.562-10.97c0.3-0.591,0.559-1.191,0.807-1.792
				c5.91,1.65,11.898,2.791,17.919,3.421c-0.038,0.634-0.067,1.27-0.054,1.913c0.252,12.553,10.199,21.861,22.219,20.79
				c12.019-1.071,21.559-12.117,21.307-24.669c-0.013-0.656-0.068-1.298-0.133-1.935c6.029-1.719,11.95-3.916,17.714-6.573
				c0.274,0.56,0.558,1.116,0.884,1.656c6.228,10.336,19.612,12.875,29.895,5.67c10.283-7.205,13.571-21.424,7.344-31.76
				c-0.319-0.529-0.669-1.024-1.024-1.513c4.554-4.554,8.819-9.499,12.76-14.804
				C3216.189,1380.001,3216.706,1380.313,3217.251,1380.59z M3085.924,1382.257c-38.25-19.42-52.211-68.738-31.183-110.155
				c21.028-41.417,69.082-59.248,107.332-39.828c38.25,19.42,52.211,68.738,31.183,110.155
				C3172.228,1383.846,3124.174,1401.677,3085.924,1382.257z"/>
		</g>
		<g>
			
				<linearGradient id="SVGID_00000050646052152413196620000007771601038008044707_" gradientUnits="userSpaceOnUse" x1="3653.2937" y1="1945.7721" x2="3008.907" y2="1763.4242">
				<stop  offset="0" style="stop-color:#311944"/>
				<stop  offset="1" style="stop-color:#A03976"/>
			</linearGradient>
			<path style="fill:url(#SVGID_00000050646052152413196620000007771601038008044707_);" d="M3155.215,1899.34
				c20.637,10.477,46.563,0.857,57.908-21.488s3.813-48.954-16.824-59.431c-1.069-0.543-2.16-0.999-3.255-1.436
				c3.834-12.365,6.725-24.826,8.663-37.292c1.183-0.003,2.37-0.023,3.576-0.131c23.544-2.099,42.231-23.734,41.738-48.325
				c-0.493-24.591-19.979-42.825-43.524-40.726c-1.231,0.11-2.44,0.304-3.641,0.518c-2.459-12.186-5.829-24.091-10.08-35.612
				c1.083-0.634,2.16-1.289,3.213-2.026c20.143-14.112,26.584-41.966,14.384-62.212c-12.199-20.247-38.419-25.219-58.562-11.107
				c-1.032,0.723-2.003,1.504-2.963,2.297c-7.956-8.795-16.682-16.946-26.123-24.385c0.663-1.089,1.313-2.191,1.901-3.348
				c11.345-22.345,26.17-46.754,5.372-56.907c-48.113-23.487-68.759-3.381-80.104,18.964c-0.587,1.158-1.094,2.333-1.581,3.511
				c-11.577-3.232-23.306-5.467-35.102-6.701c0.074-1.242,0.131-2.487,0.106-3.747c-0.494-24.59,6.803-37.897-16.831-38.357
				c-51.536-1.002-68.925,21.367-68.432,45.957c0.026,1.285,0.133,2.542,0.26,3.79c-11.81,3.366-23.409,7.67-34.699,12.876
				c-0.537-1.097-1.093-2.187-1.73-3.246c-12.199-20.246-38.419-25.218-58.563-11.105c-20.144,14.113-26.583,41.966-14.384,62.212
				c0.625,1.038,1.31,2.007,2.005,2.964c-8.921,8.922-17.275,18.609-24.994,29c-0.998-0.626-2.011-1.238-3.08-1.781
				c-20.637-10.478-46.563-0.857-57.908,21.488c-11.345,22.345-3.813,48.954,16.824,59.431c1.069,0.543,2.161,0.999,3.255,1.436
				c-3.834,12.364-6.725,24.826-8.664,37.291c-1.183,0.004-2.37,0.023-3.575,0.13c-23.545,2.1-42.231,23.735-41.739,48.326
				c0.493,24.591,19.98,42.823,43.524,40.724c1.23-0.109,2.439-0.303,3.641-0.517c2.459,12.186,5.829,24.091,10.08,35.612
				c-1.083,0.634-2.161,1.288-3.213,2.026c-20.144,14.112-26.583,41.966-14.384,62.213c12.199,20.247,52.587,29.653,72.73,15.541
				c1.032-0.724-12.165-5.938-11.206-6.731c7.957,8.795,16.683,16.946,26.123,24.385c-0.663,1.088-1.313,2.191-1.901,3.348
				c-11.345,22.345-3.813,48.954,16.824,59.431c20.637,10.477,46.563,0.857,57.908-21.488c0.588-1.158,1.094-2.333,1.581-3.511
				c11.577,3.233,23.306,5.467,35.102,6.701c-0.073,1.242-0.131,2.487-0.106,3.747c0.493,24.59,19.979,42.823,43.524,40.724
				c23.544-2.099,42.232-23.735,41.738-48.325c-0.026-1.285-0.133-2.542-0.261-3.79c11.811-3.366,23.409-7.67,34.699-12.876
				c0.537,1.097,1.094,2.187,1.731,3.245c12.199,20.246,38.418,25.22,58.562,11.106c20.144-14.113,26.583-41.966,14.385-62.214
				c-0.625-1.036-1.31-2.006-2.005-2.963c8.92-8.921,17.274-18.609,24.994-29C3153.134,1898.185,3154.146,1898.797,3155.215,1899.34
				z M2897.959,1902.604c-74.927-38.042-102.275-134.651-61.083-215.781c41.192-81.131,135.325-116.061,210.252-78.019
				c74.927,38.042,102.275,134.651,61.083,215.781C3067.019,1905.717,2972.886,1940.646,2897.959,1902.604z"/>
			
				<linearGradient id="SVGID_00000026859431622896994460000016757230747385942950_" gradientUnits="userSpaceOnUse" x1="3651.604" y1="1951.7399" x2="3007.2163" y2="1769.3916">
				<stop  offset="0" style="stop-color:#311944"/>
				<stop  offset="1" style="stop-color:#A03976"/>
			</linearGradient>
			<path style="fill:url(#SVGID_00000026859431622896994460000016757230747385942950_);" d="M3205.284,1779.563
				c23.544-2.099,42.231-23.735,41.738-48.326c-0.493-24.59-19.979-42.824-43.524-40.725c-1.231,0.109-2.44,0.304-3.641,0.518
				c-2.459-12.187-5.829-24.09-10.08-35.612c1.083-0.633,2.16-1.289,3.213-2.027c20.143-14.112,45.064-48.212,30.853-67.1
				c-26.973-35.848-54.887-20.331-75.03-6.219c-1.032,0.723-2.003,1.504-2.962,2.296c-7.957-8.795-16.683-16.945-26.124-24.385
				c0.663-1.089,1.313-2.19,1.901-3.347c6.175-12.162,6.719-25.57,2.641-36.969c-19.456,34.244-38.65,68.632-57.5,103.207
				c59.775,43.802,78.805,130.12,41.442,203.711c-31.662,62.361-94.6,97.377-156.053,92.989c-2.741,7.109-5.433,14.257-8.369,21.298
				c-7.966,19.107-17.016,37.821-26.077,56.51c5.699,1.074,11.423,1.92,17.162,2.521c-0.073,1.243-0.131,2.488-0.106,3.748
				c0.493,24.59,15.423,45.483,58.094,43.22c23.605-1.252,27.662-26.229,27.168-50.82c-0.026-1.285-0.133-2.542-0.26-3.79
				c11.81-3.366,23.409-7.671,34.698-12.877c0.537,1.097,1.094,2.187,1.731,3.245c12.199,20.248,54.519,28.85,74.663,14.737
				c20.144-14.113,10.482-45.596-1.717-65.843c-0.625-1.037-1.31-2.007-2.005-2.964c8.92-8.921,17.275-18.608,24.994-28.999
				c0.999,0.627,2.011,1.239,3.08,1.78c20.637,10.479,46.563,0.857,57.909-21.488c11.345-22.344,3.813-48.954-16.824-59.431
				c-1.069-0.543-2.16-0.999-3.255-1.435c3.834-12.365,6.725-24.826,8.663-37.291
				C3202.891,1779.69,3204.078,1779.67,3205.284,1779.563z"/>
			
				<linearGradient id="SVGID_00000110445966971890286930000006931818546990111399_" gradientUnits="userSpaceOnUse" x1="2992.0188" y1="1538.5543" x2="3002.0957" y2="2352.2727">
				<stop  offset="0" style="stop-color:#FF9085"/>
				<stop  offset="1" style="stop-color:#FB6FBB"/>
			</linearGradient>
			<path style="fill:url(#SVGID_00000110445966971890286930000006931818546990111399_);" d="M3177.411,1901.864
				c20.636,10.477,46.563,0.857,57.908-21.489c11.345-22.345,3.813-48.953-16.824-59.431c-1.069-0.543-2.16-0.999-3.255-1.435
				c3.834-12.365,6.725-24.826,8.663-37.292c1.183-0.003,2.37-0.023,3.576-0.131c23.545-2.099,42.231-23.734,41.738-48.325
				c-0.493-24.591-19.979-42.825-43.524-40.726c-1.23,0.11-2.439,0.305-3.641,0.518c-2.459-12.186-5.829-24.09-10.08-35.612
				c1.083-0.634,2.161-1.289,3.214-2.026c20.143-14.112,26.583-41.966,14.384-62.213c-12.199-20.246-38.418-25.219-58.562-11.106
				c-1.032,0.724-2.004,1.504-2.963,2.297c-7.956-8.795-16.682-16.945-26.123-24.384c0.663-1.088,1.313-2.191,1.901-3.348
				c11.345-22.345,3.813-48.954-16.824-59.431c-20.637-10.478-46.563-0.857-57.908,21.488c-0.588,1.157-1.094,2.333-1.581,3.511
				c-11.577-3.232-23.306-5.467-35.102-6.701c0.073-1.243,0.13-2.487,0.106-3.747c-0.494-24.59-19.98-42.823-43.524-40.725
				c-23.545,2.099-42.231,23.735-41.738,48.324c0.026,1.286,0.133,2.542,0.261,3.79c-11.811,3.367-23.409,7.671-34.699,12.877
				c-0.536-1.097-1.093-2.187-1.73-3.246c-12.199-20.246-38.418-25.219-58.562-11.106c-20.144,14.114-26.583,41.966-14.384,62.213
				c0.625,1.037,1.31,2.007,2.005,2.964c-8.92,8.922-17.275,18.608-24.994,29c-0.998-0.626-2.01-1.238-3.08-1.781
				c-20.636-10.478-46.563-0.857-57.908,21.488s-3.813,48.954,16.823,59.431c1.069,0.543,2.161,0.999,3.255,1.436
				c-3.834,12.365-6.726,24.826-8.664,37.292c-1.183,0.004-2.37,0.023-3.575,0.13c-23.545,2.1-42.232,23.735-41.739,48.326
				c0.493,24.591,19.98,42.823,43.524,40.724c1.23-0.109,2.439-0.303,3.64-0.517c2.459,12.187,5.829,24.091,10.08,35.612
				c-1.083,0.634-2.161,1.288-3.213,2.026c-20.144,14.112-26.583,41.966-14.385,62.212c12.199,20.247,38.418,25.219,58.562,11.107
				c1.032-0.724,2.004-1.504,2.963-2.297c7.957,8.795,16.683,16.946,26.123,24.385c-0.663,1.088-1.313,2.191-1.901,3.348
				c-11.345,22.345-3.813,48.954,16.824,59.431c20.636,10.478,46.563,0.857,57.908-21.488c0.588-1.157,1.094-2.333,1.581-3.511
				c11.577,3.232,23.306,5.467,35.102,6.7c-0.073,1.242-0.131,2.487-0.106,3.748c0.494,24.59,19.979,42.823,43.524,40.725
				c23.544-2.099,42.231-23.735,41.738-48.325c-0.025-1.285-0.133-2.542-0.26-3.79c11.811-3.367,23.409-7.671,34.699-12.876
				c0.536,1.096,1.094,2.187,1.731,3.244c12.199,20.247,38.418,25.22,58.562,11.107c20.144-14.113,26.583-41.966,14.385-62.214
				c-0.625-1.036-1.31-2.006-2.005-2.964c8.92-8.921,17.274-18.608,24.994-29
				C3175.329,1900.709,3176.342,1901.321,3177.411,1901.864z M2920.155,1905.128c-74.927-38.042-102.275-134.65-61.083-215.782
				c41.192-81.131,135.324-116.061,210.252-78.018c74.927,38.042,102.275,134.651,61.083,215.781
				C3089.215,1908.24,2995.082,1943.17,2920.155,1905.128z"/>
		</g>
		<g>
			
				<linearGradient id="SVGID_00000039120583647661574930000016450197981187482554_" gradientUnits="userSpaceOnUse" x1="4299.3779" y1="1605.229" x2="3833.6926" y2="2449.283" gradientTransform="matrix(1 0 0 1 -1913.5095 0)">
				<stop  offset="0" style="stop-color:#FFC444"/>
				<stop  offset="0.9964" style="stop-color:#F36F56"/>
			</linearGradient>
			<path style="fill:url(#SVGID_00000039120583647661574930000016450197981187482554_);" d="M2270.025,1803.263
				c14.423-41.573,8.636-64.355,0-77.614c-12.043-18.489-39.633-33.82-90.55-71.146c-3.331-2.442-9.088-6.803-8.36-9.197
				c1.802-5.927,29.517-2.861,53.635,9.197c34.955,17.477,42.236,18.826,63.015,25.014c36.723,10.937,69.011,1.803,118.084-12.078
				c20.238-5.725,48.603-15.417,80.848-32.339c0,0,35.573-16.169,45.275,0l-51.742,25.871c0,0,45.275-19.404,71.146-6.468
				l-90.55,38.807c0,0,67.912-19.404,71.146-6.468c-44.136,31.485-83.07,42.233-113.187,45.275
				c-46.351,4.682-81.241-7.932-93.783,9.702c-10.125,14.235,0.389,39.642,12.936,61.445H2270.025z"/>
			
				<linearGradient id="SVGID_00000025444234204569198160000010748311432418983083_" gradientUnits="userSpaceOnUse" x1="3972.0596" y1="2163.678" x2="3532.2476" y2="3092.8901" gradientTransform="matrix(1 0 0 1 -1913.5095 0)">
				<stop  offset="0" style="stop-color:#AA80F9"/>
				<stop  offset="0.9964" style="stop-color:#6165D7"/>
			</linearGradient>
			<path style="fill:url(#SVGID_00000025444234204569198160000010748311432418983083_);" d="M1662.049,2107.252
				c40.343-60.435,89.887-96.643,125.757-118.48c12.95,5.712,32.85,15.254,55.557,29.604
				c65.525,41.409,72.726,71.228,128.334,105.758c29.491,18.312,66.016,40.991,112.909,37.9
				c53.979-3.559,90.974-39.243,106.35-54.074c105.467-101.73,64.208-294.454,59.667-314.397
				c39.885-1.078,79.77-2.156,119.655-3.234c20.98,36.791,136.596,271.39,51.743,507.725
				c-121.527,338.484-615.896,341.403-765.361,185.578C1567.648,2390.833,1568.173,2247.881,1662.049,2107.252z"/>
			
				<linearGradient id="SVGID_00000038410090987498259920000011139135604199337877_" gradientUnits="userSpaceOnUse" x1="-4048.7485" y1="2844.8816" x2="-4484.0781" y2="3764.6238" gradientTransform="matrix(-1 0 0 1 -2572.3943 0)">
				<stop  offset="0" style="stop-color:#AA80F9"/>
				<stop  offset="0.9964" style="stop-color:#6165D7"/>
			</linearGradient>
			<path style="fill:url(#SVGID_00000038410090987498259920000011139135604199337877_);" d="M894.852,3117.464
				c-13.479-19.141-37.245-58.773-55.512-110.355c-49.405-139.505-22.567-264.692-15.912-300.157
				c20.94-111.589,25.267-311.144-35.204-695.162c-7.265-46.136,23.243-89.635,69.036-98.821
				c127.001-25.476,294.591-44.055,488.952-26.091c181.76,16.798,331.776,60.456,441.593,101.895
				c2.876,200.969-13.41,360.369-28.575,467.907c-24.304,172.346-47.969,227.356-50.739,374.716
				c-4.17,221.764,46.495,253.007,7.878,321.788C1605.381,3350.861,1049.626,3337.255,894.852,3117.464z"/>
			
				<linearGradient id="SVGID_00000162320772821614859910000009002428899585490606_" gradientUnits="userSpaceOnUse" x1="-3950.4285" y1="2060.3938" x2="-3436.1614" y2="1200.7961" gradientTransform="matrix(-1 0 0 1 -2572.3943 0)">
				<stop  offset="0" style="stop-color:#FFC444"/>
				<stop  offset="0.9964" style="stop-color:#F36F56"/>
			</linearGradient>
			<path style="fill:url(#SVGID_00000162320772821614859910000009002428899585490606_);" d="M1265.972,1651.089
				c-6.585,62.521-13.17,125.04-19.755,187.561c-1.784,16.938-15.363,30.213-32.338,31.612
				c-67.195,5.538-134.39,11.076-201.584,16.615l372.646,114.251l170.827-81.465c-52.122-16.151-104.245-32.304-156.368-48.455
				c-13.389-4.149-23.075-15.799-24.711-29.721c-4.535-38.607-9.071-77.214-13.607-115.821L1265.972,1651.089z"/>
			
				<linearGradient id="SVGID_00000101810236101799535450000005017021397310220683_" gradientUnits="userSpaceOnUse" x1="-3985.5029" y1="1727.4326" x2="-3590.4863" y2="1011.9322" gradientTransform="matrix(-1 0 0 1 -2572.3943 0)">
				<stop  offset="0" style="stop-color:#FFC444"/>
				<stop  offset="0.9964" style="stop-color:#F36F56"/>
			</linearGradient>
			<path style="fill:url(#SVGID_00000101810236101799535450000005017021397310220683_);" d="M1229.594,1622.001
				c41.078,94.266,143.87,172.284,196.986,149.138c53.116-23.145,47.464-140.41,6.387-234.677
				c-41.078-94.266-119.749-130.212-172.865-107.066C1206.986,1452.542,1188.517,1527.734,1229.594,1622.001z"/>
			
				<linearGradient id="SVGID_00000009592184537048491660000005976310704652076687_" gradientUnits="userSpaceOnUse" x1="-3756.6597" y1="1243.8147" x2="-3980.2546" y2="1638.8323" gradientTransform="matrix(-1 0 0 1 -2572.3943 0)">
				<stop  offset="0" style="stop-color:#444B8C"/>
				<stop  offset="0.9964" style="stop-color:#26264F"/>
			</linearGradient>
			<path style="fill:url(#SVGID_00000009592184537048491660000005976310704652076687_);" d="M1298.671,1613.455
				c-5.18,3.882-25.41-23.855-36.624-18.902c-9.459,4.177-12.021,31.407-0.553,50.082c9.761,15.897,22.758,14.31,26.544,26.709
				c6.226,20.388-20.926,50.842-31.086,47.257c-6.518-2.3-1.11-16.862-7.444-33.493c-12.449-32.689-53.326-28.927-86.699-53.931
				c-52.483-39.321-66.777-135.075-35.485-170.921c11.893-13.624,25.228-12.705,41.392-34.644
				c17.5-23.752,9.857-35.675,23.32-50.946c22.846-25.912,72.992-23.497,104.683-13.921c39.871,12.048,42.763,33.086,69.447,31.534
				c31.601-1.836,36.16-31.844,73.844-37.359c2.17-0.318,37.347-4.92,63.84,17.959c34.403,29.714,25.979,81.437,24.786,88.769
				c-7.633,46.869-45.883,89.133-88.196,98.644c-8.907,2.002-7.105,0.105-96.722-2.058c-29.607-0.715-47.503-0.931-53.461,9.485
				C1281.657,1582.755,1303.884,1609.548,1298.671,1613.455z"/>
			
				<linearGradient id="SVGID_00000163776010169776459830000003865748091839685035_" gradientUnits="userSpaceOnUse" x1="-3763.468" y1="3482.8418" x2="-2885.0491" y2="1191.3148" gradientTransform="matrix(-1 0 0 1 -2572.3943 0)">
				<stop  offset="0" style="stop-color:#AA80F9"/>
				<stop  offset="0.9964" style="stop-color:#6165D7"/>
			</linearGradient>
			<path style="opacity:0.3;fill:url(#SVGID_00000163776010169776459830000003865748091839685035_);" d="M824.288,2262.647
				c47.561,21.578,73.196,48.918,87.87,74.123c55.955,96.111-30.117,190.329,31.684,310.497
				c42.531,82.699,98.905,68.428,126.733,145.743c35.699,99.184-41.989,164.584-38.02,266.14
				c2.001,51.208,24.926,115.174,102.65,188.268c-102.016-28.145-190.694-76.925-239.494-146.225
				c-13.479-19.141-37.245-58.772-55.512-110.355c-49.405-139.505-22.567-264.692-15.913-300.157
				C839.703,2608.525,846.11,2478.673,824.288,2262.647z"/>
			
				<linearGradient id="SVGID_00000047753435583495684250000008414231639532185504_" gradientUnits="userSpaceOnUse" x1="-2984.5132" y1="2903.9312" x2="-3424.3438" y2="3833.1824" gradientTransform="matrix(-0.9992 0.0388 0.0388 0.9992 -2054.0547 278.3395)">
				<stop  offset="0" style="stop-color:#AA80F9"/>
				<stop  offset="0.9964" style="stop-color:#6165D7"/>
			</linearGradient>
			<path style="fill:url(#SVGID_00000047753435583495684250000008414231639532185504_);" d="M683.627,3198.709
				c-168.933-73.73-184.216-357.478-192.171-503.667c-6.254-114.928-32.522-597.67,241.505-741.623
				c47.826-25.124,93.923-34.215,127.742-37.736c32.901,18.452,115.42,70.77,147.873,169.464
				c18.378,55.892,15.554,111.01-3.047,186.126c-48.132,194.367-129.838,231.636-175.904,360.571
				c-93.713,262.293,104.585,485.475,7.751,568.044C787.263,3242.621,692.299,3202.494,683.627,3198.709z"/>
		</g>
		<g>
			<g>
				<g>
					
						<linearGradient id="SVGID_00000060747004611135967500000011766622676208053402_" gradientUnits="userSpaceOnUse" x1="2122.0828" y1="566.2316" x2="2228.0186" y2="1523.8867">
						<stop  offset="0" style="stop-color:#311944"/>
						<stop  offset="1" style="stop-color:#893976"/>
					</linearGradient>
					<path style="fill:url(#SVGID_00000060747004611135967500000011766622676208053402_);" d="M2210.256,1016.441l34.72-0.189
						c0,0,83.171-104.366,139.373-110.134l5.207-294.04c-215.257,0.714-405.232,121.014-491.751,298.816L2210.256,1016.441z"/>
					
						<linearGradient id="SVGID_00000036972596135936904520000002172151487314971542_" gradientUnits="userSpaceOnUse" x1="2514.6746" y1="1322.2627" x2="2928.0649" y2="2157.2302">
						<stop  offset="0" style="stop-color:#311944"/>
						<stop  offset="1" style="stop-color:#893976"/>
					</linearGradient>
					<path style="fill:url(#SVGID_00000036972596135936904520000002172151487314971542_);" d="M2625.515,1146.753
						c-17.647,96.612-106.376,172.568-215.079,175.921c-26.76,0.825-57.961-15.082-57.961-15.082s-28.621,1.561-33.521-0.333
						l-169.676,260.583c78.866,35.314,167.962,52.616,261.158,47.305c271.022-15.444,484.104-217.813,507.768-461.44
						L2625.515,1146.753z"/>
					
						<linearGradient id="SVGID_00000109013590637336001050000003502339856041766276_" gradientUnits="userSpaceOnUse" x1="1859.1877" y1="970.8923" x2="2466.4377" y2="1751.6417">
						<stop  offset="0" style="stop-color:#311944"/>
						<stop  offset="1" style="stop-color:#893976"/>
					</linearGradient>
					<path style="fill:url(#SVGID_00000109013590637336001050000003502339856041766276_);" d="M2096.169,1540.43l33.946,1.164
						l137.288-262.517c-51.22-37.616-84.138-96.152-84.138-162.546c0-16.042,1.941-31.683,5.591-46.74l-279.63-104.679
						l-34.011,0.395c-16.846,48.982-25.941,101.1-25.941,155.09C1849.274,1299.377,1948.167,1453.301,2096.169,1540.43z"/>
				</g>
				<g>
					
						<linearGradient id="SVGID_00000054259803623694380150000012113169159992693418_" gradientUnits="userSpaceOnUse" x1="3049.6335" y1="430.566" x2="2646.4209" y2="992.8444">
						<stop  offset="0" style="stop-color:#311944"/>
						<stop  offset="1" style="stop-color:#893976"/>
					</linearGradient>
					<path style="fill:url(#SVGID_00000054259803623694380150000012113169159992693418_);" d="M2443.678,907.397
						c98.99,14.611,175.103,90.702,184.144,184.738l478.621,13.757c0-0.1,0.001-0.201,0.002-0.301c0,0,0.001-0.153,0.002-0.301
						c0.002-0.357,72.153-11.509,72.153-11.554c-0.022-3.254-653.831-684.958-653.831-684.958l-72.517,11.82
						C2452.252,420.598,2446.536,745.131,2443.678,907.397z"/>
				</g>
			</g>
			<g>
				<g>
					
						<linearGradient id="SVGID_00000140709525863940030100000013448720825385053316_" gradientUnits="userSpaceOnUse" x1="2156.4036" y1="566.8962" x2="2261.3513" y2="1515.6184">
						<stop  offset="0" style="stop-color:#FFC444"/>
						<stop  offset="0.9964" style="stop-color:#F36F56"/>
					</linearGradient>
					<path style="fill:url(#SVGID_00000140709525863940030100000013448720825385053316_);" d="M2244.504,1016.441
						c34.664-60.153,99.157-102.632,174.094-110.323l5.207-294.04c-215.257,0.714-405.232,121.014-491.751,298.816
						L2244.504,1016.441z"/>
					
						<linearGradient id="SVGID_00000048463313017530030920000005064395247520411550_" gradientUnits="userSpaceOnUse" x1="2548.9221" y1="1322.2627" x2="2962.3125" y2="2157.2302">
						<stop  offset="0.0036" style="stop-color:#E38DDD"/>
						<stop  offset="1" style="stop-color:#9571F6"/>
					</linearGradient>
					<path style="fill:url(#SVGID_00000048463313017530030920000005064395247520411550_);" d="M2659.763,1146.753
						c-17.647,96.612-106.376,172.568-215.079,175.921c-32.413,1-63.382-4.551-91.482-15.415l-169.677,260.583
						c78.866,35.314,167.962,52.616,261.158,47.305c271.022-15.444,484.104-217.813,507.768-461.44L2659.763,1146.753z"/>
					
						<linearGradient id="SVGID_00000045582204891522718980000007105348945711333021_" gradientUnits="userSpaceOnUse" x1="1893.5574" y1="971.0494" x2="2479.1897" y2="1724.0048">
						<stop  offset="0" style="stop-color:#AA80F9"/>
						<stop  offset="0.9964" style="stop-color:#6165D7"/>
					</linearGradient>
					<path style="fill:url(#SVGID_00000045582204891522718980000007105348945711333021_);" d="M2130.416,1540.43l171.234-261.353
						c-51.22-37.616-84.138-96.152-84.138-162.546c0-16.042,1.94-31.683,5.591-46.74l-313.641-104.284
						c-16.846,48.982-25.941,101.1-25.941,155.09C1883.521,1299.377,1982.414,1453.301,2130.416,1540.43z"/>
				</g>
				<g>
					
						<linearGradient id="SVGID_00000075158684054613296700000014622218810584575931_" gradientUnits="userSpaceOnUse" x1="3146.5347" y1="339.4293" x2="2702.968" y2="957.9811">
						<stop  offset="0" style="stop-color:#FF9085"/>
						<stop  offset="1" style="stop-color:#FB6FBB"/>
					</linearGradient>
					<path style="fill:url(#SVGID_00000075158684054613296700000014622218810584575931_);" d="M2515.835,895
						c98.99,14.611,175.103,90.702,184.144,184.738l478.621,13.757c0-0.201,0.004-0.401,0.004-0.602
						c0-348.274-279.758-646.325-654.195-684.692L2515.835,895z"/>
				</g>
			</g>
			<g style="opacity:0.3;">
				
					<linearGradient id="SVGID_00000125575578890075259320000002423467358779223209_" gradientUnits="userSpaceOnUse" x1="2350.2947" y1="1426.3416" x2="2756.072" y2="2245.9324">
					<stop  offset="0.0036" style="stop-color:#E38DDD"/>
					<stop  offset="1" style="stop-color:#9571F6"/>
				</linearGradient>
				<path style="fill:url(#SVGID_00000125575578890075259320000002423467358779223209_);" d="M2379.245,1315.562
					c-8.912-2.27-17.609-5.042-26.043-8.302l-169.676,260.583c78.866,35.314,167.962,52.616,261.158,47.305
					c75.298-4.291,146.112-23.029,209.646-53.053c-64.133-9.633-121.391-33.759-167.112-73.964
					C2435.132,1442.327,2401.353,1378.618,2379.245,1315.562z"/>
			</g>
			<g style="opacity:0.3;">
				
					<linearGradient id="SVGID_00000043426782607613775730000016349342363813984931_" gradientUnits="userSpaceOnUse" x1="2107.5266" y1="573.1243" x2="2212.2866" y2="1520.1499">
					<stop  offset="0" style="stop-color:#FFC444"/>
					<stop  offset="0.9964" style="stop-color:#F36F56"/>
				</linearGradient>
				<path style="fill:url(#SVGID_00000043426782607613775730000016349342363813984931_);" d="M2322.288,728.787
					c-20.149-36.859-48.961-64.795-81.289-86.137c-136.033,46.557-248.085,143.174-308.944,268.245l312.45,105.547
					c21.69-37.639,55.061-68.357,95.361-87.964C2348.008,850.243,2357.245,792.735,2322.288,728.787z"/>
			</g>
		</g>
	</g>
</g>
</svg>
