<svg width="779" height="1157" viewBox="0 0 779 1157" fill="none" xmlns="http://www.w3.org/2000/svg">
<path d="M118.068 534.5C118.379 534.085 118.69 533.681 119.001 533.266V532.135L124.686 526.491C125.06 526.118 125.433 525.745 125.807 525.381C128.805 522.404 133.328 516.418 137.695 510.64C149.335 495.256 162.219 478.212 178.578 469.767V157.09C84.2491 237.228 50.057 387.482 95.7226 505.184C106.262 512.217 114.084 522.601 118.068 534.5Z" fill="black"/>
<path d="M241.213 688.626H241.296V639.963L214.366 650.503L207.893 672.599L206.627 676.572L207.893 677.807L216.98 686.707V701.583H247.137L241.296 688.803L241.213 688.626Z" fill="black"/>
<path d="M574.766 621.542L570.139 623.721H565.035C554.63 623.721 549.018 617.517 544.505 612.528C543.125 611.003 541.559 609.239 540.024 607.496C539.308 608.834 538.592 610.173 537.876 611.521C530.521 625.941 515.51 634.894 498.591 634.894H496.588L494.617 634.551C489.949 633.721 486.038 632.715 482.584 631.823C478.797 630.848 475.81 630.08 473.787 630.08C473.683 630.08 473.548 630.08 473.382 630.08L465.436 632.829C460.415 634.572 456.618 636.128 453.558 637.394C448.049 639.655 443.703 641.45 437.997 641.45C430.383 641.45 423.411 638.016 418.888 632.041C413.401 624.81 413.536 616.719 414.604 611.2C414.739 610.557 414.874 609.913 415.04 609.249C408.141 610.391 401.772 610.681 396.045 610.681C388.037 610.681 380.09 610.017 372.403 609.384C366.138 608.876 359.675 608.337 353.098 608.15C343.346 608.181 335.348 609.675 327.205 612.994L327.059 613.057L326.914 613.119C305.43 621.522 280.367 631.335 255.822 640.941V676.441C381.522 738.404 544.101 702.116 632.693 594.602C623.637 598.813 614.093 603.253 605.005 607.465C592.443 613.285 581.602 618.306 574.766 621.532V621.542Z" fill="black"/>
<path d="M573.234 323.84C573.763 324.182 574.282 324.525 574.801 324.888V133.968C543.99 111.871 509.041 95.1903 471.332 85.3145V293.735H471.799C508.024 293.735 543.098 304.14 573.234 323.84Z" fill="black"/>
<path d="M442.729 295.828V79.2229C409.221 73.6106 372.747 73.6106 339.25 79.2229V351.982C349.842 341.525 361.149 331.649 373.722 323.112C395.03 308.65 417.801 299.625 442.729 295.828Z" fill="black"/>
<path d="M641.256 403.72C648.124 419.499 656.765 434.489 666.963 448.286L669.743 452.052L672.751 455.797C679.474 464.158 686.735 472.001 694.495 479.263C729.071 366.126 689.443 231.722 603.402 157.072V348.438C619.088 364.238 631.889 382.838 641.153 403.471L641.256 403.72Z" fill="black"/>
<path d="M309.617 383.651C309.959 383.267 310.301 382.883 310.654 382.499V85.3203C272.945 95.1962 237.996 111.877 207.186 133.963V461.32C252.104 447.637 280.124 416.453 309.617 383.651Z" fill="black"/>
<path d="M752.215 543.833C741.54 539.279 731.281 534.03 721.384 528.075C696.03 512.805 673.467 493.105 654.971 470.096C641.267 474.888 630.499 486.175 626.318 499.993C627.667 484.661 636.765 470.895 648.612 461.849C637.439 446.724 627.926 430.26 620.343 412.822C594.294 354.822 537 316.553 471.811 316.553H471.095C337.2 316.542 326.67 462.305 195.473 487.71C175.192 491.985 155.305 528.293 141.84 541.644C135.512 547.381 124.443 568.491 114.173 568.491C113.862 568.491 113.561 568.471 113.25 568.429C105.967 568.429 98.5499 563.367 98.1661 555.182C99.162 540.576 90.7384 526.851 77.7297 521.249C85.8109 527.857 86.1947 542.298 75.1154 547.049C75.074 558.75 81.0285 569.083 90.0953 575.12C90.1264 575.089 90.1575 575.048 90.1782 575.017C96.4025 579.145 102.305 580.919 107.959 580.919C143.614 580.919 169.154 510.004 200.4 510.004C204.384 510.004 208.45 511.145 212.641 513.738C210.079 512.701 207.548 512.224 205.11 512.224C186.406 512.224 172.816 539.984 189.228 554.393C209.218 573.45 196.935 610.205 169.735 613.483C164.662 628.722 153.635 663.225 149.122 678.205C164.092 692.552 158.853 685.757 159.724 706.536C161.851 706.795 165.658 706.868 169.984 706.868C176.229 706.868 183.543 706.712 188.335 706.712C189.829 706.712 191.074 706.723 191.966 706.764H191.987C192.755 706.764 189.829 701.702 189.954 701.577L184.051 688.662C184.715 687.946 179.735 683.797 179.424 683.33C182.339 674.18 189.881 650.517 192.879 641.088C230.775 626.253 280.341 606.854 318.6 591.874C331.048 586.801 342.48 585.339 353.404 585.339C368.964 585.764 382.72 587.87 396.051 587.87C413.157 587.87 429.589 584.395 448.293 569.446C457.899 564.051 439.33 566.334 431.373 544.248C443.438 554.29 460.399 561.883 477.163 561.883C479.881 561.883 482.589 561.676 485.276 561.261C486.811 571.386 481.386 582.704 470.151 582.704H469.86C469.663 582.714 469.476 582.724 469.279 582.724C464.953 582.724 461.457 579.612 457.142 579.612H456.841C450.575 579.612 444.849 583.793 443.345 590.131C438.967 611.657 434.672 618.639 438.002 618.639C440.285 618.639 446.135 615.371 457.982 611.273C464.134 608.306 469.144 607.258 473.792 607.258C481.759 607.258 488.689 610.319 498.596 612.072C506.324 612.072 514.032 608.203 517.621 601.003C541.377 556.489 561.949 517.297 508.679 490.387C554.946 493.25 566.71 541.499 542.342 575.878L550.206 584.633C550.351 584.654 553.899 588.72 557.488 592.777C561.067 596.843 564.708 600.899 565.04 600.899C584.564 591.698 637.636 567.361 657.668 557.578C670.376 550.524 675.76 535.565 673.416 522.017C697.182 534.465 725.907 543.833 752.059 543.833H752.225H752.215Z" fill="black"/>
<path d="M685.099 992.645V1004.95H647.814V1048.53C647.814 1062.02 654.924 1067.95 664.952 1067.95C671.607 1067.95 678.08 1065.48 683.094 1061.84L689.475 1072.14C683.003 1077.06 674.433 1080.71 663.858 1080.71C645.261 1080.71 634.23 1070.5 634.23 1048.8V1004.95H615.359V992.645H634.23V965.205H647.814V992.645H685.099Z" fill="black"/>
<path d="M561.452 990.918C584.881 990.918 601.838 1009.24 602.02 1035.5C602.02 1037.23 601.929 1039.05 601.747 1040.6H532.553C534.468 1059.2 547.504 1068.77 563.093 1068.77C573.759 1068.77 583.058 1064.67 590.442 1057.92L597.735 1067.22C586.978 1077.52 574.944 1080.71 562.273 1080.71C536.747 1080.71 518.605 1062.57 518.605 1035.86C518.605 1009.42 536.838 990.918 561.452 990.918ZM561.179 1003.04C545.225 1003.04 534.924 1013.98 532.736 1029.57H588.163C586.431 1013.44 575.856 1003.04 561.179 1003.04Z" fill="black"/>
<path d="M445.905 947.703V1027.65H458.394L491.669 992.647H508.717L469.516 1033.31L509.355 1078.98H492.125L458.303 1040.05H445.905V1078.98H432.23V947.703H445.905Z" fill="black"/>
<path d="M395.66 990.918C401.859 990.918 406.964 991.738 411.522 993.835L408.24 1007.24C404.047 1004.96 398.304 1003.77 393.29 1003.77C379.797 1003.77 370.134 1014.35 370.134 1030.67V1078.98H356.551V992.65H370.043V1004.77C375.969 995.932 385.085 990.918 395.66 990.918Z" fill="black"/>
<path d="M324.639 992.65V1078.98H311.056V1066.13C304.218 1074.97 293.734 1080.71 279.513 1080.71C255.263 1080.71 236.393 1061.75 236.393 1035.77C236.393 1009.88 255.263 990.918 279.513 990.918C293.734 990.918 304.218 996.752 311.056 1005.5V992.65H324.639ZM281.154 1003.68C262.648 1003.68 250.249 1017.99 250.249 1035.77C250.249 1053.64 262.83 1067.95 281.154 1067.95C299.113 1067.95 311.876 1054.09 311.876 1035.77C311.876 1017.54 299.113 1003.68 281.154 1003.68Z" fill="black"/>
<path d="M208.659 951.344V1078.97H193.982V967.753L149.494 1064.84H134.088L89.691 968.482V1078.97H75.0137V951.344H97.2576L141.837 1047.79L186.324 951.344H208.659Z" fill="black"/>
<path d="M706.866 779.152V910.428H683.072V779.152H706.866Z" fill="black"/>
<path d="M658.047 822.107V910.444H634.8V900.689C629.057 907.8 620.488 912.723 608.363 912.723C584.022 912.723 565.607 892.758 565.607 866.23C565.607 839.701 584.022 819.736 608.363 819.736C620.488 819.736 628.966 824.659 634.8 831.861V822.107H658.047ZM612.739 841.889C598.791 841.889 589.948 852.738 589.948 866.23C589.948 879.722 598.791 890.57 612.739 890.57C626.322 890.57 635.53 880.178 635.53 866.23C635.53 852.282 626.322 841.889 612.739 841.889Z" fill="black"/>
<path d="M551.125 822.087V843.237H519.126V875.509C519.126 886.54 524.961 890.551 532.345 890.551C537.997 890.551 544.105 887.725 548.937 884.808L557.689 903.405C549.94 908.692 541.006 912.704 528.425 912.704C506.546 912.704 495.333 900.305 495.333 877.423V843.237H478.285V822.087H495.333V795.832H519.126V822.087H551.125Z" fill="black"/>
<path d="M462.048 822.092V910.429H438.254V822.092H462.048Z" fill="black"/>
<path d="M376.028 819.736C400.46 819.736 418.875 839.701 418.875 866.23C418.875 892.758 400.46 912.723 376.12 912.723C364.268 912.723 355.881 908.074 350.138 901.236V946.909H326.436V822.107H349.682V831.861C355.426 824.659 363.904 819.736 376.028 819.736ZM371.653 841.889C358.16 841.889 348.953 852.282 348.953 866.23C348.953 880.178 358.16 890.57 371.653 890.57C385.692 890.57 394.444 879.722 394.444 866.23C394.444 852.738 385.692 841.889 371.653 841.889Z" fill="black"/>
<path d="M301.407 822.107V910.444H278.16V900.689C272.417 907.8 263.847 912.723 251.722 912.723C227.382 912.723 208.967 892.758 208.967 866.23C208.967 839.701 227.382 819.736 251.722 819.736C263.847 819.736 272.325 824.659 278.16 831.861V822.107H301.407ZM256.098 841.889C242.15 841.889 233.307 852.738 233.307 866.23C233.307 879.722 242.15 890.57 256.098 890.57C269.682 890.57 278.889 880.178 278.889 866.23C278.889 852.282 269.682 841.889 256.098 841.889Z" fill="black"/>
<path d="M142.019 780.426C165.539 780.426 186.324 791.183 196.717 809.051L174.838 822.452C167.636 811.421 156.058 804.858 141.837 804.858C118.681 804.858 101.542 821.814 101.542 846.61C101.633 872.227 119.319 888.363 141.837 888.363C155.967 888.363 167.453 881.982 175.111 870.86L195.896 885.811C184.592 902.403 165.357 912.795 142.019 912.795C102.727 912.795 75.0137 884.99 75.0137 846.61C75.0137 808.231 102.727 780.426 142.019 780.426Z" fill="black"/>
<path d="M465.23 794.315C465.23 785.746 458.576 779 450.006 779C441.437 779 434.873 785.746 434.873 794.315C434.873 802.885 441.437 809.449 450.006 809.449C458.576 809.449 465.23 802.885 465.23 794.315Z" fill="black"/>
</svg>
