<?xml version="1.0" encoding="utf-8"?>
<!-- Generator: Adobe Illustrator 27.5.0, SVG Export Plug-In . SVG Version: 6.00 Build 0)  -->
<svg version="1.1" xmlns="http://www.w3.org/2000/svg" xmlns:xlink="http://www.w3.org/1999/xlink" x="0px" y="0px"
	 viewBox="0 0 3710 3710" style="enable-background:new 0 0 3710 3710;" xml:space="preserve">
<g id="Background">
	<g>
		<g>
			<rect style="fill:#FFFFFF;" width="3710" height="3710"/>
		</g>
	</g>
</g>
<g id="Illustration">
	<g>
		<linearGradient id="SVGID_1_" gradientUnits="userSpaceOnUse" x1="3581.6101" y1="4023.5693" x2="1131.6353" y2="980.8542">
			<stop  offset="0" style="stop-color:#B37CFF"/>
			<stop  offset="1" style="stop-color:#F895E7"/>
		</linearGradient>
		<path style="opacity:0.3;fill:url(#SVGID_1_);" d="M2907.607,2823.632c-56.275,59.244-109.522,97.449-151.591,127.635
			c-494.516,354.821-1079.66,251.392-1204.02,226.134c-183.64-37.298-538.612-109.395-795.251-411.197
			c-388.273-456.601-327.813-1175.963-26.642-1650.823c55.089-86.86,346.084-568.954,937.53-646.266
			c357.937-46.789,775.176,47.579,1077.33,300.723C3379.209,1301.211,3334.058,2374.678,2907.607,2823.632z"/>
		<g>
			<g>
				
					<linearGradient id="SVGID_00000041267443753890283970000005919225667045589401_" gradientUnits="userSpaceOnUse" x1="1851.4994" y1="3305.5115" x2="1811.6962" y2="2517.4163">
					<stop  offset="0" style="stop-color:#2B3582"/>
					<stop  offset="1" style="stop-color:#150E42"/>
				</linearGradient>
				<polygon style="fill:url(#SVGID_00000041267443753890283970000005919225667045589401_);" points="1518.877,2410.815 
					1452.769,3003.707 2219.744,3003.707 2119.845,2410.815 				"/>
				
					<linearGradient id="SVGID_00000065057303370576354660000015709146293717216432_" gradientUnits="userSpaceOnUse" x1="1853.9768" y1="3008.1311" x2="1487.7904" y2="3812.1484">
					<stop  offset="0" style="stop-color:#2B3582"/>
					<stop  offset="1" style="stop-color:#150E42"/>
				</linearGradient>
				<path style="fill:url(#SVGID_00000065057303370576354660000015709146293717216432_);" d="M2384.95,3125.012H1262.43
					c-30.496,0-53.396-21.709-47.5-45.028l14.404-56.965c4.331-17.131,23.178-29.708,45.563-30.407l1082.15-33.768
					c23.386-0.73,44.094,11.684,49.189,29.488l25.966,90.732C2438.948,3102.637,2415.938,3125.012,2384.95,3125.012z"/>
				
					<linearGradient id="SVGID_00000134948938889920657910000007221135329463060880_" gradientUnits="userSpaceOnUse" x1="556.7144" y1="1856.9653" x2="3161.0315" y2="1856.9653">
					<stop  offset="0" style="stop-color:#2B3582"/>
					<stop  offset="1" style="stop-color:#150E42"/>
				</linearGradient>
				<path style="fill:url(#SVGID_00000134948938889920657910000007221135329463060880_);" d="M556.714,1131.843v1357.875
					c0,111.703,89.014,203.05,200.68,205.929c495.962,12.789,1773.373,43.8,2245.497,36.84
					c81.146-1.196,146.881-66.132,149.222-147.252c9.104-315.453,23.889-1074.011-30.827-1426.181
					c-11.523-74.163-74.123-129.621-149.138-132.02c-415.554-13.293-1797.157-55.506-2269.06-44.908
					C621.702,983.955,556.714,1050.436,556.714,1131.843z"/>
				
					<linearGradient id="SVGID_00000115507212024897908710000009297990369784446365_" gradientUnits="userSpaceOnUse" x1="789.227" y1="846.8932" x2="3665.7939" y2="3436.8657">
					<stop  offset="0" style="stop-color:#53D8FF"/>
					<stop  offset="1" style="stop-color:#3840F7"/>
				</linearGradient>
				<path style="fill:url(#SVGID_00000115507212024897908710000009297990369784446365_);" d="M641.917,1125.234v1290.075
					c0,65.219,52.353,118.36,117.564,119.335l2175.488,32.526c64.652,0.967,117.648-51.049,117.889-115.708l4.404-1278.549
					c0.172-46.233-36.661-84.114-82.881-85.239L736.197,1033.22C684.503,1031.963,641.917,1073.525,641.917,1125.234z"/>
				<path style="opacity:0.65;fill:#FFFFFF;" d="M3072.677,2619.756c-0.023,0-0.046,0-0.069,0L641.85,2570.549
					c-1.859-0.04-3.335-1.574-3.299-3.436c0.038-1.857,1.642-3.37,3.434-3.297l2430.758,49.207c1.859,0.039,3.335,1.575,3.299,3.435
					C3076.005,2618.293,3074.506,2619.756,3072.677,2619.756z"/>
				<path style="fill:#FFFFFF;" d="M1866.703,3007.752c-1.836,0-3.337-1.476-3.365-3.317c-0.026-1.861,1.458-3.389,3.317-3.416
					l46.372-0.677c0.017,0,0.033,0,0.051,0c1.836,0,3.337,1.476,3.365,3.317c0.026,1.861-1.458,3.389-3.317,3.416l-46.372,0.677
					C1866.737,3007.752,1866.721,3007.752,1866.703,3007.752z"/>
				<path style="fill:#FFFFFF;" d="M1256.489,3093.316c-0.178,0-0.357-0.013-0.536-0.043c-1.836-0.292-3.087-2.018-2.793-3.853
					l6.616-41.432c3.531-22.125,22.354-38.421,44.756-38.75l491.839-7.193c1.749,0.075,3.388,1.456,3.416,3.317
					c0.027,1.857-1.458,3.39-3.317,3.416l-491.839,7.193c-19.123,0.28-35.191,14.189-38.207,33.075l-6.616,41.432
					C1259.543,3092.135,1258.113,3093.316,1256.489,3093.316z"/>
			</g>
			
				<ellipse transform="matrix(0.1602 -0.9871 0.9871 0.1602 -452.2095 1952.5919)" style="fill:#FFFFFF;" cx="921.394" cy="1242.05" rx="40.718" ry="40.718"/>
			
				<ellipse transform="matrix(0.9239 -0.3827 0.3827 0.9239 -487.6237 463.5474)" style="fill:#FFFFFF;" cx="921.394" cy="1457.499" rx="40.718" ry="40.718"/>
			<circle style="fill:#FFFFFF;" cx="921.394" cy="1672.948" r="40.718"/>
			
				<ellipse transform="matrix(0.1602 -0.9871 0.9871 0.1602 -1090.2098 2495.405)" style="fill:#FFFFFF;" cx="921.394" cy="1888.397" rx="40.718" ry="40.718"/>
			<circle style="fill:#FFFFFF;" cx="921.394" cy="2127.41" r="40.718"/>
			<circle style="fill:#FFFFFF;" cx="921.394" cy="2342.859" r="40.718"/>
			<path style="opacity:0.7;fill:#FFFFFF;" d="M1105.147,2520.313h-38.245c-2.453,0-4.442-1.989-4.442-4.442V1087.307
				c0-2.453,1.989-4.442,4.442-4.442h38.245c2.453,0,4.442,1.989,4.442,4.442V2515.87
				C1109.59,2518.323,1107.601,2520.313,1105.147,2520.313z"/>
			<g style="opacity:0.6;">
				<path style="fill:#FFFFFF;" d="M2374.275,1392.573H1181.36c-2.453,0-4.442-1.989-4.442-4.442v-38.245
					c0-2.453,1.989-4.442,4.442-4.442h1192.915c2.454,0,4.442,1.989,4.442,4.442v38.245
					C2378.718,1390.584,2376.729,1392.573,2374.275,1392.573z"/>
				<path style="fill:#FFFFFF;" d="M1617.96,1545.347H1181.36c-2.453,0-4.442-1.989-4.442-4.442v-38.245
					c0-2.453,1.989-4.442,4.442-4.442h436.601c2.453,0,4.442,1.989,4.442,4.442v38.245
					C1622.403,1543.358,1620.414,1545.347,1617.96,1545.347z"/>
				<path style="fill:#FFFFFF;" d="M2897.188,1847.317h-436.601c-2.454,0-4.442-1.989-4.442-4.442v-38.245
					c0-2.453,1.989-4.442,4.442-4.442h436.6c2.454,0,4.442,1.989,4.442,4.442v38.245
					C2901.63,1845.328,2899.641,1847.317,2897.188,1847.317z"/>
				<path style="fill:#FFFFFF;" d="M2304.38,1997.243H1867.78c-2.453,0-4.442-1.989-4.442-4.442v-38.245
					c0-2.453,1.989-4.442,4.442-4.442h436.601c2.453,0,4.442,1.989,4.442,4.442v38.245
					C2308.823,1995.254,2306.834,1997.243,2304.38,1997.243z"/>
				<path style="fill:#FFFFFF;" d="M1965.82,2133.821h-266.037c-2.453,0-4.443-1.989-4.443-4.442v-38.245
					c0-2.453,1.989-4.442,4.443-4.442h266.037c2.453,0,4.442,1.989,4.442,4.442v38.245
					C1970.263,2131.832,1968.274,2133.821,1965.82,2133.821z"/>
				<path style="fill:#FFFFFF;" d="M1464.229,2258.377h-266.037c-2.453,0-4.442-1.989-4.442-4.442v-38.245
					c0-2.453,1.989-4.442,4.442-4.442h266.037c2.453,0,4.442,1.989,4.442,4.442v38.245
					C1468.671,2256.389,1466.682,2258.377,1464.229,2258.377z"/>
				<path style="fill:#FFFFFF;" d="M1634.792,2133.821h-436.601c-2.453,0-4.442-1.989-4.442-4.442v-38.245
					c0-2.453,1.989-4.442,4.442-4.442h436.601c2.453,0,4.442,1.989,4.442,4.442v38.245
					C1639.235,2131.832,1637.246,2133.821,1634.792,2133.821z"/>
				<path style="fill:#FFFFFF;" d="M2762.532,2133.821H2035.3c-2.453,0-4.443-1.989-4.443-4.442v-38.245
					c0-2.453,1.989-4.442,4.443-4.442h727.232c2.453,0,4.442,1.989,4.442,4.442v38.245
					C2766.974,2131.832,2764.985,2133.821,2762.532,2133.821z"/>
				<path style="fill:#FFFFFF;" d="M2841.081,1696.512h-636.339c-2.453,0-4.442-1.989-4.442-4.442v-38.245
					c0-2.453,1.989-4.442,4.442-4.442h636.339c2.453,0,4.442,1.989,4.442,4.442v38.245
					C2845.523,1694.524,2843.534,1696.512,2841.081,1696.512z"/>
				<path style="fill:#FFFFFF;" d="M1817.699,1997.243h-636.34c-2.453,0-4.442-1.989-4.442-4.442v-38.245
					c0-2.453,1.989-4.442,4.442-4.442h636.34c2.453,0,4.442,1.989,4.442,4.442v38.245
					C1822.142,1995.254,1820.153,1997.243,1817.699,1997.243z"/>
				<path style="fill:#FFFFFF;" d="M2641.342,1545.347h-955.024c-2.453,0-4.442-1.989-4.442-4.442v-38.245
					c0-2.453,1.989-4.442,4.442-4.442h955.024c2.454,0,4.442,1.989,4.442,4.442v38.245
					C2645.784,1543.358,2643.795,1545.347,2641.342,1545.347z"/>
				<path style="fill:#FFFFFF;" d="M2136.384,1696.512H1181.36c-2.453,0-4.442-1.989-4.442-4.442v-38.245
					c0-2.453,1.989-4.442,4.442-4.442h955.024c2.454,0,4.443,1.989,4.443,4.442l0,38.245
					C2140.826,1694.524,2138.837,1696.512,2136.384,1696.512z"/>
				<path style="fill:#FFFFFF;" d="M2374.275,1847.317H1181.36c-2.453,0-4.442-1.989-4.442-4.442v-38.245
					c0-2.453,1.989-4.442,4.442-4.442h1192.915c2.454,0,4.442,1.989,4.442,4.442v38.245
					C2378.718,1845.328,2376.729,1847.317,2374.275,1847.317z"/>
			</g>
			<g>
				<path style="fill:#FFFFFF;" d="M1303.295,1264.872l-50.177-37.201l0.987-11.715l55.684-28.125l-1.424,16.895l-38.385,18.468
					l34.74,24.783L1303.295,1264.872z"/>
				<path style="fill:#FFFFFF;" d="M1380.607,1176.636l-50.178,106.327l-19.22-1.62l50.174-106.328L1380.607,1176.636z"/>
				<path style="fill:#FFFFFF;" d="M1382.96,1254.572l38.623-18.599l-34.977-24.652l1.424-16.895l50.19,37.05l-0.988,11.715
					l-55.697,28.276L1382.96,1254.572z"/>
			</g>
			<g>
				<path style="fill:#FFFFFF;" d="M1260.115,2419.46l-50.177-37.2l0.988-11.715l55.684-28.125l-1.424,16.895l-38.385,18.468
					l34.74,24.783L1260.115,2419.46z"/>
				<path style="fill:#FFFFFF;" d="M1337.428,2331.224l-50.178,106.327l-19.22-1.62l50.174-106.328L1337.428,2331.224z"/>
				<path style="fill:#FFFFFF;" d="M1339.781,2409.16l38.623-18.599l-34.977-24.652l1.424-16.895l50.19,37.05l-0.987,11.715
					l-55.697,28.276L1339.781,2409.16z"/>
			</g>
		</g>
		<g>
			<g>
				<g style="opacity:0.24;">
					
						<linearGradient id="SVGID_00000009553654772179970930000011860669648505753258_" gradientUnits="userSpaceOnUse" x1="2373.6433" y1="974.0062" x2="2389.72" y2="974.0062">
						<stop  offset="0" style="stop-color:#B37CFF"/>
						<stop  offset="1" style="stop-color:#F895E7"/>
					</linearGradient>
					<path style="fill:url(#SVGID_00000009553654772179970930000011860669648505753258_);" d="M2383.206,962.389
						c-2.841-0.027-5.479,1.807-6.347,4.663c-1.033,3.4-2.025,6.818-2.975,10.249c-0.968,3.497,1.083,7.119,4.581,8.088
						c3.501,0.955,7.117-1.082,8.087-4.579c0.921-3.329,1.883-6.639,2.884-9.937c1.056-3.471-0.905-7.142-4.377-8.197
						C2384.441,962.488,2383.819,962.394,2383.206,962.389z"/>
					
						<linearGradient id="SVGID_00000006698530655961014560000009512639252746249898_" gradientUnits="userSpaceOnUse" x1="2358.3193" y1="1265.269" x2="2998.1257" y2="1265.269">
						<stop  offset="0" style="stop-color:#B37CFF"/>
						<stop  offset="1" style="stop-color:#F895E7"/>
					</linearGradient>
					<path style="fill:url(#SVGID_00000006698530655961014560000009512639252746249898_);" d="M2373.681,1005.843
						c3.565,0.683,5.9,4.127,5.217,7.692c-1.289,6.731-2.429,13.598-3.386,20.409c-0.504,3.595-3.816,6.098-7.423,5.593
						c-3.593-0.503-6.097-3.826-5.593-7.421c0.989-7.027,2.164-14.111,3.494-21.055c0.606-3.168,3.394-5.365,6.509-5.335
						C2372.888,1005.73,2373.284,1005.767,2373.681,1005.843z M2366.006,1060.45c3.624,0.214,6.387,3.327,6.172,6.948
						c-0.406,6.851-0.646,13.808-0.716,20.682c-0.037,3.629-3.005,6.541-6.634,6.506l-0.003,0c-3.629-0.037-6.542-3.009-6.505-6.636
						c0.071-7.09,0.319-14.265,0.738-21.329c0.21-3.513,3.138-6.216,6.617-6.182
						C2365.784,1060.44,2365.896,1060.444,2366.006,1060.45z M2372.458,1121.699c0.474,6.862,1.124,13.794,1.929,20.601
						c0.426,3.606-2.15,6.873-5.754,7.297c-3.635,0.436-6.874-2.149-7.299-5.753c-0.83-7.021-1.5-14.166-1.988-21.238
						c-0.25-3.623,2.483-6.76,6.104-7.01c0.174-0.011,0.348-0.017,0.522-0.015
						C2369.367,1115.614,2372.22,1118.254,2372.458,1121.699z M2379.66,1175.495c1.344,6.718,2.878,13.505,4.56,20.178
						c0.886,3.521-1.248,7.092-4.768,7.977c-3.529,0.891-7.093-1.247-7.978-4.765c-1.733-6.881-3.316-13.881-4.702-20.81
						c-0.712-3.56,1.596-7.021,5.156-7.732c0.456-0.094,0.91-0.135,1.358-0.131
						C2376.327,1170.24,2379.039,1172.393,2379.66,1175.495z M2393.746,1227.903c2.206,6.493,4.611,13.024,7.144,19.412
						c1.339,3.372-0.312,7.192-3.686,8.531c-3.376,1.339-7.195-0.312-8.531-3.687c-2.613-6.587-5.094-13.326-7.371-20.025
						c-1.168-3.436,0.67-7.168,4.106-8.337c0.723-0.245,1.457-0.358,2.178-0.351
						C2390.299,1223.471,2392.823,1225.188,2393.746,1227.903z M2414.542,1278.049c3.04,6.159,6.278,12.331,9.628,18.346
						c1.766,3.172,0.627,7.174-2.544,8.941c-3.166,1.756-7.172,0.622-8.938-2.544c-3.456-6.207-6.798-12.574-9.933-18.924
						c-1.605-3.255-0.269-7.196,2.986-8.804c0.954-0.471,1.968-0.69,2.965-0.68
						C2411.106,1274.407,2413.408,1275.752,2414.542,1278.049z M2441.701,1325.093c3.813,5.713,7.822,11.408,11.919,16.936
						c2.162,2.916,1.552,7.031-1.365,9.193c-2.916,2.159-7.031,1.551-9.192-1.366c-4.225-5.697-8.361-11.575-12.293-17.462
						c-2.015-3.02-1.203-7.099,1.816-9.116c1.139-0.76,2.43-1.117,3.705-1.105
						C2438.392,1322.192,2440.447,1323.214,2441.701,1325.093z M2474.714,1368.215c4.525,5.177,9.235,10.307,13.998,15.246
						c2.52,2.613,2.444,6.771-0.169,9.294c-2.613,2.519-6.772,2.441-9.292-0.168c-4.913-5.093-9.769-10.384-14.436-15.727
						c-2.387-2.731-2.107-6.885,0.625-9.271c1.264-1.102,2.829-1.637,4.384-1.622
						C2471.635,1365.984,2473.429,1366.745,2474.714,1368.215z M2512.998,1406.719c5.151,4.554,10.476,9.036,15.831,13.317
						c2.834,2.265,3.294,6.4,1.027,9.237c-2.267,2.835-6.405,3.297-9.238,1.026c-5.521-4.417-11.014-9.036-16.327-13.733
						c-2.719-2.402-2.975-6.557-0.57-9.276c1.314-1.487,3.149-2.236,4.988-2.219
						C2510.234,1405.085,2511.763,1405.628,2512.998,1406.719z M2555.894,1439.975c5.693,3.853,11.547,7.608,17.402,11.162
						c3.103,1.883,4.091,5.925,2.208,9.028c-1.885,3.102-5.927,4.087-9.027,2.207c-6.042-3.667-12.08-7.541-17.949-11.512
						c-3.007-2.035-3.794-6.119-1.76-9.127c1.283-1.895,3.381-2.907,5.51-2.887
						C2553.527,1438.858,2554.785,1439.225,2555.894,1439.975z M2997.345,1464.929c1.715,3.2,0.512,7.183-2.687,8.898
						c-6.265,3.357-12.678,6.593-19.059,9.618c-3.28,1.556-7.199,0.155-8.752-3.125c-1.555-3.28-0.155-7.197,3.125-8.753
						c6.186-2.932,12.402-6.069,18.475-9.326c1.009-0.54,2.094-0.789,3.162-0.779
						C2993.931,1461.485,2996.17,1462.739,2997.345,1464.929z M2602.7,1467.422c6.129,3.079,12.414,6.045,18.681,8.815
						c3.321,1.467,4.823,5.347,3.357,8.666c-1.467,3.323-5.355,4.819-8.667,3.354c-6.466-2.853-12.951-5.913-19.274-9.093
						c-3.242-1.63-4.549-5.58-2.919-8.823c1.163-2.315,3.51-3.646,5.939-3.623C2600.789,1466.728,2601.773,1466.956,2602.7,1467.422
						z M2947.507,1488.549c1.284,3.393-0.425,7.187-3.819,8.472c-6.611,2.505-13.392,4.88-20.152,7.059
						c-3.456,1.117-7.157-0.782-8.271-4.238c-1.114-3.455,0.783-7.157,4.238-8.272c6.552-2.112,13.124-4.414,19.532-6.838
						c0.786-0.299,1.595-0.438,2.388-0.43C2944.051,1484.327,2946.518,1485.942,2947.507,1488.549z M2652.633,1488.571
						c6.49,2.26,13.102,4.385,19.652,6.312c3.482,1.023,5.474,4.678,4.451,8.159c-1.026,3.482-4.685,5.468-8.16,4.452
						c-6.757-1.987-13.577-4.177-20.272-6.513c-3.425-1.194-5.236-4.94-4.04-8.368c0.952-2.733,3.525-4.435,6.265-4.41
						C2651.228,1488.208,2651.936,1488.328,2652.633,1488.571z M2895.013,1505.483c0.832,3.533-1.357,7.07-4.891,7.902
						c-6.915,1.628-13.945,3.099-20.896,4.376c-3.57,0.674-6.995-1.705-7.651-5.276c-0.655-3.57,1.707-6.995,5.276-7.649
						c6.74-1.241,13.557-2.667,20.261-4.244c0.527-0.126,1.054-0.182,1.573-0.177
						C2891.641,1500.443,2894.307,1502.477,2895.013,1505.483z M2704.885,1503.06c6.692,1.393,13.537,2.641,20.35,3.71
						c3.586,0.562,6.035,3.926,5.472,7.512c-0.56,3.584-3.917,6.026-7.511,5.473c-7.025-1.104-14.087-2.393-20.991-3.829
						c-3.552-0.74-5.833-4.219-5.094-7.772c0.65-3.123,3.416-5.261,6.488-5.232
						C2704.024,1502.926,2704.453,1502.97,2704.885,1503.06z M2840.763,1515.46c0.369,3.61-2.258,6.836-5.87,7.204
						c-6.172,0.633-12.434,1.138-18.606,1.508l-2.685,0.152c-3.635,0.15-6.716-2.595-6.904-6.222
						c-0.189-3.623,2.596-6.714,6.221-6.903l2.58-0.147c5.994-0.36,12.07-0.851,18.061-1.461c0.249-0.026,0.493-0.037,0.737-0.035
						C2837.598,1509.587,2840.42,1512.097,2840.763,1515.46z M2758.619,1510.628c6.849,0.517,13.8,0.865,20.663,1.041
						c3.629,0.093,6.494,3.108,6.401,6.738c-0.092,3.629-3.137,6.508-6.737,6.402c-7.078-0.182-14.249-0.543-21.312-1.075
						c-3.62-0.271-6.333-3.426-6.061-7.046c0.261-3.474,3.177-6.111,6.609-6.078
						C2758.327,1510.612,2758.472,1510.62,2758.619,1510.628z"/>
					
						<linearGradient id="SVGID_00000043457347320792554340000012197130111893750200_" gradientUnits="userSpaceOnUse" x1="3014.6411" y1="1447.6323" x2="3036.5408" y2="1447.6323">
						<stop  offset="0" style="stop-color:#B37CFF"/>
						<stop  offset="1" style="stop-color:#F895E7"/>
					</linearGradient>
					<path style="fill:url(#SVGID_00000043457347320792554340000012197130111893750200_);" d="M3030.025,1438.155
						c-1.294-0.012-2.604,0.356-3.756,1.141c-2.847,1.939-5.72,3.848-8.62,5.717c-3.048,1.968-3.926,6.036-1.959,9.085
						c1.969,3.053,6.034,3.931,9.086,1.96c2.99-1.929,5.953-3.899,8.892-5.899c3-2.043,3.774-6.13,1.731-9.13
						C3034.142,1439.178,3032.105,1438.175,3030.025,1438.155z"/>
				</g>
				<g style="opacity:0.24;">
					
						<linearGradient id="SVGID_00000072978982654963258210000016720804094420944288_" gradientUnits="userSpaceOnUse" x1="3200.3555" y1="1176.4371" x2="3215.5615" y2="1176.4371">
						<stop  offset="0" style="stop-color:#B37CFF"/>
						<stop  offset="1" style="stop-color:#F895E7"/>
					</linearGradient>
					<path style="fill:url(#SVGID_00000072978982654963258210000016720804094420944288_);" d="M3209.044,1164.712
						c-3.126-0.03-5.92,2.182-6.513,5.362c-0.636,3.398-1.313,6.778-2.03,10.146c-0.755,3.551,1.51,7.041,5.061,7.796
						c3.555,0.76,7.038-1.511,7.795-5.061c0.739-3.476,1.437-6.964,2.092-10.464c0.668-3.571-1.684-7.002-5.252-7.669
						C3209.809,1164.751,3209.423,1164.715,3209.044,1164.712z"/>
					
						<linearGradient id="SVGID_00000090287575915637417590000007640173508384001671_" gradientUnits="userSpaceOnUse" x1="2565.2859" y1="902.533" x2="3222.6858" y2="902.533">
						<stop  offset="0" style="stop-color:#B37CFF"/>
						<stop  offset="1" style="stop-color:#F895E7"/>
					</linearGradient>
					<path style="fill:url(#SVGID_00000090287575915637417590000007640173508384001671_);" d="M2798.966,660.539
						c3.629,0.063,6.52,3.058,6.457,6.687c-0.064,3.609-3.029,6.49-6.632,6.456c0,0-0.036,0-0.054-0.001l-3.791-0.054
						c-5.482-0.052-11.061,0.006-16.586,0.168c-3.61,0.076-6.655-2.743-6.763-6.374c-0.108-3.628,2.746-6.656,6.374-6.762
						c5.694-0.17,11.446-0.229,17.111-0.175L2798.966,660.539z M2833.035,662.507c6.948,0.679,13.961,1.537,20.842,2.549
						c3.591,0.527,6.074,3.867,5.546,7.456c-0.529,3.592-3.841,6.073-7.458,5.547c-6.672-0.98-13.472-1.812-20.209-2.471
						c-3.613-0.354-6.255-3.569-5.901-7.18c0.334-3.417,3.227-5.964,6.594-5.932
						C2832.644,662.478,2832.838,662.487,2833.035,662.507z M2751.16,668.817c0.388,3.611-2.221,6.851-5.83,7.24
						c-6.712,0.723-13.51,1.621-20.205,2.667c-3.581,0.559-6.948-1.892-7.509-5.477c-0.56-3.585,1.893-6.948,5.479-7.507
						c6.901-1.08,13.908-2.003,20.828-2.752c0.26-0.026,0.519-0.039,0.773-0.037C2747.983,662.982,2750.798,665.472,2751.16,668.817
						z M2887.407,671.359c6.803,1.561,13.649,3.309,20.35,5.196c3.494,0.985,5.527,4.614,4.543,8.109
						c-0.984,3.494-4.614,5.532-8.108,4.543c-6.493-1.83-13.13-3.525-19.723-5.036c-3.537-0.811-5.748-4.336-4.937-7.877
						c0.704-3.064,3.442-5.132,6.462-5.104C2886.46,671.195,2886.935,671.251,2887.407,671.359z M2697.52,677.219
						c0.844,3.53-1.334,7.074-4.863,7.919c-6.594,1.575-13.221,3.333-19.694,5.217c-3.487,1.017-7.131-0.989-8.147-4.473
						c-1.014-3.485,0.988-7.131,4.473-8.146c6.678-1.944,13.513-3.756,20.312-5.381c0.535-0.128,1.07-0.188,1.596-0.183
						C2694.143,672.201,2696.803,674.224,2697.52,677.219z M2940.187,687.097c6.518,2.411,13.073,5.014,19.48,7.742
						c3.34,1.423,4.895,5.283,3.472,8.622c-1.424,3.34-5.289,4.898-8.621,3.471c-6.213-2.646-12.566-5.171-18.887-7.505
						c-3.404-1.26-5.144-5.04-3.886-8.445c0.988-2.673,3.53-4.32,6.226-4.295C2938.708,686.696,2939.456,686.829,2940.187,687.097z
						 M2645.395,692.39c1.29,3.394-0.418,7.186-3.811,8.477c-6.333,2.404-12.677,4.993-18.855,7.694
						c-3.328,1.445-7.2-0.068-8.656-3.388c-1.453-3.326,0.063-7.2,3.389-8.656c6.377-2.787,12.923-5.458,19.458-7.941
						c0.788-0.297,1.597-0.436,2.393-0.429C2641.939,688.173,2644.406,689.785,2645.395,692.39z M2990.493,709.438
						c6.151,3.214,12.327,6.635,18.353,10.17c3.131,1.835,4.18,5.862,2.345,8.992c-1.836,3.132-5.861,4.183-8.993,2.343
						c-5.843-3.426-11.829-6.74-17.79-9.857c-3.217-1.681-4.462-5.651-2.781-8.868c1.183-2.263,3.5-3.553,5.891-3.531
						C2988.523,708.698,2989.541,708.942,2990.493,709.438z M2595.646,714.109c1.715,3.2,0.51,7.183-2.689,8.895
						c-5.951,3.188-11.914,6.569-17.721,10.049c-3.111,1.87-7.149,0.854-9.015-2.257c-1.866-3.115-0.855-7.15,2.257-9.016
						c5.989-3.591,12.136-7.075,18.273-10.362c1.008-0.54,2.092-0.789,3.159-0.779
						C2592.233,710.661,2594.474,711.915,2595.646,714.109z M3037.572,738.006c5.713,3.984,11.406,8.161,16.921,12.416
						c2.874,2.217,3.406,6.345,1.188,9.219c-2.217,2.873-6.344,3.4-9.216,1.189c-5.349-4.127-10.872-8.179-16.412-12.046
						c-2.978-2.075-3.707-6.171-1.631-9.15c1.291-1.848,3.36-2.83,5.459-2.81C3035.158,736.835,3036.445,737.219,3037.572,738.006z
						 M3080.666,772.315c5.164,4.675,10.286,9.543,15.224,14.464c2.57,2.563,2.574,6.725,0.011,9.295
						c-2.563,2.566-6.723,2.573-9.293,0.013c-4.787-4.777-9.754-9.496-14.763-14.029c-2.691-2.433-2.897-6.591-0.462-9.282
						c1.311-1.448,3.124-2.178,4.937-2.161C3077.872,770.631,3079.425,771.192,3080.666,772.315z M3119.085,811.811
						c4.539,5.3,9.006,10.779,13.276,16.288c2.225,2.868,1.703,6.996-1.165,9.221c-2.862,2.221-6.996,1.702-9.221-1.167
						c-4.141-5.34-8.473-10.654-12.873-15.791c-2.361-2.759-2.04-6.907,0.717-9.268c1.256-1.074,2.8-1.594,4.334-1.579
						C3115.984,809.532,3117.799,810.312,3119.085,811.811z M3152.198,855.873c3.833,5.841,7.569,11.848,11.103,17.854
						c1.84,3.126,0.798,7.154-2.33,8.997c-3.129,1.839-7.157,0.796-8.997-2.332c-3.426-5.822-7.048-11.646-10.765-17.312
						c-1.992-3.032-1.144-7.106,1.89-9.097c1.129-0.742,2.404-1.089,3.66-1.077C3148.88,852.926,3150.95,853.967,3152.198,855.873z
						 M3179.438,903.817c3.053,6.279,5.991,12.723,8.733,19.146c1.425,3.337-0.126,7.2-3.464,8.623
						c-3.338,1.422-7.198-0.127-8.624-3.464c-2.657-6.225-5.505-12.47-8.465-18.559c-1.588-3.264-0.227-7.194,3.037-8.784
						c0.944-0.458,1.945-0.672,2.93-0.662C3175.999,900.139,3178.311,901.498,3179.438,903.817z M3200.309,954.851
						c2.212,6.586,4.299,13.337,6.198,20.065c0.986,3.494-1.047,7.125-4.538,8.111c-3.496,0.988-7.126-1.046-8.111-4.539
						c-1.842-6.523-3.863-13.067-6.008-19.452c-1.156-3.44,0.697-7.167,4.137-8.322c0.714-0.239,1.441-0.351,2.156-0.344
						C3196.865,950.395,3199.394,952.125,3200.309,954.851z M3214.463,1008.088c1.355,6.838,2.562,13.799,3.584,20.694
						c0.531,3.588-1.947,6.93-5.537,7.464c-3.602,0.52-6.933-1.948-7.464-5.539c-0.992-6.681-2.159-13.433-3.476-20.062
						c-0.706-3.56,1.608-7.019,5.167-7.724c0.453-0.091,0.904-0.132,1.348-0.128
						C3211.134,1002.821,3213.848,1004.98,3214.463,1008.088z M3221.729,1062.69c0.098,1.426,0.192,2.851,0.276,4.279
						c0.332,5.556,0.559,11.175,0.678,16.698c0.077,3.628-2.801,6.633-6.429,6.711c-3.598,0.088-6.633-2.802-6.713-6.43
						c-0.114-5.357-0.336-10.806-0.657-16.195c-0.084-1.387-0.172-2.772-0.268-4.156c-0.25-3.622,2.483-6.76,6.103-7.01
						c0.175-0.011,0.349-0.017,0.522-0.015C3218.639,1056.605,3221.491,1059.245,3221.729,1062.69z M3215.898,1110.853
						c3.623,0.206,6.394,3.311,6.187,6.934c-0.395,6.974-0.968,14.018-1.701,20.934c-0.382,3.608-3.596,6.224-7.226,5.843
						c-3.609-0.381-6.226-3.617-5.843-7.225c0.709-6.709,1.265-13.537,1.65-20.299c0.199-3.517,3.131-6.231,6.619-6.198
						C3215.687,1110.844,3215.792,1110.847,3215.898,1110.853z"/>
					
						<linearGradient id="SVGID_00000116230158069685872860000013084817876602408120_" gradientUnits="userSpaceOnUse" x1="2528.502" y1="749.0732" x2="2550.1221" y2="749.0732">
						<stop  offset="0" style="stop-color:#B37CFF"/>
						<stop  offset="1" style="stop-color:#F895E7"/>
					</linearGradient>
					<path style="fill:url(#SVGID_00000116230158069685872860000013084817876602408120_);" d="M2543.608,739.397
						c-1.342-0.013-2.698,0.383-3.874,1.221c-2.895,2.065-5.764,4.17-8.606,6.305c-2.902,2.177-3.488,6.297-1.31,9.201
						c2.181,2.9,6.298,3.487,9.201,1.307c2.756-2.07,5.538-4.109,8.347-6.113c2.954-2.107,3.641-6.211,1.533-9.166
						C2547.632,740.372,2545.637,739.417,2543.608,739.397z"/>
				</g>
				<g>
					
						<linearGradient id="SVGID_00000084526563750350469110000011037812097855763846_" gradientUnits="userSpaceOnUse" x1="2910.377" y1="585.4268" x2="2665.022" y2="1633.1564">
						<stop  offset="0" style="stop-color:#A737D5"/>
						<stop  offset="1" style="stop-color:#EF497A"/>
					</linearGradient>
					<path style="fill:url(#SVGID_00000084526563750350469110000011037812097855763846_);" d="M2515.198,915.294
						c-1.393,1.677-1.571,4.052-0.441,5.916l32.225,53.177c-12.991,25.971-21.935,54.199-26.065,83.795l-56.649,25.539
						c-1.988,0.896-3.186,2.954-2.987,5.125l6.813,74.271c0.199,2.171,1.753,3.976,3.869,4.495l60.352,14.807
						c9.444,28.351,23.375,54.482,40.875,77.655l-22.013,58.153c-0.771,2.039-0.165,4.342,1.511,5.736l57.336,47.701
						c1.675,1.394,4.051,1.572,5.915,0.443l53.177-32.226c25.97,12.992,54.198,21.937,83.795,26.066l25.539,56.649
						c0.896,1.988,2.954,3.187,5.123,2.988l74.274-6.813c2.171-0.2,3.975-1.754,4.495-3.87l14.807-60.351
						c28.351-9.444,54.482-23.375,77.655-40.874l58.153,22.013c2.038,0.772,4.342,0.166,5.736-1.511l47.7-57.337
						c1.394-1.675,1.571-4.051,0.443-5.913l-32.226-53.18c12.992-25.968,21.935-54.197,26.065-83.794l56.649-25.539
						c1.988-0.895,3.187-2.953,2.988-5.124l-6.813-74.274c-0.2-2.171-1.753-3.975-3.871-4.495l-60.351-14.805
						c-9.444-28.352-23.375-54.484-40.875-77.656l22.013-58.153c0.772-2.038,0.166-4.341-1.511-5.736l-57.335-47.701
						c-1.676-1.394-4.051-1.571-5.915-0.441l-53.179,32.225c-25.97-12.992-54.198-21.935-83.795-26.065l-25.539-56.65
						c-0.896-1.985-2.952-3.186-5.124-2.987l-74.272,6.814c-2.171,0.199-3.977,1.752-4.495,3.87l-14.807,60.349
						c-28.351,9.445-54.482,23.376-77.655,40.876l-58.152-22.014c-2.039-0.771-4.343-0.164-5.736,1.511L2515.198,915.294z"/>
					<path style="fill:#FFFFFF;" d="M2801.887,1025.45c18.864,2.961,35.444,13.092,46.687,28.524
						c11.242,15.432,15.802,34.321,12.84,53.185s-13.093,35.444-28.527,46.685c-15.434,11.245-34.322,15.801-53.184,12.84
						c-18.864-2.961-35.443-13.092-46.685-28.524c-11.244-15.435-15.803-34.324-12.84-53.187
						c2.961-18.861,13.093-35.442,28.525-46.685c12.546-9.138,27.373-13.86,42.617-13.715
						C2794.828,1024.606,2798.359,1024.896,2801.887,1025.45z M2826.696,1145.348c13.162-9.589,21.804-23.731,24.331-39.822
						c2.527-16.087-1.362-32.197-10.951-45.36c-9.59-13.162-23.73-21.802-39.82-24.329l0,0c-16.083-2.52-32.198,1.361-45.361,10.95
						c-13.162,9.59-21.803,23.729-24.33,39.82c-2.528,16.087,1.362,32.197,10.951,45.36c9.59,13.162,23.73,21.805,39.818,24.331
						c3.01,0.473,6.02,0.722,9.013,0.75C2803.348,1157.172,2815.996,1153.143,2826.696,1145.348z"/>
					<path style="fill:#FFFFFF;" d="M2793.794,914.579c-6.134-0.058-12.311,0.191-18.548,0.763l0,0
						c-2.483,0.229-4.962,0.508-7.432,0.836c-8.685,1.153-17.272,2.922-25.651,5.282c-0.24,0.067-0.478,0.137-0.717,0.203
						c-1.447,0.415-2.888,0.845-4.323,1.297c-1.115,0.348-1.832,1.371-1.843,2.479c-0.002,0.27,0.037,0.543,0.122,0.813
						c0.433,1.388,1.906,2.152,3.294,1.724c11.968-3.75,24.426-6.241,37.031-7.397h-0.001
						c62.558-5.745,120.61,21.902,156.504,68.211c18.517,23.889,31.134,52.74,35.431,84.552c0.341,2.524,0.63,5.075,0.865,7.638
						c0.56,6.104,0.809,12.189,0.75,18.236c-0.392,40.687-14.644,79.681-41.018,111.385
						c-30.297,36.415-72.959,58.853-120.131,63.179c-97.387,8.945-183.867-63.023-192.8-160.4c-0.552-6.002-0.795-12.008-0.737-18
						c0.251-25.951,6.179-51.564,17.447-74.975c0.174-0.36,0.258-0.739,0.26-1.114c0.009-0.985-0.54-1.939-1.489-2.394
						c-1.308-0.628-2.879-0.081-3.51,1.231c-11.603,24.105-17.708,50.479-17.966,77.201c-0.06,6.166,0.191,12.352,0.758,18.532
						c9.198,100.264,98.252,174.38,198.515,165.156c48.571-4.455,92.498-27.559,123.692-65.052
						c27.157-32.642,41.831-72.792,42.236-114.687c0.059-6.227-0.196-12.491-0.771-18.776
						C2965.136,986.47,2886.266,915.455,2793.794,914.579z"/>
				</g>
			</g>
			<g>
				<g style="opacity:0.3;">
					
						<linearGradient id="SVGID_00000011009965971137592930000000575067020912920454_" gradientUnits="userSpaceOnUse" x1="1985.4224" y1="643.2317" x2="1995.2599" y2="643.2317">
						<stop  offset="0" style="stop-color:#B37CFF"/>
						<stop  offset="1" style="stop-color:#F895E7"/>
					</linearGradient>
					<path style="fill:url(#SVGID_00000011009965971137592930000000575067020912920454_);" d="M1991.627,635.162
						c-1.587-0.015-3.056,1.005-3.54,2.601c-0.898,2.953-1.745,5.932-2.54,8.933c-0.521,1.957,0.644,3.961,2.601,4.482
						c1.967,0.519,3.965-0.647,4.484-2.604c0.774-2.914,1.597-5.81,2.469-8.682c0.589-1.934-0.505-3.982-2.441-4.573
						C1992.316,635.215,1991.968,635.165,1991.627,635.162z"/>
					
						<linearGradient id="SVGID_00000003826561808863355290000016748927094961534108_" gradientUnits="userSpaceOnUse" x1="1976.8855" y1="818.3342" x2="2362.2183" y2="818.3342">
						<stop  offset="0" style="stop-color:#B37CFF"/>
						<stop  offset="1" style="stop-color:#F895E7"/>
					</linearGradient>
					<path style="fill:url(#SVGID_00000003826561808863355290000016748927094961534108_);" d="M1985.652,662.212
						c1.99,0.374,3.299,2.291,2.924,4.281c-1.126,5.988-2.048,12.103-2.737,18.167c-0.227,2.01-2.017,3.407-4.056,3.229
						c-2.011-0.23-3.457-2.045-3.229-4.058c0.708-6.24,1.657-12.532,2.819-18.696c0.333-1.773,1.89-3.003,3.632-2.987
						C1985.219,662.151,1985.435,662.172,1985.652,662.212z M1980.915,699.17c2.025,0.079,3.595,1.788,3.514,3.81
						c-0.107,2.64-0.176,5.296-0.201,7.956c-0.033,3.458,0.005,6.932,0.112,10.419c0.063,2.023-1.527,3.712-3.549,3.776
						c-2.006,0.056-3.715-1.528-3.778-3.553c-0.11-3.58-0.15-7.154-0.116-10.712c0.026-2.738,0.095-5.464,0.207-8.185
						c0.081-1.983,1.722-3.534,3.696-3.515C1980.838,699.166,1980.876,699.166,1980.915,699.17z M1985.562,739.692
						c0.626,6.077,1.476,12.196,2.531,18.192c0.349,1.994-0.983,3.896-2.976,4.247c-2.004,0.368-3.896-0.983-4.245-2.976
						c-1.085-6.169-1.961-12.462-2.601-18.715c-0.207-2.014,1.258-3.816,3.272-4.021c0.139-0.014,0.276-0.019,0.414-0.018
						C1983.797,736.418,1985.371,737.818,1985.562,739.692z M1991.93,775.844c1.491,5.915,3.217,11.848,5.134,17.634
						c0.636,1.921-0.406,3.995-2.329,4.631c-1.918,0.633-3.994-0.399-4.631-2.327c-1.972-5.954-3.751-12.061-5.281-18.151
						c-0.495-1.963,0.695-3.952,2.658-4.449c0.312-0.076,0.625-0.113,0.932-0.11C1990.04,773.088,1991.516,774.19,1991.93,775.844z
						 M2003.468,810.693c2.335,5.636,4.908,11.263,7.652,16.724c0.91,1.808,0.18,4.011-1.63,4.921
						c-1.808,0.902-4.012,0.173-4.921-1.633c-2.823-5.614-5.471-11.402-7.875-17.203c-0.774-1.869,0.113-4.016,1.984-4.79
						c0.47-0.195,0.958-0.284,1.436-0.279C2001.541,808.445,2002.887,809.295,2003.468,810.693z M2019.966,843.52
						c3.126,5.229,6.49,10.423,9.996,15.431c1.163,1.658,0.759,3.943-0.9,5.104c-1.655,1.166-3.946,0.761-5.104-0.9
						c-3.609-5.153-7.068-10.49-10.285-15.87c-1.038-1.739-0.473-3.988,1.266-5.028c0.599-0.359,1.26-0.525,1.911-0.519
						C2018.086,841.748,2019.287,842.382,2019.966,843.52z M2041.046,873.602c3.834,4.708,7.911,9.362,12.113,13.822
						c1.387,1.474,1.317,3.794-0.158,5.182c-1.473,1.382-3.794,1.32-5.181-0.156c-4.322-4.592-8.515-9.374-12.459-14.221
						c-1.277-1.569-1.041-3.88,0.528-5.157c0.69-0.563,1.523-0.829,2.348-0.821C2039.29,872.261,2040.329,872.721,2041.046,873.602z
						 M2066.234,900.332c4.474,4.11,9.171,8.128,13.968,11.937c1.585,1.26,1.849,3.565,0.591,5.149
						c-1.261,1.588-3.57,1.849-5.151,0.592c-4.933-3.92-9.764-8.052-14.366-12.277c-1.492-1.37-1.589-3.691-0.22-5.181
						c0.731-0.795,1.734-1.194,2.736-1.184C2064.664,899.376,2065.54,899.696,2066.234,900.332z M2094.994,923.165
						c5.008,3.42,10.236,6.717,15.534,9.804c1.748,1.017,2.341,3.261,1.323,5.012c-1.018,1.745-3.261,2.343-5.014,1.323
						c-5.449-3.173-10.824-6.567-15.979-10.084c-1.673-1.141-2.102-3.421-0.961-5.093c0.718-1.054,1.884-1.612,3.067-1.601
						C2093.664,922.533,2094.37,922.74,2094.994,923.165z M2361.786,939.086c0.954,1.788,0.275,4.01-1.512,4.959
						c-5.545,2.954-11.268,5.735-17.005,8.273c-1.852,0.819-4.017-0.021-4.833-1.872c-0.819-1.851,0.018-4.017,1.87-4.836
						c5.574-2.46,11.134-5.164,16.521-8.034c0.56-0.299,1.162-0.438,1.755-0.432C2359.883,937.157,2361.133,937.86,2361.786,939.086
						z M2126.721,941.609c5.487,2.68,11.132,5.186,16.777,7.452c1.878,0.754,2.792,2.887,2.037,4.766
						c-0.756,1.879-2.887,2.805-4.768,2.039c-5.808-2.333-11.617-4.911-17.263-7.671c-1.818-0.888-2.572-3.082-1.686-4.904
						c0.643-1.311,1.961-2.067,3.332-2.054C2125.679,941.242,2126.215,941.361,2126.721,941.609z M2327.927,954.642
						c0.682,1.908-0.313,4.008-2.219,4.688c-5.894,2.107-11.958,4.024-18.028,5.708c-1.953,0.547-3.971-0.603-4.51-2.553
						c-0.542-1.952,0.6-3.971,2.552-4.51c5.899-1.638,11.795-3.5,17.521-5.548c0.418-0.15,0.846-0.216,1.268-0.212
						C2326.001,952.227,2327.395,953.156,2327.927,954.642z M2160.769,955.274c5.823,1.856,11.774,3.52,17.691,4.94
						c1.967,0.474,3.18,2.454,2.708,4.423c-0.472,1.967-2.437,3.184-4.423,2.707c-6.087-1.464-12.212-3.172-18.205-5.087
						c-1.929-0.613-2.993-2.678-2.378-4.606c0.502-1.57,1.961-2.566,3.526-2.551C2160.046,955.103,2160.41,955.16,2160.769,955.274z
						 M2292.157,965.104c0.398,1.984-0.891,3.915-2.876,4.312c-6.155,1.231-12.433,2.252-18.661,3.039
						c-1.986,0.242-3.84-1.176-4.094-3.179c-0.252-2.011,1.17-3.844,3.179-4.098c6.053-0.763,12.156-1.753,18.141-2.95
						c0.253-0.051,0.506-0.074,0.756-0.072C2290.3,962.173,2291.812,963.372,2292.157,965.104z M2196.46,963.843
						c6.009,0.988,12.139,1.769,18.217,2.314c2.019,0.185,3.505,1.963,3.323,3.98c-0.183,2.017-1.953,3.471-3.979,3.323
						c-6.258-0.563-12.568-1.365-18.752-2.382c-1.997-0.33-3.35-2.216-3.021-4.213c0.298-1.805,1.87-3.086,3.646-3.069
						C2196.083,963.797,2196.27,963.812,2196.46,963.843z M2255.254,970.279c0.11,2.023-1.441,3.749-3.463,3.859
						c-5.545,0.297-11.176,0.423-16.73,0.37l-2.176-0.031c-2.025-0.041-3.631-1.713-3.594-3.737c0.039-2.012,1.693-3.613,3.7-3.594
						c0,0,0.025,0,0.039,0l2.1,0.03c5.403,0.051,10.876-0.068,16.265-0.361c0.079-0.003,0.157-0.005,0.236-0.005
						C2253.552,966.829,2255.149,968.337,2255.254,970.279z"/>
					
						<linearGradient id="SVGID_00000033341466091171270090000001025204451403306170_" gradientUnits="userSpaceOnUse" x1="2371.1638" y1="928.8529" x2="2386.1538" y2="928.8529">
						<stop  offset="0" style="stop-color:#B37CFF"/>
						<stop  offset="1" style="stop-color:#F895E7"/>
					</linearGradient>
					<path style="fill:url(#SVGID_00000033341466091171270090000001025204451403306170_);" d="M2382.519,922.676
						c-0.721-0.007-1.451,0.197-2.095,0.635c-2.483,1.692-5.001,3.347-7.551,4.955c-1.711,1.083-2.223,3.348-1.143,5.058
						c1.08,1.711,3.347,2.216,5.058,1.144c2.622-1.657,5.208-3.355,7.765-5.095c1.671-1.141,2.105-3.422,0.966-5.093
						C2384.816,923.245,2383.678,922.687,2382.519,922.676z"/>
				</g>
				<g style="opacity:0.3;">
					
						<linearGradient id="SVGID_00000055700465694771930250000006955382723261869978_" gradientUnits="userSpaceOnUse" x1="2485.7632" y1="762.8221" x2="2494.8428" y2="762.8221">
						<stop  offset="0" style="stop-color:#B37CFF"/>
						<stop  offset="1" style="stop-color:#F895E7"/>
					</linearGradient>
					<path style="fill:url(#SVGID_00000055700465694771930250000006955382723261869978_);" d="M2491.208,754.662
						c-1.764-0.017-3.33,1.244-3.643,3.034c-0.519,2.975-1.096,5.922-1.721,8.859c-0.42,1.98,0.841,3.928,2.821,4.347
						c1.983,0.424,3.928-0.838,4.35-2.818c0.645-3.024,1.234-6.065,1.772-9.123c0.348-1.995-0.986-3.894-2.98-4.243
						C2491.606,754.68,2491.403,754.663,2491.208,754.662z"/>
					
						<linearGradient id="SVGID_00000133493279885411391170000006727618807813678480_" gradientUnits="userSpaceOnUse" x1="2102.7307" y1="598.3295" x2="2498.5862" y2="598.3295">
						<stop  offset="0" style="stop-color:#B37CFF"/>
						<stop  offset="1" style="stop-color:#F895E7"/>
					</linearGradient>
					<path style="fill:url(#SVGID_00000133493279885411391170000006727618807813678480_);" d="M2246.805,452.835
						c6.193,0.213,12.434,0.643,18.548,1.286c2.014,0.208,3.474,2.013,3.264,4.026c-0.213,2.013-2.017,3.55-4.028,3.263
						c-5.946-0.622-12.012-1.041-18.032-1.246c-2.025-0.069-3.609-1.767-3.54-3.788c0.067-1.995,1.713-3.561,3.696-3.542
						C2246.713,452.834,2246.773,452.835,2246.805,452.835z M2231.999,456.407c0.074,2.023-1.507,3.724-3.529,3.796
						c-1.919,0.072-3.844,0.164-5.772,0.282c-4.08,0.244-8.206,0.588-12.271,1.022c-1.967,0.226-3.82-1.238-4.033-3.252
						c-0.215-2.014,1.241-3.823,3.255-4.037c4.174-0.448,8.417-0.801,12.611-1.054c1.984-0.117,3.966-0.217,5.943-0.289
						c0.057-0.003,0.114-0.002,0.172-0.002C2230.32,452.893,2231.927,454.441,2231.999,456.407z M2283.767,456.725
						c6.098,1.089,12.213,2.404,18.181,3.917c1.962,0.499,3.15,2.494,2.653,4.454c-0.496,1.964-2.504,3.148-4.452,2.653
						c-5.798-1.469-11.743-2.749-17.667-3.805c-1.993-0.355-3.32-2.258-2.966-4.251c0.318-1.788,1.882-3.04,3.639-3.024
						C2283.358,456.671,2283.562,456.692,2283.767,456.725z M2195.486,459.831c0.36,1.99-0.964,3.896-2.958,4.257
						c-5.921,1.067-11.866,2.358-17.669,3.838c-1.98,0.508-3.959-0.685-4.459-2.648c-0.499-1.96,0.686-3.956,2.647-4.458
						c5.972-1.522,12.089-2.848,18.182-3.947c0.231-0.041,0.461-0.061,0.689-0.059
						C2193.642,456.83,2195.168,458.07,2195.486,459.831z M2319.783,465.848c5.84,1.935,11.7,4.113,17.419,6.474
						c1.873,0.769,2.763,2.915,1.992,4.788c-0.773,1.867-2.914,2.761-4.788,1.987c-5.559-2.292-11.253-4.409-16.93-6.289
						c-1.922-0.637-2.964-2.71-2.326-4.634c0.515-1.548,1.962-2.526,3.516-2.511
						C2319.035,465.667,2319.411,465.727,2319.783,465.848z M2159.83,468.381c0.638,1.918-0.399,3.995-2.322,4.636
						c-5.709,1.896-11.409,4.026-16.936,6.322c-1.877,0.781-4.015-0.11-4.792-1.979c-0.778-1.869,0.11-4.016,1.979-4.792
						c5.692-2.363,11.556-4.555,17.435-6.512c0.395-0.129,0.799-0.19,1.192-0.186
						C2157.909,465.885,2159.321,466.855,2159.83,468.381z M2354.119,480.015c5.511,2.75,11.005,5.742,16.328,8.892
						c1.743,1.029,2.319,3.279,1.288,5.02c-1.029,1.741-3.276,2.329-5.021,1.288c-5.175-3.06-10.512-5.967-15.868-8.639
						c-1.811-0.904-2.548-3.106-1.642-4.917c0.647-1.296,1.959-2.044,3.315-2.031
						C2353.058,479.635,2353.604,479.759,2354.119,480.015z M2125.764,481.941c0.908,1.81,0.176,4.012-1.634,4.921
						c-5.367,2.696-10.702,5.617-15.86,8.683c-1.74,1.035-3.991,0.463-5.023-1.276c-1.036-1.742-0.465-3.988,1.276-5.025
						c5.306-3.157,10.796-6.163,16.318-8.934c0.538-0.271,1.112-0.395,1.676-0.389
						C2123.848,479.933,2125.123,480.671,2125.764,481.941z M2386.105,498.936c5.094,3.528,10.11,7.27,14.906,11.117
						c1.58,1.269,1.833,3.576,0.564,5.154c-1.265,1.58-3.573,1.824-5.152,0.567c-4.662-3.743-9.538-7.38-14.492-10.813
						c-1.665-1.151-2.08-3.435-0.927-5.099c0.721-1.039,1.88-1.591,3.053-1.58C2384.765,498.289,2385.478,498.5,2386.105,498.936z
						 M2415.098,522.199c4.545,4.213,8.982,8.627,13.188,13.116c1.385,1.478,1.308,3.797-0.168,5.182
						c-1.476,1.382-3.799,1.31-5.181-0.171c-4.089-4.362-8.405-8.653-12.825-12.748c-1.485-1.378-1.572-3.696-0.195-5.182
						c0.731-0.788,1.727-1.182,2.725-1.173C2413.521,521.231,2414.4,521.554,2415.098,522.199z M2440.517,549.327
						c3.898,4.806,7.669,9.808,11.205,14.86c1.159,1.658,0.758,3.946-0.902,5.103c-1.663,1.166-3.946,0.761-5.105-0.9
						c-3.437-4.912-7.1-9.773-10.889-14.44c-1.276-1.574-1.036-3.885,0.536-5.157c0.69-0.559,1.52-0.828,2.343-0.82
						C2438.759,547.983,2439.801,548.448,2440.517,549.327z M2461.841,579.805c3.177,5.314,6.198,10.803,8.978,16.31
						c0.914,1.806,0.187,4.011-1.62,4.924c-1.805,0.907-4.016,0.185-4.924-1.622c-2.701-5.352-5.638-10.686-8.728-15.847
						c-1.038-1.739-0.471-3.99,1.264-5.03c0.603-0.359,1.262-0.525,1.913-0.519C2459.96,578.032,2461.161,578.668,2461.841,579.805z
						 M2478.61,613.024c2.381,5.704,4.586,11.561,6.546,17.407c0.643,1.923-0.389,3.999-2.309,4.643
						c-1.924,0.641-3.997-0.396-4.642-2.31c-1.906-5.681-4.047-11.372-6.359-16.918c-0.781-1.865,0.102-4.011,1.969-4.792
						c0.472-0.2,0.964-0.289,1.446-0.284C2476.683,610.783,2478.029,611.626,2478.61,613.024z M2490.438,648.271
						c1.539,5.975,2.88,12.084,3.989,18.163c0.365,1.99-0.954,3.899-2.948,4.264c-1.99,0.324-3.901-0.961-4.263-2.951
						c-1.079-5.902-2.384-11.844-3.877-17.646c-0.505-1.963,0.675-3.961,2.637-4.464c0.317-0.082,0.637-0.12,0.95-0.117
						C2488.546,645.535,2490.017,646.63,2490.438,648.271z M2497.117,684.831c0.48,4.393,0.86,8.846,1.12,13.241
						c0.105,1.767,0.192,3.532,0.261,5.294c0.081,2.025-1.491,3.73-3.514,3.812c-2.015,0.128-3.729-1.492-3.808-3.516
						c-0.071-1.718-0.153-3.435-0.256-5.153c-0.254-4.274-0.621-8.605-1.092-12.874c-0.22-2.012,1.231-3.825,3.244-4.047
						c0.149-0.015,0.295-0.021,0.441-0.019C2495.342,681.586,2496.91,682.968,2497.117,684.831z M2495.03,718.194
						c2.025,0.063,3.616,1.753,3.555,3.778c-0.193,6.182-0.607,12.428-1.239,18.562c-0.207,2.017-1.981,3.475-4.02,3.273
						c-2.013-0.208-3.479-2.01-3.271-4.023c0.611-5.962,1.016-12.029,1.199-18.038c0.062-1.996,1.709-3.571,3.698-3.552
						L2495.03,718.194z"/>
					
						<linearGradient id="SVGID_00000119820912620396991680000004752085602154590898_" gradientUnits="userSpaceOnUse" x1="2079.7434" y1="505.1263" x2="2094.4919" y2="505.1263">
						<stop  offset="0" style="stop-color:#B37CFF"/>
						<stop  offset="1" style="stop-color:#F895E7"/>
					</linearGradient>
					<path style="fill:url(#SVGID_00000119820912620396991680000004752085602154590898_);" d="M2090.856,498.776
						c-0.735-0.007-1.478,0.209-2.129,0.661c-2.541,1.772-5.049,3.59-7.521,5.444c-1.617,1.217-1.945,3.515-0.73,5.135
						c1.22,1.618,3.517,1.936,5.135,0.728c2.403-1.807,4.84-3.573,7.312-5.297c1.66-1.159,2.067-3.442,0.909-5.103
						C2093.127,499.335,2092.003,498.787,2090.856,498.776z"/>
				</g>
				<g>
					
						<linearGradient id="SVGID_00000089537597819479599500000008554488794177308860_" gradientUnits="userSpaceOnUse" x1="2327.2808" y1="337.0414" x2="2188.0256" y2="927.2178">
						<stop  offset="0" style="stop-color:#A737D5"/>
						<stop  offset="1" style="stop-color:#EF497A"/>
					</linearGradient>
					<path style="fill:url(#SVGID_00000089537597819479599500000008554488794177308860_);" d="M2071.397,606.391
						c-0.841,1.013-0.949,2.448-0.266,3.575l19.475,32.137c-7.852,15.695-13.256,32.754-15.752,50.639l-34.235,15.435
						c-1.2,0.541-1.925,1.784-1.805,3.096l4.117,44.884c0.12,1.314,1.058,2.404,2.338,2.717l36.473,8.948
						c5.708,17.134,14.125,32.925,24.702,46.93l-13.304,35.143c-0.465,1.232-0.098,2.624,0.913,3.467l34.65,28.826
						c1.011,0.843,2.448,0.951,3.575,0.268l32.137-19.476c15.693,7.852,32.752,13.258,50.639,15.753l15.433,34.235
						c0.543,1.2,1.786,1.927,3.096,1.805l44.887-4.117c1.311-0.12,2.402-1.058,2.716-2.338l8.948-36.473
						c17.135-5.708,32.925-14.125,46.928-24.702l35.144,13.304c1.233,0.465,2.624,0.1,3.467-0.915l28.826-34.649
						c0.843-1.013,0.951-2.448,0.268-3.574l-19.476-32.137c7.852-15.693,13.256-32.753,15.751-50.64l34.236-15.433
						c1.201-0.541,1.925-1.786,1.805-3.098l-4.117-44.886c-0.12-1.312-1.06-2.402-2.339-2.715l-36.471-8.948
						c-5.708-17.134-14.127-32.925-24.702-46.93l13.302-35.143c0.467-1.233,0.1-2.624-0.913-3.467l-34.649-28.826
						c-1.013-0.843-2.448-0.951-3.574-0.268l-32.137,19.476c-15.695-7.852-32.754-13.256-50.639-15.752l-15.435-34.235
						c-0.541-1.2-1.784-1.925-3.096-1.805l-44.885,4.117c-1.312,0.12-2.402,1.059-2.716,2.339l-8.948,36.471
						c-17.135,5.708-32.925,14.127-46.93,24.702l-35.143-13.304c-1.232-0.465-2.625-0.099-3.467,0.913L2071.397,606.391z"/>
					<path style="opacity:0.56;fill:#FFFFFF;" d="M2244.728,672.48c23.796,3.737,40.118,26.138,36.38,49.937
						c-1.812,11.529-8.002,21.661-17.434,28.532c-9.432,6.874-20.973,9.66-32.506,7.847c-11.527-1.81-21.659-8.002-28.531-17.433
						c-6.871-9.434-9.659-20.977-7.847-32.504c1.81-11.529,8.002-21.663,17.434-28.532c7.667-5.588,16.727-8.474,26.043-8.385
						C2240.411,671.962,2242.571,672.14,2244.728,672.48z M2259.356,745.022c7.849-5.717,13.003-14.15,14.51-23.74
						c3.109-19.808-10.472-38.451-30.276-41.56l-0.002,0c-9.585-1.512-19.199,0.809-27.046,6.531
						c-7.85,5.717-13.003,14.15-14.51,23.74c-1.505,9.594,0.813,19.204,6.531,27.052c5.719,7.851,14.15,13.003,23.745,14.508
						c1.795,0.281,3.592,0.431,5.376,0.448C2245.435,752.074,2252.977,749.673,2259.356,745.022z"/>
					<path style="opacity:0.56;fill:#FFFFFF;" d="M2239.782,603.884c-3.774-0.036-7.58,0.117-11.419,0.468l0,0
						c-0.172,0.017-0.345,0.034-0.514,0.049c-7.672,0.737-15.255,2.254-22.557,4.517c-0.136,0.041-0.269,0.083-0.401,0.125
						c-1.555,0.486-2.554,1.916-2.571,3.457c-0.003,0.377,0.052,0.76,0.17,1.136c0.604,1.929,2.67,3.008,4.594,2.4
						c7.093-2.224,14.476-3.698,21.946-4.382l0,0c0.044-0.003,0.086-0.011,0.086-0.011c40.601-3.674,77.952,16.323,98.382,48.583
						c8.615,13.598,14.22,29.379,15.789,46.481c0.331,3.594,0.475,7.16,0.439,10.694c-0.513,53.218-41.38,98.599-95.494,103.563
						c-27.966,2.56-55.237-5.907-76.815-23.865c-21.579-17.954-34.877-43.235-37.439-71.19c-0.33-3.559-0.472-7.119-0.438-10.67
						c0.147-15.382,3.659-30.559,10.337-44.429c0.241-0.502,0.358-1.031,0.361-1.553c0.013-1.374-0.753-2.704-2.074-3.339
						c-1.828-0.876-4.014-0.113-4.894,1.715c-7.146,14.84-10.902,31.079-11.061,47.534c-0.036,3.798,0.117,7.606,0.466,11.41
						c2.743,29.908,16.968,56.952,40.054,76.159c23.083,19.211,52.265,28.275,82.173,25.53
						c57.89-5.311,101.608-53.86,102.157-110.79c0.036-3.779-0.117-7.597-0.469-11.439
						C2345.279,648.144,2296.718,604.427,2239.782,603.884z"/>
				</g>
			</g>
		</g>
		<g>
			
				<linearGradient id="SVGID_00000179608213712005110640000002790668389469156027_" gradientUnits="userSpaceOnUse" x1="-6977.2446" y1="3122.6436" x2="-6769.7808" y2="3122.6436" gradientTransform="matrix(1 0 0 1 7869.0601 0)">
				<stop  offset="0" style="stop-color:#53D8FF"/>
				<stop  offset="1" style="stop-color:#3840F7"/>
			</linearGradient>
			<path style="fill:url(#SVGID_00000179608213712005110640000002790668389469156027_);" d="M1093.421,3112.609
				c-35.541,3.072-97.224,8.063-145.852,10.203c-29.232,1.287-46.061-1.576-55.753-5.456c0.017,1.093,0.047,2.125,0.09,3.084
				c0.23,5.117,4.388,9.211,9.556,9.5c91.886,5.129,164.962,1.775,190.977,0.192c5.38-0.328,8.585-6.174,5.834-10.76
				C1096.898,3117.078,1095.231,3114.83,1093.421,3112.609z"/>
			
				<linearGradient id="SVGID_00000172422352755833522050000007868717261182756012_" gradientUnits="userSpaceOnUse" x1="-6977.2563" y1="3081.9834" x2="-6775.6392" y2="3081.9834" gradientTransform="matrix(1 0 0 1 7869.0601 0)">
				<stop  offset="0" style="stop-color:#2B3582"/>
				<stop  offset="1" style="stop-color:#150E42"/>
			</linearGradient>
			<path style="fill:url(#SVGID_00000172422352755833522050000007868717261182756012_);" d="M947.569,3122.812
				c48.628-2.14,110.311-7.131,145.852-10.203c-34.943-42.871-145.852-71.766-145.852-71.766h-31.325
				c-21.545,31.056-24.664,60.624-24.429,76.513C901.508,3121.236,918.337,3124.098,947.569,3122.812z"/>
			
				<linearGradient id="SVGID_00000090259847205708168150000000801623666916895635_" gradientUnits="userSpaceOnUse" x1="-6958.0908" y1="3025.2161" x2="-6899.6523" y2="3025.2161" gradientTransform="matrix(1 0 0 1 7869.0601 0)">
				<stop  offset="0" style="stop-color:#F9B776"/>
				<stop  offset="1" style="stop-color:#F47960"/>
			</linearGradient>
			<path style="fill:url(#SVGID_00000090259847205708168150000000801623666916895635_);" d="M910.969,2989.704l2.931,58.007
				c0.318,6.281,5.019,11.56,11.31,12.459c6.259,0.895,14.642,1.01,23.531-1.95c5.469-1.82,9.529-6.428,10.537-12.048l10.129-56.469
				H910.969z"/>
			<g>
				
					<linearGradient id="SVGID_00000029010392723935412370000016777715798121413309_" gradientUnits="userSpaceOnUse" x1="-7347.5391" y1="3174.0876" x2="-7268.0356" y2="3174.0876" gradientTransform="matrix(1 0 0 1 7869.0601 0)">
					<stop  offset="0" style="stop-color:#53D8FF"/>
					<stop  offset="1" style="stop-color:#3840F7"/>
				</linearGradient>
				<path style="fill:url(#SVGID_00000029010392723935412370000016777715798121413309_);" d="M547.41,3179.525
					c-15.413-2.779-22.387-13.126-25.31-24.189c-0.02,0.1-0.039,0.199-0.058,0.298c-2.268,11.67,2.989,23.764,13.498,29.516
					c12.702,6.952,26.591,8.137,37.374,7.562c11.568-0.616,22.187-6.803,28.023-16.705l0.088-0.149
					C589.413,3183.284,573.113,3184.158,547.41,3179.525z"/>
				
					<linearGradient id="SVGID_00000001659610819438201740000013660363315966411427_" gradientUnits="userSpaceOnUse" x1="-7346.9609" y1="3094.9724" x2="-7230.2651" y2="3094.9724" gradientTransform="matrix(1 0 0 1 7869.0601 0)">
					<stop  offset="0" style="stop-color:#2B3582"/>
					<stop  offset="1" style="stop-color:#150E42"/>
				</linearGradient>
				<path style="fill:url(#SVGID_00000001659610819438201740000013660363315966411427_);" d="M620.078,3007.577h-25.832
					c-39.349-1.04-64.058,106.222-72.146,147.759c2.924,11.063,9.897,21.41,25.31,24.189c25.703,4.633,42.003,3.759,53.615-3.667
					c21.258-36.154,31.797-89.105,36.863-120.008C643.65,3020.705,620.078,3007.577,620.078,3007.577z"/>
			</g>
			
				<linearGradient id="SVGID_00000054228221588912929120000016793535625231218075_" gradientUnits="userSpaceOnUse" x1="-7286.3042" y1="2994.7429" x2="-7216.4644" y2="2994.7429" gradientTransform="matrix(1 0 0 1 7869.0601 0)">
				<stop  offset="0" style="stop-color:#F9B776"/>
				<stop  offset="1" style="stop-color:#F47960"/>
			</linearGradient>
			<path style="fill:url(#SVGID_00000054228221588912929120000016793535625231218075_);" d="M597.565,2953.736l-14.344,57.052
				c-1.759,6.995,1.589,14.231,8.057,17.549c8.025,4.119,19.323,8.446,29.705,7.193c4.883-0.589,8.94-4.028,10.553-8.626
				l21.06-60.025L597.565,2953.736z"/>
			
				<linearGradient id="SVGID_00000037665710692198704990000005861012203925410690_" gradientUnits="userSpaceOnUse" x1="-6721.4023" y1="2241.0862" x2="-7317.6729" y2="3217.835" gradientTransform="matrix(1 0 0 1 7869.0601 0)">
				<stop  offset="0" style="stop-color:#CB236D"/>
				<stop  offset="1" style="stop-color:#4C246D"/>
			</linearGradient>
			<path style="fill:url(#SVGID_00000037665710692198704990000005861012203925410690_);" d="M1102.171,2202.319
				c0,0-128.189,801.292-126.078,805.696c0,0-35.405,16.092-74.002,2.051c0,0,11.592-428.348,38.754-592.587
				c0,0-218.776,382.859-288.25,573.63c0,0-36.236-4.321-66.23-24.061c0,0,235.56-689.129,298.405-780.917L1102.171,2202.319z"/>
			
				<linearGradient id="SVGID_00000104690682825156337390000015237728350665078205_" gradientUnits="userSpaceOnUse" x1="1047.2594" y1="636.2955" x2="1007.4682" y2="1780.2883">
				<stop  offset="0" style="stop-color:#CB236D"/>
				<stop  offset="1" style="stop-color:#4C246D"/>
			</linearGradient>
			<polygon style="fill:url(#SVGID_00000104690682825156337390000015237728350665078205_);" points="947.333,2410.375 
				994.869,2334.449 1029.445,2327.491 1028.809,2324.332 992.874,2331.564 944.602,2408.667 			"/>
			
				<linearGradient id="SVGID_00000160868878587392945800000007540124460222630296_" gradientUnits="userSpaceOnUse" x1="-6325.6929" y1="1523.6464" x2="-6602.2964" y2="1883.5" gradientTransform="matrix(1 0 0 1 7869.0601 0)">
				<stop  offset="0" style="stop-color:#F9B776"/>
				<stop  offset="1" style="stop-color:#F47960"/>
			</linearGradient>
			<path style="fill:url(#SVGID_00000160868878587392945800000007540124460222630296_);" d="M1690.426,1417.68
				c0,0-86.5,19.078-139.112,43.369c-10.449,4.824-18.784,13.26-23.531,23.657c-15.735,34.468-62.812,120.901-154.11,162.148
				c13.148,17.451,34.318,53.75,43.54,114.762c54.834-40.813,102.174-108.971,124.901-220.754c0,0,17.307,9.408,38.896-1.077
				c11.407-5.54,24.577-13.397,34.464-19.577c9.85-6.158,17.187-15.729,20.037-26.908c3.763-14.761,1.547-27.742,1.547-41.667
				l44.462-13.775C1681.521,1437.858,1694.886,1432.813,1690.426,1417.68z"/>
			
				<linearGradient id="SVGID_00000126308380856260263320000007164548527213155979_" gradientUnits="userSpaceOnUse" x1="1089.5353" y1="1691.0824" x2="612.0436" y2="2715.7017">
				<stop  offset="0" style="stop-color:#FDF53F"/>
				<stop  offset="1" style="stop-color:#D93C65"/>
			</linearGradient>
			<path style="fill:url(#SVGID_00000126308380856260263320000007164548527213155979_);" d="M1417.213,1761.617
				c-9.222-61.012-30.393-97.311-43.54-114.762c-56.716,25.624-130.492,33.816-224.439,1.262c-8.66-3.001-17.693-4.758-26.852-5.296
				c-50.013-2.933-214.821-8.283-351.196,36.773c-28.701,9.482-51.947,30.7-63.927,58.192
				c-36.891,84.659-96.617,277.459,69.189,374.795c12.739-31.626,27.442-57.049,40.015-75.726
				c-26.702-45.038-34.61-106.553,12.773-186.658c34.55,93.294,50.759,229.42,54.146,289.663
				c1.115,19.835-2.364,39.632-10.146,57.944l-0.849,1.997c-1.665,3.919,0.626,8.422,4.816,9.363
				c93.342,20.967,190.425,15.271,219.429,12.875c5.178-0.428,9.48-4.133,10.668-9.137c45.389-191.253,45.493-321.713,34.38-404.184
				C1184.138,1818.209,1313.973,1838.456,1417.213,1761.617z"/>
			
				<linearGradient id="SVGID_00000007386957487424173040000006502652699427329176_" gradientUnits="userSpaceOnUse" x1="1786.9919" y1="326.4324" x2="706.1068" y2="2653.9788">
				<stop  offset="0" style="stop-color:#FDF53F"/>
				<stop  offset="1" style="stop-color:#D93C65"/>
			</linearGradient>
			<path style="fill:url(#SVGID_00000007386957487424173040000006502652699427329176_);" d="M1108.73,1692.534
				c0,0,22.211,34.995,33.138,117.538L1108.73,1692.534z"/>
			
				<linearGradient id="SVGID_00000026852018316862903990000018350847721209423798_" gradientUnits="userSpaceOnUse" x1="-6942.2363" y1="1756.2252" x2="-6911.9756" y2="1597.3556" gradientTransform="matrix(1 0 0 1 7869.0601 0)">
				<stop  offset="0" style="stop-color:#F9B776"/>
				<stop  offset="1" style="stop-color:#F47960"/>
			</linearGradient>
			<path style="fill:url(#SVGID_00000026852018316862903990000018350847721209423798_);" d="M911.511,1531.409
				c0,0-9.443,99.841-17.757,129.374c-1.261,4.481,0.685,9.205,4.756,11.531c14.111,8.063,47.955,21.214,94.249-1.474
				c7.5-3.675,12.009-11.493,11.659-19.766l-4.079-96.479L911.511,1531.409z"/>
			<g>
				
					<linearGradient id="SVGID_00000094579791627349340090000003822667539536873634_" gradientUnits="userSpaceOnUse" x1="-6860.3545" y1="1464.75" x2="-7033.0117" y2="1596.8588" gradientTransform="matrix(1 0 0 1 7869.0601 0)">
					<stop  offset="0" style="stop-color:#F9B776"/>
					<stop  offset="1" style="stop-color:#F47960"/>
				</linearGradient>
				<path style="fill:url(#SVGID_00000094579791627349340090000003822667539536873634_);" d="M1002.374,1403.681
					c0,0,30.203,69.38,32.23,105.795c2.028,36.415,9.875,60.044-32.23,67.377c-42.106,7.333-77.576-13.642-96.792-49.916
					c0,0-30.108-55.894-23.354-78.784C888.983,1425.263,1002.374,1403.681,1002.374,1403.681z"/>
				
					<linearGradient id="SVGID_00000146498479590032329630000010906158821493897130_" gradientUnits="userSpaceOnUse" x1="-6981.8975" y1="1360.1486" x2="-6821.0947" y2="1567.1816" gradientTransform="matrix(1 0 0 1 7869.0601 0)">
					<stop  offset="0" style="stop-color:#2B3582"/>
					<stop  offset="1" style="stop-color:#150E42"/>
				</linearGradient>
				<path style="fill:url(#SVGID_00000146498479590032329630000010906158821493897130_);" d="M919.971,1500.856l2.397-1.057
					c3.052-1.345,4.357-4.977,2.824-7.939c-5.937-11.472-17.512-37.76-2.56-43.893c19.271-7.904,95.605-23.47,112.074-50.555
					c15.829-26.032,1.804-59.634-19.273-69.192c-1.41-0.64-3.074-0.132-3.797,1.237l-1.757,3.324
					c-1.203,2.275-4.563,1.93-5.278-0.541v-0.001c-0.686-2.373-3.843-2.833-5.152-0.738c-5.063,8.104-18.73,21.241-55.28,27.986
					c-51.945,9.587-86.287,30.607-87.142,66.502c-0.054,2.281-2.48,3.549-4.428,2.361c-3.835-2.337-9.973-3.434-18.175,3.463
					c-14.265,11.995-8.428,43.111,22.845,68.706c1.485,1.216,1.473,3.535-0.135,4.583c-5.669,3.69-14.121,12.472,7.778,24.179
					c22.651,12.108,39.565,11.115,46.078,10.04c1.621-0.268,2.665-1.836,2.311-3.44l-6.952-31.548
					c-0.393-1.785,0.966-3.477,2.794-3.477H919.971z"/>
				
					<linearGradient id="SVGID_00000153706088593696582550000016957346194557655481_" gradientUnits="userSpaceOnUse" x1="-6881.77" y1="1436.7604" x2="-7054.4277" y2="1568.8696" gradientTransform="matrix(1 0 0 1 7869.0601 0)">
					<stop  offset="0" style="stop-color:#F9B776"/>
					<stop  offset="1" style="stop-color:#F47960"/>
				</linearGradient>
				<path style="fill:url(#SVGID_00000153706088593696582550000016957346194557655481_);" d="M921.279,1507.513
					c0,0-11.522-44.319-31.392-31.892c-19.87,12.426,10.311,49.657,26.286,51.316L921.279,1507.513z"/>
			</g>
			<path style="fill:#F8A570;" d="M1565.186,1530.084c-0.735,0-1.475-0.243-2.09-0.743c-1.421-1.154-1.637-3.243-0.481-4.664
				c3.267-4.018,32.24-39.445,43.345-45.722c4.248-2.399,6.685-4.81,7.24-7.166c0.293-1.24,0.066-2.628-0.693-4.203l-34.592,6.932
				l-19.416,16.664c-1.391,1.195-3.486,1.033-4.676-0.356c-1.193-1.389-1.033-3.482,0.356-4.676l20.073-17.229
				c0.432-0.371,0.95-0.623,1.509-0.735l37.759-7.567c1.318-0.264,2.653,0.29,3.4,1.397c2.691,3.994,3.586,7.688,2.734,11.295
				c-1.012,4.289-4.425,8.022-10.432,11.415c-8.477,4.791-32.805,33.481-41.463,44.132
				C1567.104,1529.666,1566.149,1530.084,1565.186,1530.084z"/>
			
				<linearGradient id="SVGID_00000090259355369065345030000008105073804225583009_" gradientUnits="userSpaceOnUse" x1="-6813.3115" y1="1928.5891" x2="-6912.3867" y2="2077.2014" gradientTransform="matrix(1 0 0 1 7869.0601 0)">
				<stop  offset="0" style="stop-color:#F9B776"/>
				<stop  offset="1" style="stop-color:#F47960"/>
			</linearGradient>
			<path style="fill:url(#SVGID_00000090259355369065345030000008105073804225583009_);" d="M920.428,2180.766l136.294-2.967
				c0,0-118.852-33.596-126.227-24.446c0,0-73.664-48.407-114.034-116.5c-12.573,18.677-27.275,44.1-40.015,75.726
				C812.637,2133.826,860.166,2170.734,920.428,2180.766z"/>
			
				<linearGradient id="SVGID_00000029025975751332500500000005521377538354905767_" gradientUnits="userSpaceOnUse" x1="3539.0703" y1="1952.5928" x2="3441.9897" y2="2098.2139" gradientTransform="matrix(-1 0 0 1 4397.1772 0)">
				<stop  offset="0" style="stop-color:#F9B776"/>
				<stop  offset="1" style="stop-color:#F47960"/>
			</linearGradient>
			<path style="fill:url(#SVGID_00000029025975751332500500000005521377538354905767_);" d="M916.585,2157.165
				c0,0-2.811,54.305,68.472,46.418c38.74-4.286,101.285-40.407,101.285-40.407S923.324,2162.744,916.585,2157.165z"/>
			<g>
				
					<linearGradient id="SVGID_00000122718042727030380730000002973984667109144734_" gradientUnits="userSpaceOnUse" x1="4489.4976" y1="2361.5107" x2="4216.4878" y2="2436.3357" gradientTransform="matrix(-0.9988 -0.0494 -0.0494 0.9988 5487.793 -55.0328)">
					<stop  offset="0" style="stop-color:#2B3582"/>
					<stop  offset="1" style="stop-color:#150E42"/>
				</linearGradient>
				<path style="fill:url(#SVGID_00000122718042727030380730000002973984667109144734_);" d="M944.498,2171.733
					c0.259,0.013,0.518,0.02,0.78,0.017l338.875-0.366c8.377-0.007,15.16-6.733,15.152-15.022
					c-0.008-8.292-6.831-15.141-15.186-14.992l-338.875,0.366c-8.377,0.007-15.161,6.733-15.152,15.022
					C930.102,2164.789,936.484,2171.341,944.498,2171.733z"/>
				
					<linearGradient id="SVGID_00000142867237284410243690000010618116024296485019_" gradientUnits="userSpaceOnUse" x1="4189.0732" y1="1907.6511" x2="3996.4993" y2="2111.1899" gradientTransform="matrix(-1 0 0 1 5446.3242 0)">
					<stop  offset="0" style="stop-color:#2B3582"/>
					<stop  offset="1" style="stop-color:#150E42"/>
				</linearGradient>
				<path style="fill:url(#SVGID_00000142867237284410243690000010618116024296485019_);" d="M1588.786,1867.306h-282.218
					c-20.819,0-39.768,11.888-48.649,30.519l-130.469,273.73h350.72c13.417,0,25.471-8.111,30.402-20.457l101.173-253.296
					C1615.592,1883.166,1604.691,1867.306,1588.786,1867.306z"/>
				
					<linearGradient id="SVGID_00000106146862645216017740000012597554750086594447_" gradientUnits="userSpaceOnUse" x1="4072.3005" y1="1958.5237" x2="3985.2512" y2="2089.6101" gradientTransform="matrix(-1 0 0 1 5446.3242 0)">
					<stop  offset="0" style="stop-color:#53D8FF"/>
					<stop  offset="1" style="stop-color:#3840F7"/>
				</linearGradient>
				<path style="fill:url(#SVGID_00000106146862645216017740000012597554750086594447_);" d="M1389.961,2007.655
					c-6.116,18.8-1.598,37.058,10.091,40.781c11.689,3.722,26.123-8.5,32.238-27.3c6.116-18.8,1.598-37.058-10.091-40.78
					C1410.511,1976.633,1396.077,1988.855,1389.961,2007.655z"/>
			</g>
		</g>
		<g>
			<g>
				
					<linearGradient id="SVGID_00000046310038038727814020000012180991067387793025_" gradientUnits="userSpaceOnUse" x1="1528.827" y1="244.2596" x2="1482.9949" y2="764.7844">
					<stop  offset="0" style="stop-color:#5AB6FF"/>
					<stop  offset="1" style="stop-color:#2F68E3"/>
				</linearGradient>
				<path style="fill:url(#SVGID_00000046310038038727814020000012180991067387793025_);" d="M1720.038,661.138
					c-2.749-0.065-4.962-2.313-5.012-5.097c-0.513-28.54-9.306-170.253-132.575-199.867
					c-137.238-32.969-200.041,108.328-200.041,108.328s-169.802-65.939-202.367,110.683
					c-106.47,25.87-134.131,166.643-64.882,235.43c11.003,10.93,25.751,17.107,41.165,17.247l666.776,6.081
					c19.57,0.179,36.923-12.789,42.482-31.787C1886.412,830.985,1913.712,665.73,1720.038,661.138z"/>
				
					<linearGradient id="SVGID_00000072997850323810181480000010128635545266643375_" gradientUnits="userSpaceOnUse" x1="1512.6885" y1="656.1681" x2="1388.2861" y2="1188.1511">
					<stop  offset="0" style="stop-color:#53D8FF"/>
					<stop  offset="1" style="stop-color:#3840F7"/>
				</linearGradient>
				<path style="fill:url(#SVGID_00000072997850323810181480000010128635545266643375_);" d="M1704.799,664.166
					c-2.745-0.067-4.954-2.307-5.009-5.086c-0.546-27.374-9.253-158.778-125.353-186.324
					c-129.768-30.788-189.153,101.161-189.153,101.161s-160.56-61.577-191.352,103.361
					c-99.709,23.927-126.322,153.106-63.209,217.988c11.064,11.375,26.132,17.842,41.9,17.983l627.68,5.654
					c19.614,0.177,36.993-12.85,42.512-31.906C1862.389,819.407,1885.619,668.547,1704.799,664.166z"/>
			</g>
			<g>
				<path style="fill:#FFFFFF;" d="M1468.038,781.645l-59.334,2.397l-6.853-169.656c-0.087-2.159,1.593-3.981,3.752-4.068
					l51.254-2.07c2.303-0.093,4.246,1.699,4.339,4.002L1468.038,781.645z"/>
				<path style="fill:#FFFFFF;" d="M1391.448,781.46c0,0,36.302,64.323,48.564,83.812c1.623,2.58,5.453,2.313,6.736-0.452
					l40.236-86.711c1.438-2.556,0.103-6.575-2.154-6.484l-91.474,3.695C1391.298,775.402,1390.207,778.913,1391.448,781.46z"/>
			</g>
			<g>
				<path style="fill:#FFFFFF;" d="M1514.524,693.418l59.376-0.871l2.492,169.776c0.032,2.161-1.694,3.938-3.855,3.97l-51.29,0.753
					c-2.305,0.034-4.201-1.807-4.235-4.112L1514.524,693.418z"/>
				<path style="fill:#FFFFFF;" d="M1591.084,695.57c0,0-34.638-65.234-46.395-85.031c-1.557-2.621-5.392-2.452-6.746,0.279
					l-42.451,85.649c-1.503,2.518-0.272,6.57,1.987,6.537l91.539-1.343C1591.078,701.63,1592.259,698.148,1591.084,695.57z"/>
			</g>
		</g>
	</g>
</g>
</svg>
