<svg width="20" height="20" viewBox="0 0 20 20" fill="none" xmlns="http://www.w3.org/2000/svg">
<path d="M18.125 10C18.1224 11.9858 17.3938 13.9022 16.0764 15.388C14.7591 16.8739 12.9438 17.8268 10.9726 18.0672C10.9287 18.0722 10.8843 18.0678 10.8422 18.0543C10.8001 18.0409 10.7614 18.0187 10.7286 17.9891C10.6957 17.9596 10.6695 17.9234 10.6516 17.883C10.6338 17.8426 10.6247 17.7989 10.625 17.7547V11.875H12.5C12.5856 11.8752 12.6704 11.8578 12.7491 11.8238C12.8278 11.7899 12.8986 11.7401 12.9572 11.6776C13.0158 11.6151 13.061 11.5412 13.0898 11.4605C13.1187 11.3799 13.1306 11.2941 13.125 11.2086C13.1112 11.0479 13.037 10.8984 12.9174 10.7901C12.7979 10.6819 12.6417 10.6229 12.4804 10.625H10.625V8.75004C10.625 8.41852 10.7567 8.10058 10.9911 7.86616C11.2255 7.63174 11.5434 7.50004 11.875 7.50004H13.125C13.2106 7.50023 13.2954 7.4828 13.3741 7.44883C13.4528 7.41487 13.5236 7.36509 13.5822 7.3026C13.6408 7.2401 13.686 7.16622 13.7148 7.08555C13.7437 7.00487 13.7556 6.91913 13.75 6.83364C13.7361 6.67265 13.6618 6.52289 13.5419 6.41458C13.422 6.30627 13.2654 6.24747 13.1039 6.25004H11.875C11.2119 6.25004 10.576 6.51343 10.1072 6.98227C9.63836 7.45112 9.37496 8.087 9.37496 8.75004V10.625H7.49996C7.41428 10.6249 7.32948 10.6423 7.25082 10.6763C7.17216 10.7102 7.10133 10.76 7.04271 10.8225C6.9841 10.885 6.93896 10.9589 6.91011 11.0395C6.88125 11.1202 6.86929 11.206 6.87496 11.2914C6.88879 11.4524 6.96316 11.6022 7.08306 11.7105C7.20297 11.8188 7.3595 11.8776 7.52106 11.875H9.37496V17.7563C9.37523 17.8004 9.36616 17.844 9.34835 17.8844C9.33055 17.9247 9.3044 17.9608 9.27164 17.9904C9.23887 18.0199 9.20023 18.0421 9.15826 18.0556C9.11628 18.0692 9.07192 18.0736 9.02809 18.0688C7.00415 17.8223 5.1465 16.825 3.82283 15.2742C2.49917 13.7233 1.80597 11.7321 1.88043 9.69457C2.03668 5.47582 5.45387 2.04613 9.67575 1.88207C10.7688 1.83973 11.8591 2.01828 12.8816 2.40704C13.904 2.79581 14.8376 3.38679 15.6263 4.14465C16.4151 4.90251 17.0429 5.81167 17.4723 6.81776C17.9016 7.82384 18.1236 8.90618 18.125 10Z" fill="black"/>
</svg>
