<?xml version="1.0" encoding="UTF-8"?>
<svg id="Layer_1" data-name="Layer 1" xmlns="http://www.w3.org/2000/svg" xmlns:xlink="http://www.w3.org/1999/xlink" viewBox="0 0 851.83 783.38">
  <defs>
    <style>
      .cls-1 {
        fill: #2b3036;
      }

      .cls-1, .cls-2, .cls-3, .cls-4, .cls-5, .cls-6, .cls-7, .cls-8, .cls-9 {
        stroke-width: 0px;
      }

      .cls-2 {
        fill: url(#linear-gradient);
      }

      .cls-3 {
        fill: url(#linear-gradient-4);
      }

      .cls-4 {
        fill: url(#linear-gradient-2);
      }

      .cls-5 {
        fill: url(#linear-gradient-3);
      }

      .cls-6 {
        fill: url(#linear-gradient-8);
      }

      .cls-7 {
        fill: url(#linear-gradient-7);
      }

      .cls-8 {
        fill: url(#linear-gradient-5);
      }

      .cls-9 {
        fill: url(#linear-gradient-6);
      }
    </style>
    <linearGradient id="linear-gradient" x1="-251.92" y1="-36.16" x2="-251.92" y2="417.68" gradientTransform="translate(641.7 469.86) rotate(90)" gradientUnits="userSpaceOnUse">
      <stop offset="0" stop-color="#25b17b"/>
      <stop offset=".96" stop-color="#1f2858"/>
    </linearGradient>
    <linearGradient id="linear-gradient-2" x1="-236.23" y1="-100.77" x2="-250.36" y2="170.83" xlink:href="#linear-gradient"/>
    <linearGradient id="linear-gradient-3" x1="-354.21" y1="-35.18" x2="-354.21" y2="415.06" xlink:href="#linear-gradient"/>
    <linearGradient id="linear-gradient-4" x1="-447.68" y1="100.32" x2="-84.89" y2="422" gradientTransform="translate(641.7 469.86) rotate(90)" gradientUnits="userSpaceOnUse">
      <stop offset="0" stop-color="#b19545"/>
      <stop offset="1" stop-color="#6d3d2a"/>
    </linearGradient>
    <linearGradient id="linear-gradient-5" x1="-297.57" y1="132.37" x2="-171.98" y2="391.41" gradientTransform="translate(641.7 469.86) rotate(90)" gradientUnits="userSpaceOnUse">
      <stop offset="0" stop-color="#b19300"/>
      <stop offset="1" stop-color="#4c4e4f"/>
    </linearGradient>
    <linearGradient id="linear-gradient-6" x1="-183.39" y1="6.83" x2="-161.14" y2="214.53" xlink:href="#linear-gradient"/>
    <linearGradient id="linear-gradient-7" x1="-256.07" y1="56.01" x2="-226.81" y2="329.16" xlink:href="#linear-gradient"/>
    <linearGradient id="linear-gradient-8" x1="-286.37" y1="244.9" x2="-163.8" y2="112.64" xlink:href="#linear-gradient"/>
  </defs>
  <g>
    <path class="cls-1" d="M112.71,717.98c-18.16,0-34.55-3.49-49.19-10.48-14.63-6.99-26.46-16.16-35.48-27.5-9.02-11.35-15.95-24.31-20.79-38.88-4.84-14.57-7.26-29.45-7.26-44.62s2.42-30.04,7.26-44.62c4.84-14.57,11.77-27.53,20.79-38.88,9.02-11.35,20.84-20.52,35.48-27.5,14.63-6.99,31.03-10.48,49.19-10.48s35.06,3.49,49.99,10.48c14.93,6.99,27,16.16,36.2,27.5,9.2,11.35,16.27,24.31,21.23,38.88,4.96,14.58,7.44,29.45,7.44,44.62s-2.48,30.04-7.44,44.62c-4.96,14.58-12.04,27.54-21.23,38.88-9.2,11.35-21.26,20.52-36.2,27.5-14.93,6.99-31.6,10.48-49.99,10.48ZM114.5,480.2c-9.2.12-17.65,2.84-25.36,8.15-7.71,5.32-14.04,12.45-18.99,21.41-4.96,8.96-9.17,19.26-12.63,30.91-3.47,11.65-5.62,23.89-6.45,36.73-.84,12.84-.9,25.65-.18,38.44.72,12.78,2.75,24.97,6.09,36.55,3.34,11.59,7.41,21.86,12.18,30.82,4.78,8.96,10.9,16.07,18.37,21.32,7.46,5.26,15.62,7.88,24.46,7.88,10.87,0,20.81-4.27,29.83-12.81,9.02-8.54,16.1-19.65,21.23-33.33,5.13-13.68,9.11-28.79,11.92-45.33,2.81-16.54,3.43-33.06,1.88-49.54-1.55-16.49-4.51-31.57-8.87-45.25-4.36-13.68-11.23-24.76-20.61-33.24-9.38-8.48-20.34-12.72-32.88-12.72Z"/>
    <path class="cls-1" d="M258.7,587.35c0-6.57-.27-12.36-.81-17.38-.54-5.02-1.11-8.57-1.7-10.66-.6-2.09-1.25-4.09-1.97-6-.72-1.91-1.08-2.93-1.08-3.05,4.9,0,12.24-1.79,22.04-5.38,9.79-3.58,20.19-9.5,31.18-17.74v46.95c7.05-15.89,16.42-28.28,28.13-37.18,11.71-8.9,23.17-13.35,34.4-13.35,12.18,0,20.79,4.42,25.8,13.26,4.06,7.05,4.66,14.16,1.79,21.32-2.99,7.53-8.48,11.71-16.49,12.54-.84.12-1.73.18-2.69.18-4.54,0-11.47-2.75-20.79-8.24-9.32-5.49-16.37-8.24-21.14-8.24s-8.75,1.67-12.63,5.02c-3.88,3.35-6.96,7.53-9.23,12.54-2.27,5.02-4.03,10.1-5.29,15.23-1.25,5.14-1.88,9.74-1.88,13.8v30.82c0,47.78,1.85,74.07,5.55,78.84h-58.77c3.7-4.78,5.55-31.06,5.55-78.84v-44.44Z"/>
    <path class="cls-1" d="M414.54,710.63c3.7-4.78,5.55-31.06,5.55-78.84v-44.44c0-6.57-.27-12.36-.81-17.38-.54-5.02-1.11-8.57-1.7-10.66-.6-2.09-1.25-4.09-1.97-6-.72-1.91-1.08-2.93-1.08-3.05,4.9,0,12.24-1.79,22.04-5.38,9.79-3.58,20.19-9.5,31.18-17.74v104.65c0,47.78,1.85,74.07,5.55,78.84h-58.77ZM427.98,509.22c-5.26-5.13-7.88-11.29-7.88-18.46s2.63-13.29,7.88-18.37c5.26-5.08,11.47-7.62,18.64-7.62s13.71,2.54,18.9,7.62c5.2,5.08,7.79,11.2,7.79,18.37s-2.63,13.32-7.88,18.46c-5.26,5.14-11.53,7.71-18.81,7.71s-13.38-2.57-18.64-7.71Z"/>
    <path class="cls-1" d="M578.27,658.13c-13.26,0-25.3-1.94-36.11-5.82-10.81-3.88-19.5-8.96-26.07-15.23-6.57-6.27-11.68-13.44-15.32-21.5-3.65-8.06-5.47-16.31-5.47-24.73s1.82-16.66,5.47-24.73c3.64-8.06,8.75-15.23,15.32-21.5,6.57-6.27,15.26-11.35,26.07-15.23,10.81-3.88,22.85-5.82,36.11-5.82h3.23c7.17-14.21,16.31-25.24,27.42-33.06,11.11-7.82,21.92-11.74,32.43-11.74,11.58,0,20.07,4.24,25.44,12.72,4.3,6.81,5.2,13.62,2.69,20.43-2.75,7.29-8.36,11.29-16.84,12.01h-2.15c-5.38,0-10.63-1.37-15.77-4.12-5.14-2.75-9.98-5.46-14.51-8.15-4.54-2.69-8.78-4.03-12.72-4.03-7.65,0-14.34,5.44-20.07,16.31,12.54.84,23.8,3.43,33.78,7.79,9.97,4.36,17.98,9.77,24.01,16.22,6.03,6.45,10.57,13.68,13.62,21.68,3.05,8,4.36,16.07,3.94,24.19-.42,8.12-2.54,16.07-6.36,23.83-3.83,7.77-9.11,14.63-15.86,20.61-6.75,5.97-15.53,10.78-26.34,14.42-10.81,3.65-22.79,5.46-35.93,5.46ZM546.91,716.19c-15.29,0-26.94-3.4-34.94-10.21-8-6.81-12-15.05-12-24.73,0-7.64,2.24-14.45,6.72-20.43,4.48-5.97,10.36-10.27,17.65-12.9-1.32,7.77.06,13.11,4.12,16.04,4.06,2.93,10.75,4.39,20.07,4.39,6.81,0,17.38-1.01,31.72-3.05,14.33-2.03,25.5-3.05,33.51-3.05,10.51,0,19.89,2.24,28.13,6.72,8.24,4.48,14.51,10.28,18.81,17.38,4.3,7.11,7.46,14.96,9.5,23.56,2.03,8.6,2.09,17.2.18,25.8-1.91,8.6-4.96,16.46-9.14,23.56-4.18,7.11-10.37,12.9-18.55,17.38-8.18,4.48-17.47,6.72-27.86,6.72-13.62,0-25-3.52-34.14-10.57-9.14-7.05-13.65-17.26-13.53-30.64,0-7.29,2.24-12.96,6.72-17.02,4.48-4.06,9.7-6.09,15.68-6.09s10.72,1.94,14.96,5.82c4.24,3.88,6.36,9.29,6.36,16.22-.6,21.74,5.85,32.61,19.35,32.61,8.36-.12,15.11-3.44,20.25-9.95,5.13-6.51,7.71-14.07,7.71-22.67,0-9.2-3.11-16.64-9.32-22.31-6.21-5.68-15.59-8.51-28.13-8.51-3.58,0-14.42,1.01-32.52,3.05-18.1,2.03-31.87,2.99-41.3,2.87ZM579.7,527.5c-6.81,0-12.84,2.3-18.1,6.9-5.26,4.6-9.26,10.57-12.01,17.92-2.75,7.35-4.75,15.47-6,24.37-1.25,8.9-1.29,17.8-.09,26.7,1.19,8.9,3.07,17.02,5.64,24.37,2.57,7.35,6.33,13.32,11.29,17.92,4.96,4.6,10.6,6.9,16.93,6.9s11.92-2.3,17.11-6.9c5.2-4.6,9.26-10.57,12.18-17.92,2.93-7.35,5.22-15.47,6.9-24.37,1.67-8.9,2.06-17.8,1.17-26.7-.9-8.9-2.57-17.02-5.02-24.37-2.45-7.35-6.3-13.32-11.56-17.92-5.26-4.6-11.41-6.9-18.46-6.9Z"/>
    <path class="cls-1" d="M678.38,668.88c0-8.48,2.27-16.15,6.81-23.03,4.54-6.87,10.42-12.6,17.65-17.2,7.23-4.6,15.2-8.9,23.92-12.9,8.72-4,17.44-7.88,26.16-11.65,8.72-3.76,16.67-7.71,23.83-11.83,7.17-4.12,12.99-9.14,17.47-15.05s6.72-12.45,6.72-19.62c0-7.76-3.32-14.3-9.95-19.62-6.63-5.31-13.89-7.97-21.77-7.97-9.92,0-16.96,3.47-21.14,10.39-4.18,6.93-6.27,15.71-6.27,26.34,0,6.93-2.12,12.34-6.36,16.22-4.24,3.88-9.23,5.82-14.96,5.82-6.09,0-11.35-2.03-15.77-6.09-4.42-4.06-6.63-9.74-6.63-17.02s1.97-13.56,5.91-19.17c3.94-5.61,8.99-10.03,15.14-13.26,6.15-3.23,12.57-5.64,19.26-7.26,6.69-1.61,13.2-2.42,19.53-2.42,9.32,0,18.19,1.43,26.61,4.3,8.42,2.87,16.22,7.17,23.38,12.9,7.17,5.73,12.87,13.53,17.11,23.38,4.24,9.86,6.36,21.23,6.36,34.13v65.76c0,13.62.87,23.98,2.6,31.09,1.73,7.11,4.87,10.66,9.41,10.66,2.15,0,4.96-.96,8.42-2.87-6.57,7.53-15.83,11.29-27.77,11.29-21.03,0-33.63-9.74-37.81-29.21-7.65,9.8-16.43,17.11-26.34,21.95-9.92,4.84-19.89,7.26-29.92,7.26-13.98,0-26.07-4.12-36.29-12.36-10.21-8.24-15.32-19.23-15.32-32.97ZM783.57,593.98c-2.15,1.79-5.89,4.27-11.2,7.44-5.32,3.17-10.25,6.33-14.78,9.5-4.54,3.17-9.17,6.87-13.89,11.11-4.72,4.24-8.48,9.32-11.29,15.23-2.81,5.91-4.21,12.27-4.21,19.08,0,10.75,2.89,19.32,8.69,25.71,5.79,6.39,12.93,9.59,21.41,9.59,9.68,0,18.57-4.06,26.7-12.18-.96-6.57-1.43-16.6-1.43-30.1v-55.37Z"/>
  </g>
  <g>
    <path class="cls-2" d="M224.03,226.92C224.03,101.79,325.82,0,450.94,0s226.92,101.79,226.92,226.92c0,43.29-12.24,85.39-35.41,121.77-22.51,35.35-54.28,63.75-91.86,82.15-24.53,12.01-54.15,1.85-66.16-22.68-12-24.53-1.85-54.15,22.68-66.16,44.31-21.69,71.84-65.78,71.84-115.07,0-70.58-57.42-128.01-128.01-128.01s-128.01,57.42-128.01,128.01c0,47.23,25.88,90.48,67.55,112.87,24.06,12.93,33.09,42.91,20.16,66.97-12.93,24.06-42.91,33.08-66.97,20.16-73.8-39.65-119.64-116.28-119.64-200Z"/>
    <path class="cls-4" d="M224.03,226.92C224.03,101.79,325.82,0,450.94,0s226.92,101.79,226.92,226.92c0,43.29-12.24,85.39-35.41,121.77-22.51,35.35-54.28,63.75-91.86,82.15-24.53,12.01-54.15,1.85-66.16-22.68-12-24.53-1.85-54.15,22.68-66.16,44.31-21.69,71.84-65.78,71.84-115.07,0-70.58-57.42-128.01-128.01-128.01s-128.01,57.42-128.01,128.01c0,47.23,25.88,90.48,67.55,112.87,24.06,12.93,33.09,42.91,20.16,66.97-12.93,24.06-42.91,33.08-66.97,20.16-73.8-39.65-119.64-116.28-119.64-200Z"/>
    <path class="cls-5" d="M322.93,226.92c0-70.58,57.42-128.01,128.01-128.01,8.83,0,17.45.9,25.78,2.61,97.32,12.67,200.16,104.44,200.16,104.44C666.27,90.62,569,0,450.94,0s-207.65,83.63-224.31,192.46c34.16,25.7,74.63,48.73,96.3,34.46Z"/>
    <path class="cls-3" d="M410.64,406.76c12.93-24.06,3.9-54.04-20.16-66.97-41.66-22.39-67.55-65.63-67.55-112.87-3.44-203.55,208.92-211.99,208.92-211.99-25.15-9.63-52.42-14.92-80.91-14.92-125.12,0-226.92,101.79-226.92,226.92,0,83.71,45.84,160.35,119.64,200,24.06,12.93,54.04,3.9,66.97-20.16Z"/>
    <path class="cls-8" d="M343.67,426.92c24.06,12.93,54.04,3.9,66.97-20.16,12.93-24.06,3.9-54.04-20.16-66.97,0,0-.33-.18-.92-.51-13.36-7.32-25.07-16.79-34.79-27.86-33.81-33.84-80.25-101.27-86.11-219.49-28.03,37.75-44.63,84.47-44.63,134.99,0,83.71,45.84,160.35,119.64,200Z"/>
    <path class="cls-9" d="M585.89,409.34c-20.26-5.31-43.68-21.96-24.02-73.07,26.3-68.39,52.58-124.65-4.17-179.88,13.41,20.24,21.25,44.48,21.25,70.52,0,49.3-27.53,93.39-71.84,115.07-24.53,12.01-34.68,41.63-22.68,66.16,12.01,24.53,41.63,34.69,66.16,22.68,12.45-6.09,24.25-13.31,35.3-21.49Z"/>
    <path class="cls-7" d="M538.32,227.95c0-46.82-37.96-84.78-84.78-84.78s-84.78,37.96-84.78,84.78,37.96,84.78,84.78,84.78,84.78-37.96,84.78-84.78ZM395.46,227.95c0-32.08,26.01-58.09,58.09-58.09s58.09,26.01,58.09,58.09-26.01,58.09-58.09,58.09-58.09-26.01-58.09-58.09Z"/>
    <path class="cls-6" d="M519.15,281.63c8.13-11.94,12.89-26.37,12.89-41.91,0-41.19-33.39-74.57-74.57-74.57s-74.57,33.39-74.57,74.57c0,32.74,21.11,60.54,50.46,70.56,6.47,1.58,13.23,2.44,20.19,2.44,26.45,0,50.06-12.12,65.61-31.09ZM395.46,227.95c0-32.08,26.01-58.09,58.09-58.09s58.09,26.01,58.09,58.09-26.01,58.09-58.09,58.09-58.09-26.01-58.09-58.09Z"/>
  </g>
</svg>