<?xml version="1.0" encoding="utf-8"?>
<!-- Generator: Adobe Illustrator 27.5.0, SVG Export Plug-In . SVG Version: 6.00 Build 0)  -->
<svg version="1.1" xmlns="http://www.w3.org/2000/svg" xmlns:xlink="http://www.w3.org/1999/xlink" x="0px" y="0px"
	 viewBox="0 0 3710 3710" style="enable-background:new 0 0 3710 3710;" xml:space="preserve">
<g id="Background">
	<g>
		<g>
			<rect style="fill:#FFFFFF;" width="3710" height="3710"/>
		</g>
	</g>
</g>
<g id="Illustration">
	<g>
		<path style="fill:#F4F7FA;" d="M3223.643,1629.411c-55.595-363.902-100.228-615.391-300.989-753.198
			c-338.634-232.448-716.821,144.904-1196.51-108.304c-236.181-124.67-245.033-269.214-445.058-288.4
			c-353.888-33.944-643.7,388.386-668.816,424.605c-152.604,220.06-203.58,488.391-141.715,744.212
			c40.179,166.159,67.332,338.126,59.879,508.864c-12.968,297.152-5.506,574.521,282.874,751.735
			c257.488,158.233,581.544,297.788,890.697,322.229c210.097,16.613,445.71-10.27,648.204-64.967
			C3384.17,2887.422,3300.083,2129.757,3223.643,1629.411z"/>
		<g>
			
				<linearGradient id="SVGID_1_" gradientUnits="userSpaceOnUse" x1="-156.5273" y1="198.9484" x2="-462.4535" y2="2231.4348" gradientTransform="matrix(-1 0 0 1 2172.0442 0)">
				<stop  offset="0" style="stop-color:#444B8C"/>
				<stop  offset="0.9964" style="stop-color:#26264F"/>
			</linearGradient>
			<path style="fill:url(#SVGID_1_);" d="M2118.111,1137.646c10.392,19.221,22.153,37.229,35.175,53.893
				c-1.531,1.717-3.047,3.458-4.479,5.325c-28.153,36.721-25.546,88.691,6.145,115.653c31.685,26.958,79.853,18.199,107.274-19.123
				c1.423-1.937,2.714-3.934,3.969-5.944c18.293,9.925,37.354,18.18,57.007,24.693c-0.563,2.302-1.094,4.621-1.491,6.995
				c-7.639,45.703,19.161,86.526,59.694,90.702c40.271,4.149,78.268-29.557,85.036-74.813c0.344-2.307,0.545-4.585,0.718-6.859
				c20.279-1.991,40.592-5.797,60.781-11.398c0.552,2.147,1.137,4.292,1.863,6.406c14.057,40.948,55.404,58.941,91.914,40.149
				c36.118-18.59,53.561-66.087,39.385-106.049c-0.732-2.064-1.576-4.032-2.444-5.975c16.728-12.777,32.337-26.751,46.737-41.792
				c1.395,1.417-20.778,10.008-19.25,11.311c29.825,25.421,95.881,10.408,118.41-24.103c22.263-34.1,16.537-81.562-12.556-106.374
				c-1.52-1.297-3.093-2.457-4.677-3.581c8.453-19.042,15.553-38.662,21.254-58.694c1.818,0.431,3.65,0.828,5.527,1.088
				c35.814,4.958,68.088-23.67,72.24-63.554c4.111-39.493-20.912-75.488-56.042-80.783c-1.804-0.27-3.594-0.401-5.381-0.505
				c-1.063-19.992-3.556-39.974-7.47-59.808c1.71-0.586,3.418-1.203,5.104-1.958c32.378-14.499,47.277-55.068,33.635-90.565
				c-13.567-35.302-50.463-52.755-82.76-39.035c-1.682,0.714-3.291,1.541-4.882,2.391c-9.887-16.743-20.82-32.453-32.708-47.043
				c1.197-1.374,2.379-2.768,3.483-4.27c21.417-29.151,16.296-71.598-11.226-95.11c-27.527-23.515-67.489-19.568-89.476,9.109
				c-1.155,1.509-2.196,3.076-3.208,4.656c-16.109-9.266-32.877-17.228-50.175-23.821c0.436-1.858,0.843-3.73,1.13-5.656
				c5.481-36.643-16.484-72.172-95.188-77.975c-36.483-2.691-28.127,18.221-34.298,55.138c-0.317,1.903-0.503,3.793-0.663,5.683
				c-18.659,0.272-37.515,2.077-56.444,5.43c-0.491-1.861-1.013-3.721-1.666-5.563c-12.582-35.464-40.234-68.721-122.509-40.078
				c-36.16,12.588-18.715,52.302-6.269,88.559c0.647,1.884,1.41,3.69,2.198,5.477c-17.32,10.415-33.762,22.105-49.217,34.981
				c-1.357-1.376-2.736-2.736-4.232-4.012c-29.189-24.895-74.014-20.467-100.395,10.223c-26.698,31.058-24.386,77.131,5.449,102.561
				c1.559,1.329,3.186,2.525,4.827,3.687c-10.707,18.481-20.093,37.805-28.064,57.811c-1.991-0.483-4-0.934-6.075-1.247
				c-39.815-5.998-79.558,22.61-88.628,64.328c-9.166,42.165,16.504,81.267,57.191,86.899c2.077,0.288,4.149,0.422,6.218,0.527
				c-0.639,21.804,0.394,43.778,3.125,65.749c-2.07,0.686-4.141,1.407-6.202,2.284c-40.026,17.002-62.544,63.961-49.826,104.944
				c12.797,41.237,56.161,60.109,96.378,42.099C2114.15,1139.782,2116.141,1138.727,2118.111,1137.646z M2216.969,1010.815
				c-46.743-142.648,26.817-299.852,158.805-352.083c127.182-50.328,265.507,14.638,313.97,145.857
				c49.464,133.928-10.534,292.887-139.283,354.603C2416.654,1223.333,2264.747,1156.622,2216.969,1010.815z"/>
			
				<linearGradient id="SVGID_00000088130395386097436130000007427360434327744948_" gradientUnits="userSpaceOnUse" x1="65.6525" y1="218.6667" x2="-243.7681" y2="2274.3689" gradientTransform="matrix(-1 0 0 1 2172.0442 0)">
				<stop  offset="0" style="stop-color:#444B8C"/>
				<stop  offset="0.9964" style="stop-color:#26264F"/>
			</linearGradient>
			<path style="fill:url(#SVGID_00000088130395386097436130000007427360434327744948_);" d="M2062.384,925.108
				c-40.686-5.634-66.357-44.736-57.191-86.9c9.07-41.717,48.813-70.326,88.628-64.326c2.074,0.312,4.084,0.765,6.075,1.247
				c7.971-20.007,17.357-39.329,28.064-57.811c-1.642-1.161-3.268-2.358-4.827-3.687c-29.835-25.43-61.499-83.905-31.618-112.498
				c55.738-53.337,97.375-25.18,126.564-0.285c1.496,1.276,2.875,2.635,4.232,4.011c15.455-12.876,31.898-24.564,49.218-34.98
				c-0.788-1.787-1.551-3.593-2.198-5.476c-6.783-19.759-4.115-40.614,5.453-57.627c22.438,55.594,44.599,111.834,66.342,168.801
				c-109.719,63.896-166.595,205.72-124.155,335.241c36.629,111.787,135.166,177.371,240.22,172.241
				c2.902,12.726,5.718,25.545,8.976,38.211c8.873,34.507,19.715,68.528,30.64,102.683c-9.879,1.83-19.768,3.246-29.646,4.217
				c-0.173,2.275-0.374,4.553-0.718,6.859c-6.769,45.257-37.567,83.979-111.106,79.368c-41.076-2.574-41.263-49.553-33.624-95.258
				c0.397-2.373,0.927-4.693,1.49-6.994c-19.652-6.514-38.713-14.769-57.006-24.694c-1.255,2.01-2.546,4.007-3.969,5.943
				c-27.421,37.324-105.604,52.592-137.398,25.545c-31.801-27.053-4.173-85.353,23.979-122.073c1.433-1.868,2.949-3.61,4.479-5.327
				c-13.021-16.663-24.783-34.672-35.174-53.891c-1.97,1.082-3.962,2.137-6.033,3.062c-40.218,18.012-83.581-0.861-96.379-42.099
				c-12.718-40.981,9.8-87.942,49.826-104.944c2.062-0.876,4.133-1.597,6.203-2.282c-2.731-21.971-3.764-43.946-3.125-65.747
				C2066.533,925.529,2064.461,925.394,2062.384,925.108z"/>
			
				<linearGradient id="SVGID_00000111904815890605733430000000117102326656517788_" gradientUnits="userSpaceOnUse" x1="148.5089" y1="1414.1147" x2="-1239.2996" y2="-343.7739" gradientTransform="matrix(-1 0 0 1 2172.0442 0)">
				<stop  offset="0" style="stop-color:#AA80F9"/>
				<stop  offset="0.9964" style="stop-color:#6165D7"/>
			</linearGradient>
			<path style="fill:url(#SVGID_00000111904815890605733430000000117102326656517788_);" d="M2077.788,1141.069
				c10.393,19.302,22.168,37.386,35.221,54.119c-1.55,1.725-3.086,3.475-4.538,5.351c-28.525,36.894-26.118,89.097,5.707,116.17
				c31.819,27.068,80.397,18.25,108.185-19.25c1.443-1.945,2.751-3.953,4.025-5.971c18.393,9.962,37.566,18.247,57.343,24.783
				c-0.577,2.312-1.123,4.641-1.531,7.027c-7.886,45.911,18.95,86.909,59.778,91.087c40.563,4.15,78.986-29.723,85.991-75.183
				c0.356-2.318,0.568-4.607,0.751-6.89c20.44-2.007,40.921-5.837,61.285-11.471c0.547,2.156,1.128,4.31,1.851,6.433
				c13.997,41.124,55.582,59.181,92.44,40.291c36.462-18.687,54.224-66.397,40.102-106.526c-0.729-2.072-1.572-4.048-2.438-5.999
				c16.903-12.838,32.683-26.877,47.248-41.987c1.398,1.422,2.82,2.824,4.349,4.13c29.851,25.44,72.756,17.655,95.585-17.008
				c22.558-34.25,16.977-81.907-12.229-106.812c-1.526-1.302-3.105-2.466-4.696-3.594c8.588-19.124,15.817-38.825,21.637-58.94
				c1.83,0.432,3.674,0.831,5.562,1.091c36.051,4.967,68.668-23.783,73.004-63.828c4.294-39.65-20.766-75.781-56.124-81.088
				c-1.816-0.271-3.619-0.401-5.418-0.506c-0.992-20.07-3.425-40.129-7.29-60.039c1.725-0.589,3.447-1.209,5.148-1.968
				c32.663-14.561,47.826-55.288,34.226-90.917c-13.525-35.433-50.61-52.947-83.189-39.171c-1.697,0.717-3.321,1.548-4.926,2.402
				c-9.892-16.805-20.839-32.573-32.755-47.216c1.211-1.379,2.407-2.779,3.525-4.287c21.683-29.262,16.694-71.866-10.929-95.462
				c-27.627-23.599-67.887-19.633-90.145,9.151c-1.17,1.515-2.224,3.088-3.249,4.674c-16.187-9.298-33.042-17.288-50.437-23.906
				c0.446-1.865,0.863-3.744,1.161-5.676c5.667-36.779-18.437-71.533-53.973-77.977c-35.744-6.483-69.985,18.011-76.351,55.067
				c-0.327,1.91-0.522,3.806-0.692,5.704c-18.794,0.275-37.794,2.088-56.875,5.454c-0.487-1.868-1.005-3.734-1.657-5.584
				c-12.527-35.597-51.247-53.883-86.871-40.904c-35.986,13.109-55.437,53.187-43.049,89.582c0.644,1.891,1.404,3.705,2.191,5.498
				c-17.491,10.458-34.105,22.194-49.727,35.122c-1.361-1.381-2.745-2.745-4.247-4.027c-29.303-24.989-74.481-20.54-101.189,10.274
				c-27.03,31.186-24.896,77.443,5.058,102.97c1.565,1.335,3.198,2.535,4.848,3.701c-10.866,18.557-20.405,37.961-28.521,58.05
				c-2.005-0.484-4.029-0.936-6.117-1.251c-40.093-6.016-80.262,22.717-89.579,64.612c-9.417,42.344,16.285,81.606,57.261,87.253
				c2.093,0.288,4.18,0.423,6.264,0.527c-0.736,21.898,0.212,43.964,2.871,66.028c-2.089,0.69-4.179,1.414-6.26,2.294
				c-40.408,17.087-63.301,64.256-50.658,105.415c12.722,41.417,56.344,60.357,96.949,42.255
				C2073.787,1143.214,2075.798,1142.154,2077.788,1141.069z M2177.938,1013.66c-46.5-143.238,28.27-301.096,161.452-353.551
				c128.315-50.538,267.373,14.658,315.661,146.374c49.289,134.447-11.775,294.071-141.72,356.087
				C2378.259,1227.032,2225.473,1160.081,2177.938,1013.66z"/>
		</g>
		<g>
			
				<linearGradient id="SVGID_00000078016461358316121460000011166220987049674905_" gradientUnits="userSpaceOnUse" x1="-623.9078" y1="1195.0673" x2="-804.4706" y2="2394.6755" gradientTransform="matrix(-1 0 0 1 2172.0442 0)">
				<stop  offset="0" style="stop-color:#444B8C"/>
				<stop  offset="0.9964" style="stop-color:#26264F"/>
			</linearGradient>
			<path style="fill:url(#SVGID_00000078016461358316121460000011166220987049674905_);" d="M2671.735,1749.103
				c6.134,11.344,13.075,21.973,20.761,31.809c-0.903,1.013-1.799,2.041-2.644,3.143c-16.616,21.673-15.078,52.347,3.627,68.26
				c18.701,15.911,47.131,10.741,63.315-11.287c0.84-1.143,1.602-2.322,2.343-3.508c10.797,5.858,22.047,10.73,33.646,14.574
				c-0.332,1.358-0.646,2.727-0.88,4.129c-4.509,26.975,11.309,51.069,35.233,53.534c23.769,2.449,46.195-17.445,50.19-44.156
				c0.203-1.362,0.322-2.706,0.424-4.048c11.969-1.175,23.958-3.421,35.874-6.727c0.326,1.267,0.671,2.533,1.099,3.781
				c8.297,24.168,32.7,34.788,54.249,23.697c21.318-10.972,31.613-39.005,23.246-62.592c-0.432-1.218-0.93-2.38-1.442-3.527
				c9.873-7.542,19.086-15.789,27.585-24.667c0.823,0.836-12.264,5.907-11.362,6.676c17.604,15.004,56.591,6.143,69.888-14.226
				c13.14-20.126,9.76-48.139-7.411-62.783c-0.897-0.766-1.826-1.45-2.76-2.114c4.989-11.239,9.18-22.819,12.545-34.642
				c1.073,0.255,2.154,0.489,3.262,0.642c21.138,2.926,40.187-13.97,42.637-37.511c2.427-23.31-12.342-44.555-33.077-47.679
				c-1.065-0.159-2.121-0.237-3.176-0.298c-0.627-11.8-2.099-23.593-4.409-35.3c1.009-0.346,2.017-0.71,3.012-1.156
				c19.11-8.557,27.904-32.502,19.852-53.453c-8.008-20.836-29.784-31.137-48.846-23.039c-0.993,0.421-1.942,0.909-2.881,1.411
				c-5.836-9.882-12.288-19.155-19.305-27.766c0.706-0.811,1.404-1.633,2.056-2.52c12.641-17.205,9.618-42.258-6.626-56.135
				c-16.247-13.879-39.833-11.55-52.81,5.376c-0.682,0.891-1.296,1.815-1.893,2.748c-9.508-5.469-19.405-10.168-29.614-14.06
				c0.257-1.097,0.497-2.202,0.667-3.338c3.235-21.628-9.729-42.597-56.181-46.022c-21.533-1.588-16.601,10.754-20.243,32.544
				c-0.187,1.123-0.297,2.239-0.391,3.354c-11.013,0.161-22.142,1.226-33.314,3.205c-0.29-1.099-0.598-2.196-0.983-3.283
				c-7.426-20.932-23.747-40.56-72.307-23.655c-21.342,7.43-11.046,30.87-3.7,52.269c0.382,1.112,0.832,2.178,1.297,3.233
				c-10.222,6.147-19.927,13.047-29.049,20.646c-0.801-0.812-1.615-1.615-2.498-2.368c-17.228-14.693-43.684-12.08-59.255,6.034
				c-15.757,18.331-14.393,45.524,3.216,60.533c0.92,0.784,1.88,1.49,2.849,2.176c-6.319,10.908-11.859,22.313-16.564,34.121
				c-1.175-0.285-2.361-0.551-3.586-0.736c-23.5-3.54-46.957,13.345-52.31,37.967c-5.41,24.886,9.741,47.965,33.755,51.289
				c1.226,0.17,2.449,0.249,3.67,0.311c-0.377,12.869,0.232,25.838,1.844,38.806c-1.222,0.405-2.444,0.831-3.661,1.348
				c-23.624,10.035-36.915,37.751-29.408,61.94c7.553,24.339,33.147,35.477,56.884,24.847
				C2669.396,1750.364,2670.572,1749.741,2671.735,1749.103z M2730.083,1674.245c-27.588-84.193,15.828-176.978,93.73-207.805
				c75.065-29.704,156.707,8.64,185.311,86.087c29.195,79.046-6.218,172.867-82.207,209.293
				C2847.94,1799.677,2758.281,1760.302,2730.083,1674.245z"/>
			
				<linearGradient id="SVGID_00000004542590506231103370000002668751280754887821_" gradientUnits="userSpaceOnUse" x1="-492.7735" y1="1206.7054" x2="-675.3988" y2="2420.0159" gradientTransform="matrix(-1 0 0 1 2172.0442 0)">
				<stop  offset="0" style="stop-color:#444B8C"/>
				<stop  offset="0.9964" style="stop-color:#26264F"/>
			</linearGradient>
			<path style="fill:url(#SVGID_00000004542590506231103370000002668751280754887821_);" d="M2638.844,1623.659
				c-24.014-3.325-39.165-26.404-33.755-51.29c5.353-24.622,28.81-41.508,52.31-37.967c1.225,0.184,2.411,0.451,3.586,0.736
				c4.705-11.809,10.245-23.213,16.564-34.121c-0.969-0.685-1.929-1.392-2.849-2.176c-17.609-15.009-36.298-49.522-18.662-66.398
				c32.897-31.481,57.472-14.862,74.7-0.168c0.883,0.753,1.697,1.555,2.498,2.367c9.122-7.599,18.826-14.498,29.049-20.646
				c-0.465-1.055-0.915-2.121-1.297-3.232c-4.003-11.662-2.428-23.971,3.219-34.013c13.243,32.812,26.323,66.006,39.156,99.629
				c-64.758,37.712-98.327,121.42-73.278,197.865c21.619,65.979,79.777,104.687,141.782,101.66
				c1.713,7.511,3.375,15.077,5.297,22.553c5.237,20.367,11.636,40.447,18.084,60.605c-5.831,1.08-11.667,1.916-17.498,2.489
				c-0.102,1.343-0.22,2.687-0.424,4.048c-3.995,26.711-22.173,49.566-65.577,46.845c-24.244-1.519-24.354-29.247-19.845-56.223
				c0.234-1.401,0.547-2.77,0.88-4.128c-11.599-3.844-22.849-8.717-33.646-14.575c-0.741,1.186-1.502,2.365-2.343,3.508
				c-16.184,22.029-62.329,31.041-81.094,15.077c-18.769-15.967-2.463-50.377,14.153-72.05c0.846-1.103,1.741-2.13,2.644-3.144
				c-7.685-9.835-14.627-20.464-20.76-31.808c-1.163,0.639-2.338,1.261-3.561,1.807c-23.737,10.631-49.331-0.509-56.885-24.848
				c-7.506-24.188,5.784-51.905,29.408-61.94c1.217-0.517,2.439-0.943,3.661-1.347c-1.612-12.968-2.222-25.938-1.845-38.805
				C2641.292,1623.908,2640.07,1623.828,2638.844,1623.659z"/>
			
				<linearGradient id="SVGID_00000163046650051561499050000010327703372391040674_" gradientUnits="userSpaceOnUse" x1="-443.8702" y1="1912.2792" x2="-1262.9784" y2="874.7433" gradientTransform="matrix(-1 0 0 1 2172.0442 0)">
				<stop  offset="0" style="stop-color:#AA80F9"/>
				<stop  offset="0.9964" style="stop-color:#6165D7"/>
			</linearGradient>
			<path style="fill:url(#SVGID_00000163046650051561499050000010327703372391040674_);" d="M2647.935,1751.123
				c6.134,11.392,13.084,22.066,20.788,31.942c-0.915,1.018-1.821,2.051-2.678,3.158c-16.836,21.776-15.415,52.586,3.369,68.566
				c18.78,15.976,47.451,10.772,63.852-11.362c0.851-1.148,1.624-2.333,2.375-3.524c10.856,5.88,22.172,10.77,33.845,14.627
				c-0.341,1.365-0.663,2.739-0.904,4.147c-4.655,27.097,11.185,51.295,35.282,53.761c23.941,2.449,46.619-17.543,50.753-44.374
				c0.21-1.368,0.335-2.719,0.443-4.067c12.064-1.185,24.153-3.445,36.172-6.771c0.323,1.273,0.666,2.544,1.093,3.797
				c8.261,24.272,32.805,34.929,54.56,23.781c21.521-11.029,32.004-39.188,23.669-62.873c-0.43-1.223-0.928-2.389-1.439-3.541
				c9.976-7.577,19.29-15.863,27.886-24.781c0.825,0.839,1.664,1.667,2.567,2.437c17.619,15.015,42.942,10.42,56.416-10.039
				c13.314-20.215,10.02-48.343-7.218-63.042c-0.9-0.769-1.833-1.455-2.772-2.121c5.069-11.287,9.335-22.915,12.771-34.787
				c1.08,0.255,2.168,0.49,3.283,0.644c21.278,2.932,40.529-14.037,43.088-37.672c2.534-23.402-12.257-44.727-33.125-47.86
				c-1.072-0.16-2.136-0.237-3.198-0.299c-0.585-11.846-2.021-23.685-4.302-35.436c1.018-0.348,2.034-0.713,3.039-1.161
				c19.278-8.594,28.228-32.632,20.201-53.661c-7.983-20.913-29.871-31.25-49.1-23.119c-1.001,0.423-1.96,0.913-2.907,1.418
				c-5.838-9.919-12.3-19.225-19.332-27.868c0.714-0.814,1.421-1.64,2.08-2.53c12.798-17.271,9.853-42.417-6.451-56.343
				c-16.306-13.929-40.068-11.588-53.205,5.401c-0.691,0.894-1.313,1.823-1.918,2.759c-9.554-5.488-19.502-10.204-29.769-14.109
				c0.263-1.101,0.51-2.21,0.685-3.35c3.345-21.708-10.882-42.22-31.856-46.023c-21.096-3.826-41.306,10.63-45.063,32.502
				c-0.193,1.127-0.308,2.246-0.408,3.367c-11.092,0.162-22.307,1.232-33.568,3.219c-0.287-1.102-0.593-2.204-0.978-3.296
				c-7.394-21.01-30.247-31.802-51.273-24.142c-21.239,7.738-32.72,31.392-25.408,52.873c0.38,1.116,0.829,2.187,1.293,3.245
				c-10.324,6.173-20.13,13.099-29.35,20.73c-0.803-0.815-1.62-1.62-2.507-2.377c-17.295-14.749-43.96-12.123-59.723,6.064
				c-15.954,18.406-14.694,45.708,2.985,60.775c0.924,0.788,1.887,1.496,2.861,2.185c-6.413,10.953-12.043,22.405-16.833,34.262
				c-1.184-0.286-2.378-0.553-3.611-0.738c-23.663-3.551-47.372,13.408-52.871,38.135c-5.558,24.992,9.611,48.165,33.796,51.498
				c1.235,0.17,2.467,0.249,3.697,0.311c-0.434,12.924,0.125,25.948,1.695,38.971c-1.233,0.407-2.466,0.835-3.695,1.354
				c-23.849,10.085-37.361,37.925-29.899,62.218c7.508,24.445,33.255,35.624,57.221,24.94
				C2645.573,1752.389,2646.761,1751.764,2647.935,1751.123z M2707.045,1675.924c-27.445-84.542,16.686-177.712,95.292-208.672
				c75.733-29.828,157.808,8.651,186.309,86.392c29.091,79.353-6.95,173.566-83.646,210.169
				C2825.278,1801.86,2735.101,1762.344,2707.045,1675.924z"/>
		</g>
		<g>
			<g>
				<g>
					<path style="fill:#AEB6C1;" d="M982.533,675.664l-279.722,2325c-4.193,34.86,19.833,66.11,53.49,69.449l1165.08,127.909
						c71.372,4.44,110.45-32.024,114.854-69.093l293.677-2471.863c4.379-36.862-30.636-70.245-102.312-70.246l-1175.681,24.762
						C1017.885,612.151,986.706,640.987,982.533,675.664z"/>
					<path style="fill:#BFC8D6;" d="M930.097,671.662l-281.259,2336.63c-4.218,35.036,19.891,66.446,53.672,69.81l1207.862,120.256
						c37.869,3.77,72.572-23.625,77.002-60.885L2282.7,652.836c4.403-37.052-23.411-66.835-61.693-66.189l-1221.25,20.606
						C965.594,607.829,934.292,636.812,930.097,671.662z"/>
					<path style="fill:#F4F7FA;" d="M953.016,800.548l-260.69,2166.519c-3.938,32.732,18.639,62.024,50.259,65.098l1135.953,110.423
						c35.203,3.422,67.463-22.149,71.588-56.831L2223.05,790.529c4.103-34.502-21.719-62.419-57.279-62.04L1018.16,740.71
						C986.211,741.05,956.935,767.975,953.016,800.548z"/>
					<path style="fill:#FFFFFF;" d="M1562.174,670.057c-1.489,12.439,7.438,22.396,19.952,22.238
						c12.528-0.157,23.902-10.391,25.393-22.854c1.491-12.464-7.469-22.42-19.998-22.236
						C1575.004,647.387,1563.662,657.618,1562.174,670.057z"/>
					<g>
						<path style="fill:#FFFFFF;" d="M1149.412,2254.853c232.555-429.961,579.956-558.659,684.55-1001.781
							c56.538-239.525,18.017-468.782-46.861-659.103l433.906-7.322c38.282-0.645,66.096,29.137,61.692,66.189l-295.325,2484.637
							c-4.429,37.26-39.132,64.655-77.002,60.884l-949.497-94.533C953.853,2718.564,1045.748,2446.51,1149.412,2254.853z"/>
					</g>
				</g>
			</g>
		</g>
		<g>
			
				<linearGradient id="SVGID_00000078753637436193003530000000070255611005041075_" gradientUnits="userSpaceOnUse" x1="1393.9462" y1="2528.5679" x2="1787.6191" y2="2528.5679" gradientTransform="matrix(-1 0 0 1 4027.9646 0)">
				<stop  offset="0" style="stop-color:#444B8C"/>
				<stop  offset="0.9964" style="stop-color:#3E4177"/>
			</linearGradient>
			<path style="fill:url(#SVGID_00000078753637436193003530000000070255611005041075_);" d="M2297.897,2204.476
				c72.599-35.455,214.202,92.966,283.113,215.974c27.462,49.018,59.703,106.568,51.792,174.986
				c-14.024,121.296-148.578,227.693-333.78,263.213c-5.213-18.622-10.427-37.242-15.641-55.862
				c20.25-21.09,50.532-51.538,89.235-86.424c59.449-53.588,71.665-57.161,74.516-74.079
				c9.339-55.417-133.171-101.808-183.86-199.245C2219.691,2359.262,2242.126,2231.713,2297.897,2204.476z"/>
			
				<linearGradient id="SVGID_00000129894341820225627780000009694576625238096310_" gradientUnits="userSpaceOnUse" x1="2400.9246" y1="2891.2024" x2="2460.6003" y2="3243.8325">
				<stop  offset="0" style="stop-color:#444B8C"/>
				<stop  offset="0.9964" style="stop-color:#26264F"/>
			</linearGradient>
			<path style="fill:url(#SVGID_00000129894341820225627780000009694576625238096310_);" d="M2393.277,3179.37
				c0,0-11.919,29.405-5.992,40.919c6.222,12.089,24.211,8.494,74.854,10.397c51.867,1.948,63.599,6.111,65.672,0.901
				c4.142-10.412-36.156-43.477-83.298-52.217C2423.746,3175.52,2405.756,3177.151,2393.277,3179.37z"/>
			
				<linearGradient id="SVGID_00000121962382019646705410000005855164455012264378_" gradientUnits="userSpaceOnUse" x1="1662.5784" y1="2951.4539" x2="1611.1854" y2="3273.217" gradientTransform="matrix(-1 0 0 1 4027.9646 0)">
				<stop  offset="0" style="stop-color:#311944"/>
				<stop  offset="1" style="stop-color:#A03976"/>
			</linearGradient>
			<path style="fill:url(#SVGID_00000121962382019646705410000005855164455012264378_);" d="M2403.957,3135.413l28.2,43.957
				c0,0-12.996,12.825-35.079,8.05l-31.021-41.644L2403.957,3135.413z"/>
			
				<linearGradient id="SVGID_00000165203563117760602870000012108992606946950025_" gradientUnits="userSpaceOnUse" x1="1393.9468" y1="2528.5964" x2="1787.6173" y2="2528.5964" gradientTransform="matrix(-1 0 0 1 4027.9646 0)">
				<stop  offset="0" style="stop-color:#444B8C"/>
				<stop  offset="0.9964" style="stop-color:#3E4177"/>
			</linearGradient>
			<path style="opacity:0.3;fill:url(#SVGID_00000165203563117760602870000012108992606946950025_);" d="M2263.271,2443.037
				c-43.581-83.775-21.146-211.324,34.626-238.562c14.625-7.141,32.078-7.54,51.145-2.765c-10.04,28.993-8.05,49.956-3.095,64.803
				c22.096,66.225,117.628,58.69,147.475,134.068c18.868,47.65-11.135,71.295,15.641,109.489
				c27.75,39.582,73.128,32.945,87.144,71.503c10.444,28.729-10.151,45.065-2.234,69.268c2.206,6.745,6.553,13.516,13.863,19.948
				c-49.081,88.271-163.293,159.948-308.813,187.858c-5.213-18.622-10.427-37.242-15.641-55.862
				c20.25-21.09,50.532-51.538,89.235-86.424c59.449-53.588,71.665-57.161,74.516-74.079
				C2456.47,2586.865,2313.961,2540.474,2263.271,2443.037z"/>
			
				<linearGradient id="SVGID_00000147912582231744608620000018288410570720701313_" gradientUnits="userSpaceOnUse" x1="1612.094" y1="2697.657" x2="1948.7037" y2="2697.657" gradientTransform="matrix(-1 0 0 1 4027.9646 0)">
				<stop  offset="0" style="stop-color:#444B8C"/>
				<stop  offset="0.9964" style="stop-color:#3E4177"/>
			</linearGradient>
			<path style="fill:url(#SVGID_00000147912582231744608620000018288410570720701313_);" d="M2347.437,2230.762
				c-3.141,126.96-1.379,264.236,7.815,410.375c11.74,186.603,33.734,357.998,60.619,512.014
				c-11.943,3.8-23.885,7.599-35.827,11.399c-122.834-119.68-159.591-224.961-169.654-300.69
				c-7.113-53.533,3.652-58.134-5.948-125.133c-18.283-127.591-65.976-171.287-99.468-290.733
				c-12.57-44.833-26.565-112.56-25.671-200.846C2168.68,2241.687,2258.059,2236.225,2347.437,2230.762z"/>
			
				<linearGradient id="SVGID_00000036973608535615975750000009690501263279987085_" gradientUnits="userSpaceOnUse" x1="2366.0637" y1="2154.9109" x2="1991.812" y2="1176.9126">
				<stop  offset="0" style="stop-color:#FFC444"/>
				<stop  offset="0.9964" style="stop-color:#F36F56"/>
			</linearGradient>
			<path style="fill:url(#SVGID_00000036973608535615975750000009690501263279987085_);" d="M2435.427,2003.351
				c-2.23,0.511-11.913,3.732-15.742,44.185c-9.233,97.541,41.553,137.032,29.048,189.93
				c-12.003,50.774-73.221,75.407-136.231,100.763c-42.108,16.946-172.346,69.352-248.087,10.422
				c-31.876-24.802-35.365-54.746-58.105-164.812c-57.779-279.653-80.162-303.679-55.862-364.218
				c41.731-103.962,153.464-147.015,172.054-154.178c198.223-76.38,432.305,63.999,524.804,225.273
				c12.18,21.235,84.918,148.058,33.812,208.213c-30.919,36.392-101.969,42.267-148.859,17.451
				C2469.61,2083.223,2456.3,1998.566,2435.427,2003.351z"/>
			
				<linearGradient id="SVGID_00000026848441758411441240000002569913494356986040_" gradientUnits="userSpaceOnUse" x1="2512.9602" y1="2010.932" x2="2656.5381" y2="2010.932">
				<stop  offset="0" style="stop-color:#FFC444"/>
				<stop  offset="0.9964" style="stop-color:#F36F56"/>
			</linearGradient>
			<path style="fill:url(#SVGID_00000026848441758411441240000002569913494356986040_);" d="M2652.073,2077.327
				c0.619,0,1.248-0.131,1.85-0.405c2.243-1.022,3.233-3.671,2.213-5.918c-1.699-3.719-42.617-91.535-137.172-126.187
				c-2.322-0.86-4.884,0.336-5.73,2.658c-0.851,2.317,0.34,4.883,2.659,5.73c90.949,33.334,131.706,120.631,132.107,121.507
				C2648.752,2076.358,2650.375,2077.327,2652.073,2077.327z"/>
			
				<linearGradient id="SVGID_00000145060649996450509270000001436796984939725468_" gradientUnits="userSpaceOnUse" x1="2267.8291" y1="1890.7313" x2="2327.5706" y2="1991.6283">
				<stop  offset="0" style="stop-color:#311944"/>
				<stop  offset="1" style="stop-color:#A03976"/>
			</linearGradient>
			<path style="fill:url(#SVGID_00000145060649996450509270000001436796984939725468_);" d="M2280.854,1977.025
				c0.522-4.033,4.614-31.897,27.88-40.824c11.573-4.44,31.909-5.738,39.828,6.97c4.972,7.979,4.538,20.662-1.992,26.884
				c-8.255,7.866-19.019-1.484-33.853,4.979c-17.831,7.767-20.726,29.312-26.884,27.879
				C2280.99,2001.786,2279.472,1987.684,2280.854,1977.025z"/>
			
				<linearGradient id="SVGID_00000116957824401721396740000008424623749810403517_" gradientUnits="userSpaceOnUse" x1="1940.751" y1="2057.0757" x2="2450.718" y2="2057.0757">
				<stop  offset="0" style="stop-color:#FFC444"/>
				<stop  offset="0.9964" style="stop-color:#F36F56"/>
			</linearGradient>
			<path style="opacity:0.3;fill:url(#SVGID_00000116957824401721396740000008424623749810403517_);" d="M2080.045,1783.87
				c12.51,34.058-25.028,63.571-8.938,100.551c23.061,52.998,114.708,25.797,147.474,78.207
				c38.834,62.115-50.094,163.997-13.406,198.867c16.718,15.89,36.034-4.461,84.909,6.704c69.608,15.9,90.522,70.905,122.896,62.564
				c10.182-2.623,22.525-11.866,32.91-40.322c4.527,15.789,6.682,30.777,2.842,47.026c-12.003,50.774-73.221,75.407-136.232,100.763
				c-42.109,16.946-172.345,69.352-248.087,10.422c-31.876-24.802-35.365-54.746-58.105-164.812
				c-57.779-279.653-80.162-303.679-55.862-364.218c13.25-33.01,33.564-59.859,55.706-81.389
				C2053.893,1748.777,2073.497,1766.04,2080.045,1783.87z"/>
			
				<linearGradient id="SVGID_00000044889927532367774190000007013110157204851872_" gradientUnits="userSpaceOnUse" x1="2185.1836" y1="2224.1287" x2="1810.9323" y2="1246.1307">
				<stop  offset="0" style="stop-color:#FFC444"/>
				<stop  offset="0.9964" style="stop-color:#F36F56"/>
			</linearGradient>
			<path style="fill:url(#SVGID_00000044889927532367774190000007013110157204851872_);" d="M2279.403,1950.775
				c-5.348,4.864-65.319,69.269-130.551,52.959c-56.811-14.206-91.69-69.44-97.802-115.916
				c-14.531-110.533,129.475-203.312,111.723-225.681c-10.441-13.156-66.042,11.259-105.02,35.751
				c-31.962,20.085-165.886,104.242-162.297,245.345c0.364,14.321,2.672,105.062,62.728,150.35
				c81.108,61.164,206.454,59.53,340.365-88.318C2291.133,1984.154,2286.821,1971.887,2279.403,1950.775z"/>
			<g>
				
					<linearGradient id="SVGID_00000054975428300897012230000000480307263302128018_" gradientUnits="userSpaceOnUse" x1="2612.4463" y1="2018.1002" x2="2398.3721" y2="1856.7977">
					<stop  offset="0" style="stop-color:#444B8C"/>
					<stop  offset="0.9964" style="stop-color:#26264F"/>
				</linearGradient>
				<path style="fill:url(#SVGID_00000054975428300897012230000000480307263302128018_);" d="M2572.184,1815.347l-64.567,206.251
					c-2.118,6.763-8.271,11.454-15.352,11.704l-84.427,12.273c-10.889,0.385-19.226-9.589-16.915-20.236l56.931-211.113
					c1.625-7.493,8.143-12.917,15.806-13.155l92.063-7.412C2567.208,1793.302,2575.617,1804.38,2572.184,1815.347z"/>
				
					<linearGradient id="SVGID_00000057853339205539567150000004600129646832216221_" gradientUnits="userSpaceOnUse" x1="1512.3108" y1="1859.6121" x2="1614.1057" y2="2043.1514" gradientTransform="matrix(-1 0 0 1 4027.9646 0)">
					<stop  offset="0" style="stop-color:#444B8C"/>
					<stop  offset="0.9964" style="stop-color:#26264F"/>
				</linearGradient>
				<path style="fill:url(#SVGID_00000057853339205539567150000004600129646832216221_);" d="M2569.086,1822.129l-62.666,200.177
					c-2.054,6.564-8.026,11.117-14.899,11.359l-74.193,11.913c-10.567,0.373-18.659-9.307-16.416-19.64l55.608-205.014
					c1.577-7.272,7.903-12.537,15.34-12.768l81.249-7.075C2564.258,1800.733,2572.419,1811.485,2569.086,1822.129z"/>
				
					<linearGradient id="SVGID_00000042695044764807294970000007076691461711698069_" gradientUnits="userSpaceOnUse" x1="2385.1816" y1="1805.0419" x2="2543.6477" y2="2188.749">
					<stop  offset="0" style="stop-color:#444B8C"/>
					<stop  offset="0.9964" style="stop-color:#26264F"/>
				</linearGradient>
				<path style="opacity:0.3;fill:url(#SVGID_00000042695044764807294970000007076691461711698069_);" d="M2400.912,2025.937
					l53.128-195.87c3.944,1.946,9.64,4.956,14.987,9.542c20.925,17.948,32.91,50.434,26.002,76.417
					c-8.809,33.136-42.62,34.161-47.296,61.733c-3.66,21.583,13.845,44.428,28.304,58.391l-58.708,9.426
					C2406.762,2045.95,2398.67,2036.27,2400.912,2025.937z"/>
			</g>
			
				<linearGradient id="SVGID_00000011715901591752720000000017521980599093695112_" gradientUnits="userSpaceOnUse" x1="1754.3169" y1="1486.3093" x2="1726.0135" y2="1727.6324" gradientTransform="matrix(-1 0 0 1 4027.9646 0)">
				<stop  offset="0" style="stop-color:#311944"/>
				<stop  offset="1" style="stop-color:#A03976"/>
			</linearGradient>
			<path style="fill:url(#SVGID_00000011715901591752720000000017521980599093695112_);" d="M2326.832,1645.57
				c-3.694,12.964,4.105,26.436,17.209,29.599c15.873,3.83,35.209,9.126,43.558,13.904c15.327,8.771-46.685-1.361-103.725-2.699
				c-35.609-0.835-62.219-4.832-77.187-7.718c-4.019-0.776-4.329-6.384-0.44-7.649c14.254-4.637,37.427-11.465,57.011-13.926
				c24.246-3.048,50.247-56.552,50.247-56.552l20.779,18.875L2326.832,1645.57z"/>
			
				<linearGradient id="SVGID_00000010271162131451393910000017665871991002525088_" gradientUnits="userSpaceOnUse" x1="1491.1587" y1="1968.0273" x2="1559.2656" y2="1968.0273" gradientTransform="matrix(-1 0 0 1 4027.9646 0)">
				<stop  offset="0" style="stop-color:#311944"/>
				<stop  offset="1" style="stop-color:#A03976"/>
			</linearGradient>
			<path style="fill:url(#SVGID_00000010271162131451393910000017665871991002525088_);" d="M2533.223,1962.305l-3.943-6.448
				c-3.488-13.391-16.352-22.131-30.087-20.437l-20.718,2.555c-6.483,0.8-10.87,6.967-9.536,13.362
				c1.928,9.247,6.889,20.311,19.618,19.452c21.624-1.458,35.447,30.054,35.447,30.054l8.3-11.689
				C2537.954,1981.195,2538.315,1970.632,2533.223,1962.305z"/>
			
				<linearGradient id="SVGID_00000160880514598419433690000016097304904182685605_" gradientUnits="userSpaceOnUse" x1="2394.166" y1="1477.7816" x2="2356.3296" y2="1590.2954">
				<stop  offset="0" style="stop-color:#444B8C"/>
				<stop  offset="0.9964" style="stop-color:#26264F"/>
			</linearGradient>
			<path style="fill:url(#SVGID_00000160880514598419433690000016097304904182685605_);" d="M2373.142,1618.149
				c17.921-2.655,37.995-17.72,37.604-30.168c-0.536-17.108-39.645-26.478-59.392-31.208c-19.808-4.745-28.209-3.028-33.878,1.288
				c-5.792,4.41-9.598,12.305-10.844,19.113c-0.679,3.71-0.715,8.815-0.079,18.987c0.565,9.027,0.399,8.631,0.633,11.298
				c0.563,6.406,2.311,17.671,8.554,33.288c2.601-2.851,6.045-6.258,10.393-9.615c1.673-1.292,8.292-6.294,15.818-9.324
				C2354.869,1616.606,2362.264,1619.76,2373.142,1618.149z"/>
			
				<linearGradient id="SVGID_00000124846891343252194390000003231306467269521597_" gradientUnits="userSpaceOnUse" x1="1728.7305" y1="1518.9269" x2="1701.9167" y2="1585.9612" gradientTransform="matrix(-1 0 0 1 4027.9646 0)">
				<stop  offset="0" style="stop-color:#311944"/>
				<stop  offset="1" style="stop-color:#A03976"/>
			</linearGradient>
			<path style="fill:url(#SVGID_00000124846891343252194390000003231306467269521597_);" d="M2306.206,1623.342
				c0,0,1.161,24.964,24.684,35.924c21.063,9.813,49.016-34.162,41.326-50.955c-2.565-5.601-10.51-11.694-18.651-13.581
				c-4.807-1.115-7.167-0.155-14.988-2.128c-7.213-1.821-8.615-3.499-11.4-2.938c-3.484,0.7-7.926,4.666-11.245,20.179
				c-1.728-6.054-5.561-10.112-9.712-10.361c-0.663-0.04-2.58,0.145-4.153,1.155
				C2296.37,1604.289,2297.483,1613.547,2306.206,1623.342z"/>
		</g>
		<g>
			
				<linearGradient id="SVGID_00000147930899017630892380000002297380005586172033_" gradientUnits="userSpaceOnUse" x1="622.7474" y1="1935.5474" x2="1080.8496" y2="1935.5474">
				<stop  offset="0" style="stop-color:#444B8C"/>
				<stop  offset="0.9964" style="stop-color:#3E4177"/>
			</linearGradient>
			<path style="fill:url(#SVGID_00000147930899017630892380000002297380005586172033_);" d="M1044.822,2125.434l35.839-367.613
				c2.04-20.919-12.738-38.322-32.971-38.813l-356.968-8.684c-3.177-0.078-6.291,0.288-9.273,1.033
				c-15.659,3.869-28.118,18.202-29.506,35.531l-29.075,362.966c-1.603,20.013,12.816,36.833,32.207,37.57l350.203,13.331
				C1025.124,2161.51,1042.846,2145.701,1044.822,2125.434z"/>
			
				<linearGradient id="SVGID_00000102504797333050762900000015695347804886325917_" gradientUnits="userSpaceOnUse" x1="849.9139" y1="2598.6467" x2="1325.9045" y2="2598.6467">
				<stop  offset="0" style="stop-color:#311944"/>
				<stop  offset="1" style="stop-color:#893976"/>
			</linearGradient>
			<path style="fill:url(#SVGID_00000102504797333050762900000015695347804886325917_);" d="M1291.723,2385.502l-367.955-16.269
				c-17.239-0.762-32.782,10.46-38.465,26.364c-1.154,3.082-1.884,6.343-2.188,9.702l-33.048,363.97
				c-1.841,20.27,13.074,37.609,33.31,38.729l318.981,17.65l0,0l43.133,2.388c20.63,1.141,39.142-14.53,41.307-35.006
				l38.891-367.742C1327.913,2404.266,1312.69,2386.428,1291.723,2385.502z"/>
			
				<linearGradient id="SVGID_00000158004434209200495650000010729206611103472309_" gradientUnits="userSpaceOnUse" x1="759.5717" y1="1208.8987" x2="1307.6968" y2="1208.8987">
				<stop  offset="0" style="stop-color:#311944"/>
				<stop  offset="1" style="stop-color:#893976"/>
			</linearGradient>
			<path style="fill:url(#SVGID_00000158004434209200495650000010729206611103472309_);" d="M797.855,1471.724l405.987,6.817l0,0
				l9.596,0.162c23.739,0.398,45.08-19.327,47.642-44.108l46.351-448.074c2.66-25.727-14.895-46.62-39.188-46.625L859.42,940.26
				c0.021-0.533,0.033-1.17,0.057-1.17h-16.378c-23.625,0-44.465,20.922-46.576,46.243l-36.786,441.756
				C757.701,1451.493,774.754,1471.336,797.855,1471.724z"/>
			
				<linearGradient id="SVGID_00000139281922919071923620000009540489327059733925_" gradientUnits="userSpaceOnUse" x1="1451.4707" y1="1121.6525" x2="1962.136" y2="1121.6525">
				<stop  offset="0" style="stop-color:#444B8C"/>
				<stop  offset="0.9964" style="stop-color:#3E4177"/>
			</linearGradient>
			<path style="fill:url(#SVGID_00000139281922919071923620000009540489327059733925_);" d="M1927.219,879.979l-388.229,0.636
				c-21.475,0.034-40.915,18.426-43.411,41.017l-43.854,396.7c-2.415,21.855,12.683,39.786,33.724,40.058l380.271,4.932
				c3.532,0.047,6.985-0.379,10.352-1.243c17.248-4.387,31.507-19.832,33.893-38.36l51.81-402.269
				C1964.727,898.538,1949.235,879.943,1927.219,879.979z"/>
			
				<linearGradient id="SVGID_00000123425957673227646910000013269597771249536143_" gradientUnits="userSpaceOnUse" x1="1178.3749" y1="1937.0126" x2="1901.3588" y2="1937.0126">
				<stop  offset="0" style="stop-color:#311944"/>
				<stop  offset="1" style="stop-color:#893976"/>
			</linearGradient>
			<path style="fill:url(#SVGID_00000123425957673227646910000013269597771249536143_);" d="M1850.962,1607.419l-554.483-11.289
				c-30.611-0.624-58.012,24.448-61.266,55.943l-56.541,547.326c-3.105,30.047,18.438,55.313,48.175,56.524l538.37,21.936
				c30.79,1.253,58.998-22.474,62.983-53.09l72.655-557.97C1905.038,1634.675,1882.688,1608.065,1850.962,1607.419z"/>
			<g>
				
					<linearGradient id="SVGID_00000079474923224584506040000000718926734241854098_" gradientUnits="userSpaceOnUse" x1="1164.7692" y1="905.3598" x2="-76.5341" y2="4655.9692">
					<stop  offset="0" style="stop-color:#AA80F9"/>
					<stop  offset="0.9964" style="stop-color:#6165D7"/>
				</linearGradient>
				<path style="fill:url(#SVGID_00000079474923224584506040000000718926734241854098_);" d="M1063.008,1736.637l-35.84,367.613
					c-1.976,20.267-19.698,36.076-39.543,35.321l-350.203-13.332c-19.392-0.738-33.811-17.556-32.208-37.571l29.075-362.965
					c1.388-17.33,13.848-31.662,29.506-35.531c2.983-0.745,6.097-1.111,9.274-1.034l356.968,8.683
					C1050.269,1698.315,1065.048,1715.718,1063.008,1736.637z"/>
				<g>
					<path style="fill:#FFFFFF;" d="M932.238,2011.171l-50.659-94.197c-0.511-0.95-1.47-1.542-2.551-1.576
						c-1.081-0.034-2.142,0.495-2.822,1.407l-38.703,51.953l-47.812-88.659c-0.512-0.949-1.468-1.54-2.545-1.573
						c-1.077-0.032-2.13,0.498-2.804,1.411l-90.773,123.084c-0.726,0.984-0.799,1.186-0.335,2.266
						c0.464,1.08,1.571,0.692,2.738,0.732l109.551,3.75l56.513,1.935l67.242,2.302c1.184,0.04,2.232,0.505,2.892-0.544
						C932.832,2012.413,932.795,2012.207,932.238,2011.171z"/>
					<path style="fill:#FFFFFF;" d="M928.93,1854.51c-1.735,18.751-17.843,33.484-35.964,32.935
						c-18.1-0.549-31.397-16.143-29.716-34.857c1.684-18.742,17.752-33.542,35.905-33.03
						C917.329,1820.069,930.667,1835.73,928.93,1854.51z"/>
				</g>
				
					<linearGradient id="SVGID_00000087386652518919602700000009569538860861886619_" gradientUnits="userSpaceOnUse" x1="605.0933" y1="1914.1854" x2="951.5466" y2="1914.1854">
					<stop  offset="0" style="stop-color:#AA80F9"/>
					<stop  offset="0.9964" style="stop-color:#6165D7"/>
				</linearGradient>
				<path style="opacity:0.2;fill:url(#SVGID_00000087386652518919602700000009569538860861886619_);" d="M951.547,2138.198
					l-314.124-11.958c-19.392-0.738-33.811-17.556-32.208-37.571l29.075-362.965c1.388-17.33,13.848-31.662,29.506-35.531
					c3.073,40.806,21.36,89.009,84.937,111.217c47.056,16.442,86.68,38.858,117.044,67.541c5.332,5.024,10.353,10.242,15.094,15.654
					c37.729,43.098,56.583,98.307,51.766,166.331C929.975,2088.477,938.45,2116.873,951.547,2138.198z"/>
			</g>
			<g>
				
					<linearGradient id="SVGID_00000143589933376711049360000014912945162003661981_" gradientUnits="userSpaceOnUse" x1="1641.2533" y1="826.088" x2="178.2629" y2="5246.5269">
					<stop  offset="0" style="stop-color:#FFC444"/>
					<stop  offset="0.9964" style="stop-color:#F36F56"/>
				</linearGradient>
				<path style="fill:url(#SVGID_00000143589933376711049360000014912945162003661981_);" d="M1303.893,2399.134l-38.891,367.74
					c-2.166,20.477-20.678,36.148-41.307,35.007l-362.114-20.039c-20.236-1.12-35.151-18.459-33.311-38.729l33.048-363.97
					c0.305-3.358,1.036-6.62,2.188-9.7c5.685-15.905,21.225-27.127,38.465-26.365l367.956,16.268
					C1290.893,2360.274,1306.116,2378.109,1303.893,2399.134z"/>
				<path style="fill:#FFFFFF;" d="M1132.243,2534.245c-5.107-13.524-15.414-21.483-25.37-29.173
					c-7.43-5.739-14.452-11.156-19.053-18.639l-0.827-1.333c-2.724-4.392-5.799-9.372-5.964-13.439
					c-0.159-4.116-3.565-7.2-7.623-7.155c-4.125,0.09-7.633,3.353-8.039,7.486l-13.678,139.383
					c-6.128-4.285-13.911-7.124-22.691-7.57c-21.396-1.085-40.14,11.975-41.785,29.104c-1.643,17.109,14.387,31.92,35.735,33.038
					c21.371,1.119,40.163-11.895,41.855-29.035l8.969-90.902c11.273,5.069,29.323,17.455,31.936,44.393
					c-1.129,1.402-2.221,2.915-3.437,4.11c-3.177,3.086-3.355,8.03-0.396,11.035c2.926,3.034,7.889,2.941,11.067-0.145
					c2.328-2.265,4.465-4.949,6.535-7.763c0.209-0.21,0.405-0.434,0.587-0.691c7.371-10.241,12.906-23.398,15.053-36.597
					C1136.49,2551.875,1135.497,2542.849,1132.243,2534.245z"/>
				
					<linearGradient id="SVGID_00000168832068628187245850000013577945319064936882_" gradientUnits="userSpaceOnUse" x1="828.1168" y1="2584.469" x2="1181.0326" y2="2584.469">
					<stop  offset="0" style="stop-color:#FFC444"/>
					<stop  offset="0.9964" style="stop-color:#F36F56"/>
				</linearGradient>
				<path style="opacity:0.2;fill:url(#SVGID_00000168832068628187245850000013577945319064936882_);" d="M1180.561,2799.494
					l-318.98-17.652c-20.236-1.12-35.151-18.459-33.311-38.729l33.048-363.97c0.305-3.358,1.036-6.62,2.188-9.7
					c12.172,35.911,39.103,70.814,94.237,90.659c39.038,14.061,73.829,31.342,103.704,51.879
					c27.413,18.904,50.645,40.568,69.115,65.068c37.268,49.378,55.171,110.177,49.409,182.905
					C1178.826,2774.205,1179.18,2786.32,1180.561,2799.494z"/>
			</g>
			<g>
				
					<linearGradient id="SVGID_00000168799171458762268700000017411638118542858631_" gradientUnits="userSpaceOnUse" x1="1133.3422" y1="819.3059" x2="-202.3925" y2="4855.2407">
					<stop  offset="0" style="stop-color:#FFC444"/>
					<stop  offset="0.9964" style="stop-color:#F36F56"/>
				</linearGradient>
				<path style="fill:url(#SVGID_00000168799171458762268700000017411638118542858631_);" d="M1289.777,965.337l-46.35,448.074
					c-2.563,24.78-23.904,44.506-47.643,44.107l-415.582-6.978c-23.101-0.388-40.154-20.448-38.119-44.854l36.787-441.171
					c2.112-25.323,22.95-45.882,46.576-45.878l425.145,0.074C1274.882,918.716,1292.438,939.61,1289.777,965.337z"/>
				<g>
					<g>
						<g>
							<path style="fill:#FFFFFF;" d="M910.92,1097.632c-26.904,18.919-37.251,53.978-23.196,78.339
								c14.042,24.339,47.194,28.894,74.132,10.141L910.92,1097.632z"/>
							<path style="fill:#FFFFFF;" d="M961.856,1186.113L961.856,1186.113l-50.936-88.48h0c12.556-8.829,28.615-5.795,35.849,6.784
								l24.796,43.117C978.784,1160.086,974.428,1177.361,961.856,1186.113z"/>
							<path style="fill:#FFFFFF;" d="M983.245,1226.087c-26.949,18.676-37.387,53.443-23.399,77.687
								c13.975,24.222,47.109,28.877,74.092,10.366L983.245,1226.087z"/>
							<path style="fill:#FFFFFF;" d="M1033.938,1314.14L1033.938,1314.14l-50.693-88.053l0,0
								c12.577-8.716,28.625-5.639,35.824,6.879l24.677,42.908C1050.931,1288.366,1046.531,1305.501,1033.938,1314.14z"/>
							<path style="fill:#FFFFFF;" d="M992.992,1290.643l-27.984,19.28c-37.947-32.195-64.606-78.372-80.017-138.69l27.929-19.551
								L992.992,1290.643z"/>
						</g>
					</g>
					<g>
						<g>
							<path style="fill:#FFFFFF;" d="M1066.376,1237.298c-2.272,1.232-4.952,1.435-7.28,0.309
								c-3.999-1.934-5.447-7.061-3.232-11.453c11.601-23.001,12.864-48.902,3.436-71.036
								c-9.516-22.338-28.421-37.413-51.841-41.338c-4.438-0.744-7.13-5.218-6.012-9.997c1.119-4.78,5.625-8.055,10.067-7.313
								c28.493,4.762,51.495,23.105,63.064,50.293c11.461,26.932,9.906,58.437-4.222,86.397
								C1069.429,1234.997,1068.008,1236.414,1066.376,1237.298z"/>
						</g>
						<g>
							<path style="fill:#FFFFFF;" d="M1104.122,1246.343c-2.278,1.232-4.964,1.435-7.295,0.308
								c-4.005-1.937-5.448-7.067-3.223-11.46c16.729-33.026,18.604-70.25,5.084-102.074c-13.652-32.134-40.835-53.807-74.52-59.416
								c-4.448-0.741-7.144-5.228-6.021-10.024c1.125-4.797,5.646-8.09,10.097-7.35c38.782,6.44,70.078,31.394,85.784,68.402
								c15.552,36.643,13.366,79.487-5.912,117.476C1107.184,1244.042,1105.758,1245.458,1104.122,1246.343z"/>
						</g>
					</g>
				</g>
				
					<linearGradient id="SVGID_00000014595412027907006830000001577598229640727954_" gradientUnits="userSpaceOnUse" x1="741.9176" y1="1187.9022" x2="1186.1895" y2="1187.9022">
					<stop  offset="0" style="stop-color:#FFC444"/>
					<stop  offset="0.9964" style="stop-color:#F36F56"/>
				</linearGradient>
				<path style="opacity:0.2;fill:url(#SVGID_00000014595412027907006830000001577598229640727954_);" d="M1186.189,1457.357
					l-405.988-6.817c-23.101-0.388-40.154-20.448-38.119-44.854l36.787-441.266c2.112-25.323,22.95-45.973,46.576-45.973h16.377
					c-2.173,48.163,9.653,113.185,87.766,139.285c30.813,10.286,58.511,23.245,82.662,38.84
					c26.787,17.236,49.125,37.849,66.384,61.806c10.48,14.568,19.105,30.38,25.7,47.44c3.314,8.505,6.084,17.368,8.383,26.5
					c6.472,26.117,8.712,54.817,6.347,86.17C1113.04,1398.138,1153.172,1438.111,1186.189,1457.357z"/>
			</g>
			<g>
				
					<linearGradient id="SVGID_00000029754839503256024460000015481630725012820643_" gradientUnits="userSpaceOnUse" x1="1729.2039" y1="557.5194" x2="1607.9308" y2="2194.7031">
					<stop  offset="0.0036" style="stop-color:#E38DDD"/>
					<stop  offset="1" style="stop-color:#9571F6"/>
				</linearGradient>
				<path style="fill:url(#SVGID_00000029754839503256024460000015481630725012820643_);" d="M1944.123,900.267l-51.811,402.268
					c-2.386,18.527-16.646,33.973-33.894,38.36c-3.367,0.863-6.819,1.289-10.352,1.244l-380.271-4.932
					c-21.041-0.273-36.139-18.203-33.723-40.059l43.853-396.701c2.497-22.59,21.936-40.981,43.412-41.016l388.229-0.636
					C1931.583,858.759,1947.074,877.354,1944.123,900.267z"/>
				<path style="fill:#FFFFFF;" d="M1618.97,1023.153l-13.313,147.173c-1.492,16.498,15.981,25.411,29.495,15.039l118.566-80.757
					c12.128-9.301,12.15-27.377,0.026-33.694l-105.206-66.436C1636.308,998.108,1620.321,1008.218,1618.97,1023.153z"/>
				
					<linearGradient id="SVGID_00000081649875299436907340000007484610352629275524_" gradientUnits="userSpaceOnUse" x1="1433.8174" y1="1100.7628" x2="1858.4178" y2="1100.7628">
					<stop  offset="0.0036" style="stop-color:#E38DDD"/>
					<stop  offset="1" style="stop-color:#9571F6"/>
				</linearGradient>
				<path style="opacity:0.2;fill:url(#SVGID_00000081649875299436907340000007484610352629275524_);" d="M1858.418,1340.895
					c-3.367,0.863-6.819,1.289-10.352,1.244l-380.271-4.932c-21.041-0.273-36.139-18.203-33.723-40.059l43.853-396.701
					c2.497-22.59,21.936-40.981,43.412-41.016l28.81-0.047c5.757,40.07,27.228,82.383,87.125,102.033
					c130.74,42.869,205.916,130.084,191.695,267.68C1823.592,1281.326,1838.251,1316.868,1858.418,1340.895z"/>
			</g>
			<g>
				
					<linearGradient id="SVGID_00000035512752364802878390000004110282117651567270_" gradientUnits="userSpaceOnUse" x1="1776.8262" y1="1122.6467" x2="492.8717" y2="5002.1274">
					<stop  offset="0" style="stop-color:#FF9085"/>
					<stop  offset="1" style="stop-color:#FB6FBB"/>
				</linearGradient>
				<path style="fill:url(#SVGID_00000035512752364802878390000004110282117651567270_);" d="M1883.202,1645.614l-72.654,557.971
					c-3.987,30.616-32.194,54.344-62.984,53.09l-538.371-21.934c-29.736-1.212-51.279-26.478-48.175-56.524l56.542-547.327
					c3.254-31.496,30.654-56.566,61.266-55.943l554.482,11.289C1865.035,1586.881,1887.385,1613.491,1883.202,1645.614z"/>
				<path style="fill:#FFFFFF;" d="M1665.184,1800.722l-299.291-8.076c-13.117-0.354-24.912,10.198-26.37,23.57l-20.786,190.633
					c-1.434,13.152,7.908,24.151,20.887,24.597l296.126,10.168c13.227,0.454,25.268-9.924,26.905-23.208l23.719-192.572
					C1688.038,1812.324,1678.554,1801.082,1665.184,1800.722z M1648.179,1849.555l-79.755,40.061l-43.235,21.695
					c-7.813,3.959-16.258,5.8-24.488,5.548c-8.227-0.252-16.173-2.594-23.031-6.996l-105.99-68.183
					c-3.376-2.162-4.142-6.867-1.715-10.484c2.461-3.619,7.156-4.797,10.533-2.6l106.115,68.192
					c9.264,5.992,22.138,6.381,32.772,0.985l39.316-19.774l83.678-42.085c3.954-1.975,8.415-0.494,10.021,3.27
					C1654.005,1842.946,1652.094,1847.618,1648.179,1849.555z"/>
				
					<linearGradient id="SVGID_00000092419156256328425170000006644767977084773546_" gradientUnits="userSpaceOnUse" x1="1160.7209" y1="1914.316" x2="1674.493" y2="1914.316">
					<stop  offset="0" style="stop-color:#FF9085"/>
					<stop  offset="1" style="stop-color:#FB6FBB"/>
				</linearGradient>
				<path style="opacity:0.2;fill:url(#SVGID_00000092419156256328425170000006644767977084773546_);" d="M1674.493,2253.697
					l-465.299-18.957c-29.736-1.212-51.279-26.478-48.175-56.524l56.542-547.327c3.254-31.496,30.654-56.566,61.266-55.943
					l27.079,0.551c-9.327,53.162-13.537,162.386,97.899,203.082c13.565,4.965,26.615,10.336,39.11,16.145
					c46.768,21.708,85.876,49.354,115.786,83.274c3.347,3.761,6.608,7.657,9.724,11.618c32.903,41.774,52.617,92.19,56.557,151.628
					c1.324,19.36,0.963,39.658-1.155,60.916C1616.241,2178.235,1643.529,2225.217,1674.493,2253.697z"/>
			</g>
		</g>
		<g>
			
				<linearGradient id="SVGID_00000168821308838822855730000017117002554020685953_" gradientUnits="userSpaceOnUse" x1="1307.0706" y1="2964.2104" x2="2156.7754" y2="2964.2104">
				<stop  offset="0" style="stop-color:#FF9085"/>
				<stop  offset="1" style="stop-color:#FB6FBB"/>
			</linearGradient>
			<path style="fill:url(#SVGID_00000168821308838822855730000017117002554020685953_);" d="M2021.116,3114.931
				c-34.937,20.809-71.264,39.135-107.472,57.55c37.331-12.237,195.26-70.525,197.861,14.128c0.089,3.045-0.03,5.942-0.384,8.72
				c-7.419,60.712-115.217,59.649-157.367,59.618c-51.431-0.059-101.916,0.739-152.608-2.305
				c-5.852-0.355-11.675-0.739-17.528-1.212c-6.739-0.532-13.508-1.153-20.277-1.862c-8.424-0.857-16.877-1.862-25.331-3.044
				l-3.932-2.217c-6.473,1.004-12.887,1.921-19.301,2.748c-6.237,0.857-12.444,1.625-18.622,2.306
				c-16.434,1.832-32.691,3.162-48.859,3.901c-56.338,2.749-111.671-1.123-169.545-13.183
				c-39.46-8.218-79.038-21.548-111.374-46.347c-28.524-21.932-81.699-91.246-49.037-128.873c2.069-2.423,4.493-4.669,7.301-6.798
				c41.765-31.569,115.867,31.301,147.701,53.707c7.745,5.44,39.755,34.731,50.633,31.185c9.931-3.223-2.542-15.667-7.153-21.341
				c-34.701-42.416-85.156-68.959-119.384-111.996c-29.293-36.829-59.944-115.423-16.582-154.381
				c4.848-4.344,9.784-7.33,14.779-9.104c51.756-18.533,110.666,89.029,128.016,119.769c19.626,34.761,35.529,72.713,58.347,105.582
				c8.956,12.887,21.134,29.025,31.302,9.725c11.705-22.199,2.897-61.747-1.359-84.595c-7.183-38.662-20.661-75.551-35.352-111.906
				c-23.764-58.969-54.564-127.968,5.232-176.354c15.193-12.325,36.357-25.064,58.998-28.504h0.03
				c45.932-13.761,98.014-7.201,119.059,37.194c16.612,34.967,7.774,78.423,0.326,114.513
				c-9.134,44.278-22.316,87.924-26.691,133.059c-2.424,25.302-5.202,63.381,12.917,84.455
				c12.177,14.218,24.947,10.055,32.927-5.612c12.799-25.183,9.104-60.754,9.843-87.948c1.034-38.366,2.778-78.098,18.178-113.833
				c16.789-39.017,76.437-91.278,124.025-77.858c9.636,2.689,18.77,8.068,26.957,16.817c48.8,52.081-43.096,165.406-68.811,208.767
				c-17.469,29.499-41.795,63.992-47.677,98.605c-3.459,20.247,5.349,22.76,20.867,11.202
				c27.252-20.307,47.648-52.584,68.752-78.713c27.164-33.608,55.48-68.014,91.157-92.989
				c35.322-24.681,102.714-40.258,126.537-1.094c4.729,7.804,7.744,17.765,8.424,30.238
				C2160.66,3029.037,2074.262,3083.305,2021.116,3114.931z"/>
			<path style="opacity:0.5;fill:#FFFFFF;" d="M1930.433,2763.813c-3.931,4.787-8.305,9.694-13.094,14.749
				c-74.871,78.802-76.851,128.075-108.389,258.13c-20.366,84.063-36.652,165.672-45.609,212.877
				c-8.424-0.857-16.877-1.862-25.331-3.044l-3.932-2.217c-6.473,1.004-12.887,1.921-19.301,2.748
				c2.867-28.642,0.059-76.496-41.795-107.887c-63.047-47.293-35.47-145.839-19.686-204.955c15.755-59.116,0-94.213-33.518-155.279
				c-18.622-33.963-0.089-71.568,20.04-99.09h0.03c45.932-13.761,98.014-7.201,119.059,37.194
				c16.612,34.967,7.774,78.423,0.326,114.513c-9.134,44.278-22.316,87.924-26.691,133.059
				c-2.424,25.302-5.202,63.381,12.917,84.455c12.177,14.218,24.947,10.055,32.927-5.612c12.799-25.183,9.104-60.754,9.843-87.948
				c1.034-38.366,2.778-78.098,18.178-113.833C1823.196,2802.657,1882.845,2750.393,1930.433,2763.813z"/>
			<path style="opacity:0.5;fill:#FFFFFF;" d="M2021.116,3114.931c-34.937,20.809-71.264,39.135-107.472,57.55
				c37.331-12.237,195.26-70.525,197.861,14.128c0.089,3.045-0.03,5.942-0.384,8.72c-17.144,1.625-35.323,0.03-49.687-9.37
				c-38.425-25.124-42.12,8.867-79.068,20.691s-101.236-4.434-135.967,20.691c-17.233,12.472-33.371,20.454-45.254,25.302
				c-5.852-0.355-11.675-0.739-17.528-1.212c6.651-21.458,28.997-80.782,78.536-106.35c61.096-31.538,94.586-41.381,114.301-106.409
				c17.233-56.869,87.226-109.218,171.761-112.261c4.729,7.804,7.744,17.765,8.424,30.238
				C2160.66,3029.037,2074.262,3083.305,2021.116,3114.931z"/>
			<path style="opacity:0.5;fill:#FFFFFF;" d="M1696.156,3249.362c-16.434,1.832-32.691,3.162-48.859,3.901
				c-2.513-11.587,15.902-26.868-35.204-37.746c-83.442-17.735-131.149,15.459-163.249-63.55
				c-24.149-59.412-83.885-98.043-131.504-87.108c2.069-2.423,4.493-4.669,7.301-6.798c41.765-31.569,115.867,31.301,147.701,53.707
				c7.745,5.44,39.755,34.731,50.633,31.185c9.931-3.223-2.542-15.667-7.153-21.341c-34.701-42.416-85.156-68.959-119.384-111.996
				c-29.293-36.829-59.944-115.423-16.582-154.381c4.848-4.344,9.784-7.33,14.779-9.104c-2.128,37.333,3.459,99.405,55.688,135.879
				c78.329,54.682,91.63,100.497,94.586,130.055C1547.657,3139.671,1670.441,3162.135,1696.156,3249.362z"/>
		</g>
	</g>
</g>
</svg>
