<svg width="127" height="128" viewBox="0 0 127 128" fill="none" xmlns="http://www.w3.org/2000/svg">
<g opacity="0.5" clip-path="url(#clip0_44_27)">
<path d="M64.818 124.636C98.4069 124.636 125.636 97.4069 125.636 63.818C125.636 30.2291 98.4069 3 64.818 3C31.2291 3 4 30.2291 4 63.818C4 97.4069 31.2291 124.636 64.818 124.636Z" fill="#25AB79"/>
<path d="M71 50.5L77 56.5L71 62.5" stroke="white" stroke-width="3" stroke-linecap="round" stroke-linejoin="round"/>
<path d="M62 56.5H77" stroke="white" stroke-width="3" stroke-linecap="round" stroke-linejoin="round"/>
<path d="M59 65.5L53 71.5L59 77.5" stroke="white" stroke-width="3" stroke-linecap="round" stroke-linejoin="round"/>
<path d="M53 71.5H66.5" stroke="white" stroke-width="3" stroke-linecap="round" stroke-linejoin="round"/>
<path d="M117.692 12.4634C121.133 12.4634 123.923 9.67334 123.923 6.23168C123.923 2.79002 121.133 0 117.692 0C114.25 0 111.46 2.79002 111.46 6.23168C111.46 9.67334 114.25 12.4634 117.692 12.4634Z" fill="#25AB79"/>
<path d="M6.23168 92.0551C9.67334 92.0551 12.4634 89.2651 12.4634 85.8235C12.4634 82.3818 9.67334 79.5918 6.23168 79.5918C2.79002 79.5918 0 82.3818 0 85.8235C0 89.2651 2.79002 92.0551 6.23168 92.0551Z" fill="#25AB79"/>
<path d="M11.8323 70.2047C14.0977 70.2047 15.9342 68.3682 15.9342 66.1028C15.9342 63.8374 14.0977 62.001 11.8323 62.001C9.56694 62.001 7.73047 63.8374 7.73047 66.1028C7.73047 68.3682 9.56694 70.2047 11.8323 70.2047Z" fill="white"/>
<path d="M22.7968 127.631C24.3651 127.631 25.6365 126.36 25.6365 124.791C25.6365 123.223 24.3651 121.952 22.7968 121.952C21.2284 121.952 19.957 123.223 19.957 124.791C19.957 126.36 21.2284 127.631 22.7968 127.631Z" fill="white"/>
<path d="M123.923 24.1381C125.622 24.1381 126.999 22.7608 126.999 21.0617C126.999 19.3627 125.622 17.9854 123.923 17.9854C122.224 17.9854 120.847 19.3627 120.847 21.0617C120.847 22.7608 122.224 24.1381 123.923 24.1381Z" fill="white"/>
<path d="M108.462 4.33843C109.377 4.33843 110.119 3.59678 110.119 2.68191C110.119 1.76704 109.377 1.02539 108.462 1.02539C107.547 1.02539 106.806 1.76704 106.806 2.68191C106.806 3.59678 107.547 4.33843 108.462 4.33843Z" fill="white"/>
<path d="M96.7093 126.053C109.822 126.053 120.453 115.423 120.453 102.31C120.453 89.1967 109.822 78.5664 96.7093 78.5664C83.5961 78.5664 72.9658 89.1967 72.9658 102.31C72.9658 115.423 83.5961 126.053 96.7093 126.053Z" fill="#F3F4F6"/>
<path d="M96.7097 122.741C107.993 122.741 117.14 113.594 117.14 102.31C117.14 91.0269 107.993 81.8799 96.7097 81.8799C85.4263 81.8799 76.2793 91.0269 76.2793 102.31C76.2793 113.594 85.4263 122.741 96.7097 122.741Z" fill="#25AB79"/>
<path d="M95.384 112.4H97.664V110.216C101.168 109.856 102.896 107.816 102.896 105.152C102.896 101.888 100.136 100.928 97.664 100.304V96.92C98.744 97.184 99.776 97.688 100.64 98.48L102.536 95.984C101.24 94.808 99.608 94.064 97.664 93.848V91.568H95.384V93.8C92.144 94.136 90.224 96.2 90.224 98.624C90.224 101.888 92.912 102.8 95.384 103.424V107.216C93.752 106.928 92.456 106.088 91.568 105.152L89.72 107.744C91.016 109.064 92.864 110.024 95.384 110.24V112.4ZM99.44 105.536C99.44 106.28 98.84 106.976 97.664 107.216V104C98.696 104.336 99.44 104.744 99.44 105.536ZM93.704 98.336C93.704 97.52 94.304 96.92 95.384 96.776V99.704C94.376 99.416 93.704 99.032 93.704 98.336Z" fill="#F3F4F6"/>
</g>
<defs>
<clipPath id="clip0_44_27">
<rect width="127" height="128" fill="white"/>
</clipPath>
</defs>
</svg>
