<svg width="127" height="128" viewBox="0 0 127 128" fill="none" xmlns="http://www.w3.org/2000/svg">
<g clip-path="url(#clip0_44_9)">
<mask id="mask0_44_9" style="mask-type:luminance" maskUnits="userSpaceOnUse" x="0" y="0" width="127" height="128">
<path d="M127 0H0V127.552H127V0Z" fill="white"/>
</mask>
<g mask="url(#mask0_44_9)">
<path d="M64.818 124.636C98.4069 124.636 125.636 97.4069 125.636 63.818C125.636 30.2291 98.4069 3 64.818 3C31.2291 3 4 30.2291 4 63.818C4 97.4069 31.2291 124.636 64.818 124.636Z" fill="#25AB79" fill-opacity="0.7"/>
<path d="M65.2346 63.6469C70.1077 63.6469 74.0581 59.6965 74.0581 54.8235C74.0581 49.9504 70.1077 46 65.2346 46C60.3615 46 56.4111 49.9504 56.4111 54.8235C56.4111 59.6965 60.3615 63.6469 65.2346 63.6469Z" stroke="white" stroke-width="3" stroke-linecap="round" stroke-linejoin="round"/>
<path d="M52 81.9998V77.5881C52 75.248 52.9296 73.0037 54.5843 71.349C56.2391 69.6943 58.4833 68.7646 60.8235 68.7646H69.6469C71.9871 68.7646 74.2313 69.6943 75.8861 71.349C77.5408 73.0037 78.4704 75.248 78.4704 77.5881V81.9998" stroke="white" stroke-width="3" stroke-linecap="round" stroke-linejoin="round"/>
<path d="M117.692 12.4634C121.133 12.4634 123.923 9.67334 123.923 6.23168C123.923 2.79002 121.133 0 117.692 0C114.25 0 111.46 2.79002 111.46 6.23168C111.46 9.67334 114.25 12.4634 117.692 12.4634Z" fill="#25AB79"/>
<path d="M6.23168 92.0551C9.67334 92.0551 12.4634 89.2651 12.4634 85.8235C12.4634 82.3818 9.67334 79.5918 6.23168 79.5918C2.79002 79.5918 0 82.3818 0 85.8235C0 89.2651 2.79002 92.0551 6.23168 92.0551Z" fill="#25AB79"/>
<path d="M11.8323 70.2047C14.0977 70.2047 15.9342 68.3682 15.9342 66.1028C15.9342 63.8374 14.0977 62.001 11.8323 62.001C9.56694 62.001 7.73047 63.8374 7.73047 66.1028C7.73047 68.3682 9.56694 70.2047 11.8323 70.2047Z" fill="#25AB79"/>
<path d="M22.7968 127.631C24.3651 127.631 25.6365 126.359 25.6365 124.791C25.6365 123.223 24.3651 121.951 22.7968 121.951C21.2284 121.951 19.957 123.223 19.957 124.791C19.957 126.359 21.2284 127.631 22.7968 127.631Z" fill="#25AB79"/>
<path d="M123.923 24.1381C125.622 24.1381 126.999 22.7608 126.999 21.0617C126.999 19.3627 125.622 17.9854 123.923 17.9854C122.224 17.9854 120.847 19.3627 120.847 21.0617C120.847 22.7608 122.224 24.1381 123.923 24.1381Z" fill="#25AB79"/>
<path d="M108.462 4.33843C109.377 4.33843 110.119 3.59678 110.119 2.68191C110.119 1.76704 109.377 1.02539 108.462 1.02539C107.547 1.02539 106.806 1.76704 106.806 2.68191C106.806 3.59678 107.547 4.33843 108.462 4.33843Z" fill="#25AB79"/>
<path d="M96.7093 126.053C109.822 126.053 120.453 115.423 120.453 102.31C120.453 89.1967 109.822 78.5664 96.7093 78.5664C83.5961 78.5664 72.9658 89.1967 72.9658 102.31C72.9658 115.423 83.5961 126.053 96.7093 126.053Z" fill="#F3F4F6"/>
<path d="M96.7097 122.741C107.993 122.741 117.14 113.594 117.14 102.31C117.14 91.0269 107.993 81.8799 96.7097 81.8799C85.4263 81.8799 76.2793 91.0269 76.2793 102.31C76.2793 113.594 85.4263 122.741 96.7097 122.741Z" fill="#25AB79"/>
<path d="M96.709 92.0557V111.54" stroke="#F3F4F6" stroke-width="2" stroke-miterlimit="10" stroke-linecap="round"/>
<path d="M106.49 102.31H87.2432" stroke="#F3F4F6" stroke-width="2" stroke-miterlimit="10" stroke-linecap="round"/>
</g>
</g>
<defs>
<clipPath id="clip0_44_9">
<rect width="127" height="128" fill="white"/>
</clipPath>
</defs>
</svg>
