<svg width="48" height="48" viewBox="0 0 48 48" fill="none" xmlns="http://www.w3.org/2000/svg">
<g clip-path="url(#clip0_44_45)">
<path d="M0.5 24C0.5 36.9787 11.0213 47.5 24 47.5C36.9787 47.5 47.5 36.9787 47.5 24C47.5 11.0213 36.9787 0.5 24 0.5C11.0213 0.5 0.5 11.0213 0.5 24Z" fill="#F3F4F6" stroke="#25AB79"/>
<path d="M17.44 20.016C17.552 18.544 18.12 17.392 19.144 16.56C20.168 15.728 21.496 15.312 23.128 15.312C24.216 15.312 25.152 15.512 25.936 15.912C26.736 16.296 27.336 16.824 27.736 17.496C28.152 18.168 28.36 18.928 28.36 19.776C28.36 20.768 28.072 21.624 27.496 22.344C26.936 23.064 26.2 23.528 25.288 23.736V23.856C26.328 24.112 27.152 24.616 27.76 25.368C28.368 26.12 28.672 27.104 28.672 28.32C28.672 29.232 28.464 30.056 28.048 30.792C27.632 31.512 27.008 32.08 26.176 32.496C25.344 32.912 24.344 33.12 23.176 33.12C21.48 33.12 20.088 32.68 19 31.8C17.912 30.904 17.304 29.64 17.176 28.008H19.288C19.4 28.968 19.792 29.752 20.464 30.36C21.136 30.968 22.032 31.272 23.152 31.272C24.272 31.272 25.12 30.984 25.696 30.408C26.288 29.816 26.584 29.056 26.584 28.128C26.584 26.928 26.184 26.064 25.384 25.536C24.584 25.008 23.376 24.744 21.76 24.744H21.208V22.92H21.784C23.256 22.904 24.368 22.664 25.12 22.2C25.872 21.72 26.248 20.984 26.248 19.992C26.248 19.144 25.968 18.464 25.408 17.952C24.864 17.44 24.08 17.184 23.056 17.184C22.064 17.184 21.264 17.44 20.656 17.952C20.048 18.464 19.688 19.152 19.576 20.016H17.44Z" fill="#25AB79"/>
</g>
<defs>
<clipPath id="clip0_44_45">
<rect width="48" height="48" fill="white"/>
</clipPath>
</defs>
</svg>
