<svg width="48" height="48" viewBox="0 0 48 48" fill="none" xmlns="http://www.w3.org/2000/svg">
<g clip-path="url(#clip0_44_6)">
<path d="M0.5 24C0.5 36.9787 11.0213 47.5 24 47.5C36.9787 47.5 47.5 36.9787 47.5 24C47.5 11.0213 36.9787 0.5 24 0.5C11.0213 0.5 0.5 11.0213 0.5 24Z" fill="#F3F4F6" stroke="#25AB79"/>
<path d="M18.224 31.248C20.256 29.616 21.848 28.28 23 27.24C24.152 26.184 25.12 25.088 25.904 23.952C26.704 22.8 27.104 21.672 27.104 20.568C27.104 19.528 26.848 18.712 26.336 18.12C25.84 17.512 25.032 17.208 23.912 17.208C22.824 17.208 21.976 17.552 21.368 18.24C20.776 18.912 20.456 19.816 20.408 20.952H18.296C18.36 19.16 18.904 17.776 19.928 16.8C20.952 15.824 22.272 15.336 23.888 15.336C25.536 15.336 26.84 15.792 27.8 16.704C28.776 17.616 29.264 18.872 29.264 20.472C29.264 21.8 28.864 23.096 28.064 24.36C27.28 25.608 26.384 26.712 25.376 27.672C24.368 28.616 23.08 29.72 21.512 30.984H29.768V32.808H18.224V31.248Z" fill="#25AB79"/>
</g>
<defs>
<clipPath id="clip0_44_6">
<rect width="48" height="48" fill="white"/>
</clipPath>
</defs>
</svg>
