<?xml version="1.0" encoding="utf-8"?>
<!-- Generator: Adobe Illustrator 27.5.0, SVG Export Plug-In . SVG Version: 6.00 Build 0)  -->
<svg version="1.1" xmlns="http://www.w3.org/2000/svg" xmlns:xlink="http://www.w3.org/1999/xlink" x="0px" y="0px"
	 viewBox="0 0 3710 3710" style="enable-background:new 0 0 3710 3710;" xml:space="preserve">
<g id="Background">
	<g>
		<g>
			<rect style="fill:#FFFFFF;" width="3710" height="3710"/>
		</g>
	</g>
</g>
<g id="Illustration">
	<g>
		<path style="fill:#F4F7FA;" d="M3145.174,2289.182c-205.94,233.684-549.679,210.639-548.918,320.797
			c0.841,121.638,419.909,142.144,427.729,256.637c10.596,155.132-735.813,453.497-1515.041,331.328
			c-268.458-42.089-522.633-82.752-741.901-280.853c-600.896-542.886-160.823-1692.099-89.1-1882.313
			c141.753-375.937,317.302-497.144,371.622-534.927c282.627-196.586,607.832-164.288,898.23-135.447
			c219.891,21.838,549.193,58.992,849.796,306.86c51.264,42.271,164.333,142.72,266.236,302.075
			C3311.403,1360.501,3420.819,1976.402,3145.174,2289.182z"/>
		<g>
			<g>
				<g>
					<linearGradient id="SVGID_1_" gradientUnits="userSpaceOnUse" x1="2500.9844" y1="2598.4038" x2="1307.5831" y2="1580.3777">
						<stop  offset="0" style="stop-color:#444B8C"/>
						<stop  offset="0.9964" style="stop-color:#26264F"/>
					</linearGradient>
					<path style="fill:url(#SVGID_1_);" d="M2231.217,472.289v2474.516c0,37.004-31.646,46.157-67.564,48.681L909.848,3107.374
						l-19.34,1.365c-39.717,2.804-72.301-26.856-72.301-65.918V430.699c0-39.063,32.584-69.978,72.301-68.703l26.243,0.842
						l1258.072,95.976C2210.731,459.938,2231.217,435.284,2231.217,472.289z"/>
					
						<linearGradient id="SVGID_00000167397308474681529150000004277280229271932821_" gradientUnits="userSpaceOnUse" x1="-1242.7738" y1="2904.8506" x2="3203.5352" y2="3070.2495" gradientTransform="matrix(0 -1 1 0 -1389.0323 1734.3226)">
						<stop  offset="0" style="stop-color:#444B8C"/>
						<stop  offset="0.9964" style="stop-color:#26264F"/>
					</linearGradient>
					<path style="fill:url(#SVGID_00000167397308474681529150000004277280229271932821_);" d="M2269.495,472.229v2473.163
						c0,36.984-29.279,69.312-65.156,71.846l-1274.073,89.971c-39.673,2.802-72.221-26.843-72.221-65.884V430.661
						c0-39.041,32.547-69.938,72.221-68.665l1274.073,40.897C2240.217,404.044,2269.495,435.244,2269.495,472.229z"/>
					
						<linearGradient id="SVGID_00000054950909740537624980000011078680690505415595_" gradientUnits="userSpaceOnUse" x1="1934.3615" y1="1243.7998" x2="438.3852" y2="3255.2424">
						<stop  offset="0" style="stop-color:#FFC444"/>
						<stop  offset="0.9964" style="stop-color:#F36F56"/>
					</linearGradient>
					<path style="fill:url(#SVGID_00000054950909740537624980000011078680690505415595_);" d="M2229.048,608.331v2292.417
						c0,34.55-27.392,64.696-60.952,66.997l-1197.982,82.152c-36.888,2.53-67.146-25.138-67.146-61.489V576.438
						c0-36.351,30.257-65.291,67.146-64.313l1197.982,31.772C2201.656,544.787,2229.048,573.782,2229.048,608.331z"/>
				</g>
				<path style="fill:#DE8BDF;" d="M1606.501,460.323c0,13.155-10.58,23.521-23.643,23.152
					c-13.076-0.369-23.686-11.353-23.686-24.532c0-13.179,10.61-23.544,23.686-23.15
					C1595.921,436.185,1606.501,447.168,1606.501,460.323z"/>
			</g>
			<polygon style="opacity:0.64;fill:#FFFFFF;" points="1532.684,2304.008 1007.536,2325.348 1007.536,1854.945 1532.684,1841.808 
							"/>
			<polygon style="opacity:0.64;fill:#FFFFFF;" points="2133.146,2279.606 1629.279,2300.082 1629.279,1839.392 2133.146,1826.787 
							"/>
			<polygon style="opacity:0.64;fill:#FFFFFF;" points="1532.684,2872.112 1007.536,2903.537 1007.536,2433.133 1532.684,2409.913 
							"/>
			<polygon style="opacity:0.64;fill:#FFFFFF;" points="2133.146,2836.18 1629.279,2866.332 1629.279,2405.641 2133.146,2383.362 
							"/>
			<g style="opacity:0.64;">
				<path style="fill:#FFFFFF;" d="M1347.781,1599.467c0,90.081-75.497,164.668-169.156,166.606
					c-94.249,1.951-171.089-70.319-171.089-161.429s76.84-165.717,171.089-166.635
					C1272.285,1437.097,1347.781,1509.387,1347.781,1599.467z"/>
				<path style="fill:#FFFFFF;" d="M1745.712,1593.413c0,88.877-73.489,162.446-164.652,164.332
					c-91.729,1.898-166.508-69.415-166.508-159.294c0-89.878,74.78-163.467,166.508-164.36
					C1672.223,1433.204,1745.712,1504.537,1745.712,1593.413z"/>
				<path style="fill:#FFFFFF;" d="M2133.146,1587.519c0,87.704-71.561,160.283-160.325,162.12
					c-89.308,1.848-162.108-68.535-162.108-157.214c0-88.68,72.801-161.278,162.108-162.147
					C2061.584,1429.413,2133.146,1499.815,2133.146,1587.519z"/>
			</g>
		</g>
		<g>
			<g>
				
					<linearGradient id="SVGID_00000041983055371610295400000012795328078793506434_" gradientUnits="userSpaceOnUse" x1="937.1037" y1="925.7667" x2="4481.019" y2="4199.8359">
					<stop  offset="0" style="stop-color:#FFC444"/>
					<stop  offset="0.9964" style="stop-color:#F36F56"/>
				</linearGradient>
				<path style="opacity:0.3;fill:url(#SVGID_00000041983055371610295400000012795328078793506434_);" d="M3025.146,2770.293
					l18.877-41.58c7.076-15.587,2.878-34.302-9.398-41.844l-48.877-30.03c13.238-37.516,22.502-77.184,27.177-118.225l54.559-3.826
					c14.062-0.986,25.427-15.687,25.427-32.838v-45.612c0-17.151-11.365-30.406-25.427-29.602l-53.129,3.038
					c-3.66-41.37-12.099-80.811-24.656-117.613l44.927-33.322c1.437-1.065,2.752-2.281,3.962-3.601l5.744,14.927l73.795-90.745
					l-96.341-8.22c-4.228-5.473-9.911-8.765-15.93-9.48c-5.37-0.637-10.993,0.758-16.051,4.434l-44.377,32.251
					c-20.657-33.15-45.313-62.714-73.244-87.778l3.343-6.981l67.831,13.856l8.614-112.295l-103.011-17
					c-11.847-4.567-25.242,1.215-31.76,14.658l-25.601,52.802c-32.9-16.355-5.636-33.578-43.029-38.563l39.109-57.593
					c0-17.945-114.553-29.904-130.028-29.904h-41.424c-15.678,0-28.428,14.748-28.428,32.941v61.669
					c-38.691,5.911-75.995,18.226-111.07,36.055l70.753-51.985c0,0-124.624-23.608-138.802-14.241l-37.924,25.057
					c-14.344,9.477-19.268,30.216-10.972,46.269l28.685,55.508c-31.396,27.958-44.758,44.09-68.52,81.001l-66.632-15.042
					c-14.719-9.043-33.608-2.909-42.163,13.756l-22.827,44.469c-8.613,16.778-3.5,37.661,11.392,46.587l53.723,32.204
					c-14.895,41.375-24.957,85.405-29.335,131.105l-64.453,3.685c-17.35,0.992-31.462,17.315-31.462,36.456v50.901
					c0,17.356,11.616,30.875,26.715,32.346l-0.006,0.022l73.246,11.719c6.064,38.081,16.23,74.214,29.962,107.823l-58.39,42.435
					c-14.891,10.822-20.005,32.355-11.392,48.037l22.827,41.563c8.555,15.576,144.308,25.049,144.308,25.049l-43.101-60.453
					c23.586,31.669,51.016,59.116,81.449,81.531l-34.025,70.174c-8.296,17.109-3.371,37.222,10.972,44.872l37.924,20.229
					c2.396,1.278,4.907,2.086,7.458,2.522l-0.151,0.71l118.311,14.579l11.572-89.281c13.764,2.113,27.752,3.391,41.929,3.776v76.388
					c0,13.581,7.109,24.331,17.234,28.081l-0.517,2.232l117.213,14.634l2.346-144.831c21.452-8.147,42.13-18.251,61.878-30.105
					l31.247,60.468c3.881,7.511,10.207,11.964,17.187,13.082l-0.003,0.023l113.281,15.331l-38.798-106.771l-15.656,4.807
					l-25.815-50.624c27.142-26.954,51.303-57.728,71.854-91.415l50.555,30.305
					C3002.212,2792.698,3018.025,2785.978,3025.146,2770.293z M2636.986,2731.169c-110.905,9.878-202.89-87.432-202.89-217.577
					s91.985-239.012,202.89-243.068c108.171-3.956,193.922,93.748,193.922,218.141
					C2830.909,2613.057,2745.157,2721.535,2636.986,2731.169z M3110.652,2481.271l76.742-36.325l-76.742-9.312V2481.271z
					 M3016.453,2791.303l87.791,11.842l12.815-29.934l-72.728-44.208L3016.453,2791.303z"/>
				
					<linearGradient id="SVGID_00000044178521523862083800000007547092502998383514_" gradientUnits="userSpaceOnUse" x1="2778.0364" y1="3338.6152" x2="2667.0093" y2="1599.1805">
					<stop  offset="0" style="stop-color:#FFC444"/>
					<stop  offset="0.9964" style="stop-color:#F36F56"/>
				</linearGradient>
				<path style="fill:url(#SVGID_00000044178521523862083800000007547092502998383514_);" d="M3180.606,2443.605l-52.828,3.052
					c-3.64-41.25-12.03-80.577-24.516-117.269l44.672-33.247c12.207-9.085,16.381-28.281,9.345-42.923l-18.771-39.057
					c-7.08-14.733-22.803-19.42-35.141-10.422l-44.125,32.179c-20.539-33.047-45.056-62.515-72.827-87.496l25.388-53.182
					c7.284-15.258,2.963-34.575-9.674-43.193l-33.792-23.044c-12.777-8.712-29.17-3.366-36.593,11.99l-25.456,52.662
					c-32.712-16.293-68.066-27.403-105.362-32.359v-60.81c0-17.94-12.434-32.477-27.821-32.47l-41.187,0.019
					c-15.588,0.007-28.265,14.719-28.265,32.859v61.492c-38.469,5.912-75.559,18.207-110.431,36l-27.514-54.099
					c-8.086-15.899-26.047-21.252-40.143-11.905l-37.705,25.002c-14.26,9.456-19.157,30.138-10.909,46.14l28.519,55.335
					c-31.215,27.892-59.123,60.766-82.764,97.603l-51.606-31.776c-14.634-9.01-33.414-2.885-41.919,13.734l-22.695,44.35
					c-8.563,16.733-3.479,37.553,11.326,46.447l53.412,32.087c-14.808,41.261-24.813,85.168-29.165,130.738l-64.079,3.702
					c-17.249,0.996-31.28,17.278-31.28,36.363v50.753c0,19.084,14.031,33.563,31.28,32.343l65.781-4.654
					c5.552,43.956,16.52,85.481,32.103,123.727l-58.052,42.335c-14.805,10.797-19.889,32.27-11.326,47.902l22.695,41.434
					c8.505,15.527,27.285,19.238,41.919,8.347l58.702-43.689c23.45,31.568,50.721,58.925,80.979,81.263l-33.829,69.985
					c-8.248,17.063-3.352,37.115,10.908,44.738l37.706,20.157c14.096,7.535,32.057-0.126,40.143-17.064l33.537-70.252
					c33.111,11.975,68.147,18.775,104.408,19.749v76.169c0,18.14,12.677,31.223,28.265,29.227l41.187-5.274
					c15.387-1.97,27.821-18.105,27.821-36.045v-75.325c35.173-9.135,68.617-23.524,99.748-42.276l31.07,60.283
					c7.423,14.402,23.816,17.641,36.593,7.287l33.792-27.385c12.637-10.242,16.958-30.115,9.674-44.437l-30.15-59.282
					c26.988-26.888,51.011-57.583,71.446-91.182l50.268,30.198c12.338,7.411,28.061,0.704,35.141-14.938l18.771-41.47
					c7.036-15.545,2.862-34.205-9.345-41.721l-48.6-29.924c13.163-37.415,22.375-76.974,27.022-117.9l54.25-3.838
					c13.982-0.989,25.282-15.653,25.282-32.756v-45.482C3205.888,2456.009,3194.588,2442.797,3180.606,2443.605z M2752.562,2747.346
					c-110.269,9.894-201.724-87.099-201.724-216.869c0-129.77,91.456-238.363,201.724-242.455
					c107.552-3.992,192.814,93.396,192.814,217.434C2945.376,2629.494,2860.114,2737.696,2752.562,2747.346z"/>
			</g>
			<g style="opacity:0.3;">
				
					<linearGradient id="SVGID_00000070090323347429558240000013350882584263081611_" gradientUnits="userSpaceOnUse" x1="174.3941" y1="2048.1211" x2="3778.2415" y2="5377.5591">
					<stop  offset="0" style="stop-color:#AA80F9"/>
					<stop  offset="0.9964" style="stop-color:#6165D7"/>
				</linearGradient>
				<path style="fill:url(#SVGID_00000070090323347429558240000013350882584263081611_);" d="M1070.006,2918.613
					c0-41.722-14.996-72.542-45.12-92.549c-30.308-20.113-85.31-39.768-165.807-59.104c-81.76-19.625-147.411-40.357-196.3-62.103
					c-135.59-60.517-204.684-150.421-204.684-268.555c0-61.395,18.608-116.685,55.656-165.609
					c36.783-48.575,89.177-86.664,156.713-114.238c66.686-27.219,140.544-41.088,221.274-41.831
					c79.994-0.736,150.229,12.534,211.111,39.532c60.145,26.69,106.375,64.572,139.05,113.632
					c32.463,48.752-47.334,131.243-47.334,194.309l-123.808-17.763c0-49.082-15.746-86.734-47.385-113.058
					c-31.835-26.488-76.891-39.024-135.513-37.473c-57.211,1.513-102.104,14.432-134.367,38.857
					c-32.468,24.577-48.774,56.253-48.774,94.893c0,36.111,19.109,65.502,57.125,88.07c37.737,22.408,92.809,42.237,164.661,59.431
					c129.752,30.891,222.262,72.093,279.44,123.768c56.542,51.096,84.574,117.26,84.574,198.912
					c0,90.781-34.288,165.572-103.56,224.954c-70.247,60.224-166.36,97.745-289.796,112.205
					c-87.458,10.246-168.401,4.128-242.485-18.723c-75.138-23.177-133.164-60.384-173.497-111.688
					c-40.649-51.678-61.073-114.489-61.073-188.116l249.148-20.594l125.98,17.927c0,0-27.143,156.626,101.927,143.713
					c54.94-5.496,97.416-20.504,127.724-44.954C1055.01,2988.153,1070.006,2956.906,1070.006,2918.613z"/>
				
					<linearGradient id="SVGID_00000022547233589634961790000002439418876086376850_" gradientUnits="userSpaceOnUse" x1="727.4952" y1="1635.0177" x2="3886.6377" y2="4553.6123">
					<stop  offset="0" style="stop-color:#AA80F9"/>
					<stop  offset="0.9964" style="stop-color:#6165D7"/>
				</linearGradient>
				<path style="fill:url(#SVGID_00000022547233589634961790000002439418876086376850_);" d="M2125.855,2530.367l-487.375,164.989
					v271.201l431.154-42.389l117.983,17.015l-633.123,231.773l-120.564-37.448V2123.842l634.482-6.752l117.002,16.992
					l-546.935,156.562v241.297l369.823-19.68L2125.855,2530.367z"/>
			</g>
			<g>
				
					<linearGradient id="SVGID_00000115497596154899315030000005069355974794473108_" gradientUnits="userSpaceOnUse" x1="301.7342" y1="2067.9446" x2="3889.1431" y2="5382.1958">
					<stop  offset="0" style="stop-color:#AA80F9"/>
					<stop  offset="0.9964" style="stop-color:#6165D7"/>
				</linearGradient>
				<path style="fill:url(#SVGID_00000115497596154899315030000005069355974794473108_);" d="M1192.96,2934.783
					c0-41.598-14.907-72.32-44.852-92.255c-30.127-20.041-84.801-39.615-164.816-58.861
					c-81.27-19.533-146.527-40.177-195.123-61.837c-134.774-60.279-203.451-149.882-203.451-267.659
					c0-61.209,18.495-116.34,55.32-165.132c36.561-48.445,88.64-86.442,155.77-113.962c66.285-27.166,139.701-41.027,219.948-41.804
					c79.516-0.77,149.333,12.429,209.852,39.32c59.788,26.584,105.743,64.333,138.224,113.232
					c32.271,48.594,48.331,104.139,48.331,166.871l-218.456,9.224c0-48.936-15.653-86.469-47.103-112.701
					c-31.645-26.395-76.432-38.874-134.704-37.302c-56.868,1.533-101.492,14.433-133.562,38.799
					c-32.273,24.516-48.481,56.105-48.481,94.629c0,36.003,18.994,65.297,56.782,87.781c37.511,22.325,92.253,42.071,163.675,59.185
					c128.978,30.744,220.938,71.786,277.776,123.283c56.206,50.922,84.073,116.878,84.073,198.288
					c0,90.511-34.085,165.093-102.946,224.325c-69.83,60.071-165.37,97.515-288.07,111.978
					c-86.935,10.247-167.393,4.177-241.031-18.578c-74.686-23.079-132.362-60.152-172.452-111.287
					c-40.404-51.506-60.704-114.119-60.704-187.524l247.646-20.629c0,122.594,76.608,176.169,226.541,161.066
					c54.611-5.501,96.834-20.479,126.962-44.868C1178.053,3004.122,1192.96,2972.962,1192.96,2934.783z"/>
				
					<linearGradient id="SVGID_00000032617467321509870370000005437019928551890830_" gradientUnits="userSpaceOnUse" x1="816.8431" y1="1681.0975" x2="3991.9585" y2="4614.4487">
					<stop  offset="0" style="stop-color:#AA80F9"/>
					<stop  offset="0.9964" style="stop-color:#6165D7"/>
				</linearGradient>
				<path style="fill:url(#SVGID_00000032617467321509870370000005437019928551890830_);" d="M2125.735,2685.934l-367.661,26.027
					v270.403l428.636-42.433v159.623l-631.981,73.578V2142.218l630.767-7.017v160.969l-427.422,12.267v240.588l367.661-19.778
					V2685.934z"/>
			</g>
			<g>
				
					<linearGradient id="SVGID_00000157307806239686099200000001805051641183091860_" gradientUnits="userSpaceOnUse" x1="1577.8538" y1="1940.8578" x2="4372.2852" y2="4522.5112">
					<stop  offset="0" style="stop-color:#FFC444"/>
					<stop  offset="0.9964" style="stop-color:#F36F56"/>
				</linearGradient>
				<path style="opacity:0.3;fill:url(#SVGID_00000157307806239686099200000001805051641183091860_);" d="M2493.46,2709.445
					c-43.077-1.126-83.059,4.497-120.855,13.867c1.304,3.434,2.602,6.873,3.981,10.256l-57.17,41.691
					c-14.58,10.633-19.587,31.78-11.154,47.175l22.35,40.804c8.376,15.291,26.871,18.946,41.282,8.221l57.811-43.025
					c23.094,31.089,49.951,58.03,79.749,80.029l-33.315,68.921c-8.123,16.804-3.301,36.552,10.743,44.059l37.133,19.851
					c13.882,7.421,31.57-0.125,39.533-16.805l33.028-69.184c32.608,11.793,67.112,18.49,102.822,19.449v75.011
					c0,17.865,12.485,30.749,27.836,28.783l40.561-5.194c15.154-1.94,27.398-17.83,27.398-35.497v-74.18
					c34.638-8.996,67.575-23.167,98.233-41.635l30.597,59.367c7.297,14.158,23.397,17.358,35.97,7.224
					C2772.439,2768.021,2612.926,2712.566,2493.46,2709.445z"/>
				
					<linearGradient id="SVGID_00000114068237155021002490000007542337748989146553_" gradientUnits="userSpaceOnUse" x1="-107.7712" y1="1884.4037" x2="2946.5959" y2="4706.2007">
					<stop  offset="0" style="stop-color:#AA80F9"/>
					<stop  offset="0.9964" style="stop-color:#6165D7"/>
				</linearGradient>
				<path style="opacity:0.3;fill:url(#SVGID_00000114068237155021002490000007542337748989146553_);" d="M795.808,2175.077
					c-67.129,27.521-119.208,65.518-155.77,113.962c-36.825,48.792-55.32,103.923-55.32,165.132
					c0,117.777,68.677,207.38,203.451,267.659c48.595,21.66,113.852,42.304,195.123,61.837
					c80.015,19.245,134.689,38.82,164.816,58.861c29.945,19.935,44.852,50.657,44.852,92.255c0,38.178-14.907,69.338-44.852,93.583
					c-30.127,24.389-72.35,39.367-126.962,44.868c-149.932,15.103-226.541-38.472-226.541-161.066l-247.646,20.629
					c0,73.405,20.301,136.017,60.704,187.524c40.09,51.134,97.766,88.208,172.452,111.287
					c73.638,22.755,154.096,28.824,241.031,18.578c122.7-14.463,218.24-51.907,288.07-111.978
					c68.861-59.232,102.946-133.814,102.946-224.325c0-81.41-27.867-147.366-84.073-198.288
					c-56.839-51.497-148.798-92.539-277.776-123.283c-71.422-17.113-126.164-36.859-163.675-59.185
					c-37.788-22.483-56.782-51.778-56.782-87.781c0-38.524,16.208-70.113,48.481-94.629c8.503-6.46,17.914-12.09,28.176-16.939
					c-33.637-36.245-64.647-89.227-83.18-169.049C814.031,2167.938,804.847,2171.372,795.808,2175.077z"/>
				
					<linearGradient id="SVGID_00000143592033704463522150000017873216999677694614_" gradientUnits="userSpaceOnUse" x1="264.1252" y1="1481.8535" x2="3318.4949" y2="4303.6533">
					<stop  offset="0" style="stop-color:#AA80F9"/>
					<stop  offset="0.9964" style="stop-color:#6165D7"/>
				</linearGradient>
				<path style="fill:url(#SVGID_00000143592033704463522150000017873216999677694614_);" d="M1189.753,2422.453
					c2.607,12.219,3.953,25.353,3.953,39.467l218.456-9.224c0-11.209-0.536-22.179-1.562-32.931
					C1334.881,2412.662,1260.388,2420.034,1189.753,2422.453z"/>
				
					<linearGradient id="SVGID_00000093874536101932347040000018431653411023170944_" gradientUnits="userSpaceOnUse" x1="616.5717" y1="1897.8792" x2="3791.6875" y2="4831.231">
					<stop  offset="0" style="stop-color:#AA80F9"/>
					<stop  offset="0.9964" style="stop-color:#6165D7"/>
				</linearGradient>
				<path style="opacity:0.3;fill:url(#SVGID_00000093874536101932347040000018431653411023170944_);" d="M1630.652,2498.102
					c-25.195-17.687-50.536-31.682-75.924-42.714v717.744l631.981-73.578v-159.623l-428.636,42.433V2711.96l36.973-2.617
					C1753.78,2648.152,1733.9,2570.581,1630.652,2498.102z"/>
			</g>
		</g>
		<g>
			
				<linearGradient id="SVGID_00000072971954076126851100000010103159823250259873_" gradientUnits="userSpaceOnUse" x1="2039.499" y1="844.4795" x2="3925.2031" y2="2586.5996">
				<stop  offset="0" style="stop-color:#FF9085"/>
				<stop  offset="1" style="stop-color:#FB6FBB"/>
			</linearGradient>
			<path style="opacity:0.3;fill:url(#SVGID_00000072971954076126851100000010103159823250259873_);" d="M3150.539,1825.946
				l10.044-22.125c3.765-8.294,1.532-18.252-5-22.265l-26.008-15.979c7.043-19.963,11.973-41.069,14.46-62.907l29.031-2.036
				c7.482-0.525,13.529-8.347,13.529-17.473v-24.27c0-9.126-6.047-16.179-13.529-15.751l-28.27,1.616
				c-1.948-22.013-6.438-43-13.119-62.582l23.906-17.731c0.765-0.568,1.459-1.223,2.104-1.926l3.06,7.952l39.266-48.285
				l-51.263-4.374c-2.25-2.912-5.273-4.664-8.476-5.044c-2.857-0.339-5.85,0.403-8.541,2.359l-23.613,17.16
				c-10.992-17.639-24.111-33.37-38.973-46.706l1.779-3.715l36.092,7.373l4.583-59.752l-54.813-9.046
				c-6.303-2.429-13.431,0.647-16.899,7.8l-13.623,28.095c-17.506-8.702-2.999-17.867-22.896-20.519l20.81-30.645
				c0-9.549-60.953-15.912-69.188-15.912h-22.042c-8.342,0-15.127,7.848-15.127,17.528v32.814
				c-20.587,3.146-40.436,9.698-59.1,19.185l37.647-27.661c0,0-66.312-12.562-73.856-7.578l-20.179,13.333
				c-7.632,5.042-10.252,16.078-5.839,24.62l15.263,29.535c-16.705,14.877-23.816,23.46-36.459,43.1l-35.455-8.004
				c-7.832-4.812-17.883-1.548-22.434,7.319l-12.146,23.662c-4.583,8.928-1.863,20.04,6.062,24.789l28.586,17.135
				c-7.926,22.016-13.28,45.444-15.609,69.761l-34.295,1.961c-9.232,0.528-16.741,9.213-16.741,19.398v27.085
				c0,9.235,6.181,16.428,14.215,17.211l-0.003,0.012l38.974,6.236c3.227,20.263,8.636,39.489,15.942,57.372l-31.069,22.579
				c-7.924,5.759-10.645,17.217-6.062,25.561l12.146,22.115c4.552,8.288,76.785,13.329,76.785,13.329l-22.935-32.167
				c12.55,16.851,27.146,31.455,43.339,43.382l-18.105,37.34c-4.414,9.103-1.793,19.805,5.838,23.876l20.18,10.764
				c1.274,0.68,2.611,1.11,3.968,1.342l-0.08,0.377l62.953,7.757l6.159-47.514c7.324,1.124,14.765,1.813,22.309,2.017v40.646
				c0,7.226,3.783,12.946,9.17,14.942l-0.275,1.187l62.369,7.786l1.248-77.064c11.415-4.335,22.417-9.711,32.925-16.019
				l16.627,32.175c2.065,3.996,5.431,6.366,9.145,6.961l-0.002,0.012l60.276,8.157l-20.644-56.812l-8.331,2.557l-13.736-26.937
				c14.442-14.342,27.298-30.717,38.234-48.641l26.9,16.125C3138.336,1837.867,3146.75,1834.291,3150.539,1825.946z M2944,1805.127
				c-59.012,5.256-107.957-46.522-107.957-115.772c0-69.25,48.945-127.178,107.957-129.336
				c57.557-2.105,103.185,49.883,103.185,116.072S3001.558,1800.001,2944,1805.127z M3196.036,1672.158l40.834-19.328l-40.834-4.954
				V1672.158z M3145.913,1837.125l46.713,6.301l6.819-15.928l-38.698-23.523L3145.913,1837.125z"/>
			
				<linearGradient id="SVGID_00000041984147712258388130000017399075937762961803_" gradientUnits="userSpaceOnUse" x1="2960.8784" y1="1458.0068" x2="3088.0723" y2="2450.1138">
				<stop  offset="0" style="stop-color:#FF9085"/>
				<stop  offset="1" style="stop-color:#FB6FBB"/>
			</linearGradient>
			<path style="fill:url(#SVGID_00000041984147712258388130000017399075937762961803_);" d="M3233.259,1652.116l-28.11,1.624
				c-1.936-21.949-6.401-42.875-13.045-62.398l23.77-17.691c6.496-4.834,8.716-15.049,4.972-22.839l-9.987-20.783
				c-3.768-7.839-12.134-10.333-18.699-5.545l-23.478,17.122c-10.929-17.584-23.974-33.264-38.751-46.556l13.509-28.298
				c3.876-8.119,1.577-18.398-5.148-22.983l-17.981-12.261c-6.798-4.636-15.521-1.791-19.47,6.38l-13.545,28.021
				c-17.406-8.669-36.218-14.581-56.062-17.218v-32.357c0-9.546-6.616-17.281-14.803-17.277l-21.915,0.01
				c-8.294,0.004-15.04,7.832-15.04,17.484v32.719c-20.469,3.146-40.204,9.688-58.76,19.156l-14.64-28.786
				c-4.303-8.46-13.859-11.308-21.36-6.335l-20.063,13.303c-7.587,5.032-10.193,16.036-5.804,24.551l15.175,29.444
				c-16.609,14.841-31.459,32.333-44.039,51.935l-27.46-16.908c-7.786-4.794-17.779-1.535-22.305,7.308l-12.076,23.598
				c-4.556,8.904-1.851,19.982,6.026,24.715l28.421,17.073c-7.88,21.955-13.203,45.318-15.519,69.565l-34.097,1.969
				c-9.178,0.53-16.644,9.194-16.644,19.349v27.006c0,10.155,7.466,17.859,16.644,17.21l35.002-2.476
				c2.955,23.389,8.79,45.484,17.082,65.835l-30.889,22.526c-7.878,5.745-10.583,17.171-6.026,25.489l12.076,22.047
				c4.525,8.262,14.518,10.237,22.305,4.442l31.236-23.247c12.477,16.797,26.988,31.354,43.088,43.24l-18,37.239
				c-4.388,9.079-1.783,19.749,5.804,23.805l20.063,10.726c7.501,4.009,17.057-0.067,21.36-9.08l17.845-37.381
				c17.618,6.372,36.261,9.99,55.555,10.508v40.529c0,9.652,6.746,16.614,15.04,15.551l21.915-2.806
				c8.187-1.048,14.803-9.634,14.803-19.179v-40.08c18.715-4.86,36.511-12.517,53.075-22.495l16.532,32.076
				c3.95,7.663,12.672,9.386,19.471,3.877l17.98-14.572c6.724-5.449,9.024-16.023,5.148-23.645l-16.042-31.543
				c14.36-14.307,27.143-30.64,38.016-48.518l26.747,16.068c6.565,3.944,14.931,0.375,18.699-7.948l9.987-22.066
				c3.744-8.272,1.523-18.201-4.972-22.2l-25.86-15.923c7.004-19.908,11.905-40.957,14.378-62.734l28.866-2.042
				c7.44-0.526,13.452-8.329,13.452-17.429v-24.201C3246.711,1658.716,3240.698,1651.686,3233.259,1652.116z M3005.498,1813.735
				c-58.673,5.264-107.337-46.345-107.337-115.395s48.663-126.832,107.337-129.009c57.228-2.124,102.596,49.696,102.596,115.696
				C3108.094,1751.026,3062.726,1808.6,3005.498,1813.735z"/>
		</g>
		<g>
			<g>
				<path style="opacity:0.64;fill:#FFFFFF;" d="M1029.216,651.497v669.214c0,22.218,17.231,39.856,38.429,39.398l1202.218-25.98
					c17.747-0.383,32.099-17.111,32.099-37.366V686.708L1029.216,651.497z"/>
				
					<linearGradient id="SVGID_00000087406283511522136740000002623205919613740978_" gradientUnits="userSpaceOnUse" x1="1764.2976" y1="490.4537" x2="1229.1285" y2="1365.3392">
					<stop  offset="0" style="stop-color:#FF9085"/>
					<stop  offset="1" style="stop-color:#FB6FBB"/>
				</linearGradient>
				<path style="fill:url(#SVGID_00000087406283511522136740000002623205919613740978_);" d="M2269.863,608.186l-1202.218-40.353
					c-21.199-0.712-38.429,16.721-38.429,38.938v68.573l1272.746,33.102v-62.511C2301.962,625.682,2287.61,608.782,2269.863,608.186
					z"/>
				<path style="fill:#FFFFFF;" d="M1117.209,622.824c0,9.818-7.58,17.559-16.942,17.291c-9.374-0.268-16.982-8.463-16.982-18.303
					c0-9.841,7.609-17.581,16.982-17.29C1109.629,604.813,1117.209,613.007,1117.209,622.824z"/>
			</g>
			<g>
				<polygon style="fill:#FFFFFF;" points="1292,1268.931 1196.419,1270.413 1196.419,773.973 1292,775.825 				"/>
				
					<linearGradient id="SVGID_00000016059022985181595520000016294147110564233647_" gradientUnits="userSpaceOnUse" x1="1297.6608" y1="985.0165" x2="1170.4828" y2="1381.9008">
					<stop  offset="0" style="stop-color:#FF9085"/>
					<stop  offset="1" style="stop-color:#FB6FBB"/>
				</linearGradient>
				<polygon style="fill:url(#SVGID_00000016059022985181595520000016294147110564233647_);" points="1292,1268.931 
					1196.419,1270.413 1196.419,1034.714 1292,1034.815 				"/>
				<polygon style="fill:#FFFFFF;" points="1422.867,1266.902 1329.053,1268.356 1329.053,776.543 1422.867,778.362 				"/>
				
					<linearGradient id="SVGID_00000043419645992282507000000003475666028928289929_" gradientUnits="userSpaceOnUse" x1="1405.5872" y1="1116.797" x2="1335.1299" y2="1336.6727">
					<stop  offset="0" style="stop-color:#FF9085"/>
					<stop  offset="1" style="stop-color:#FB6FBB"/>
				</linearGradient>
				<polygon style="fill:url(#SVGID_00000043419645992282507000000003475666028928289929_);" points="1422.867,1266.902 
					1329.053,1268.356 1329.053,1151.605 1422.867,1150.928 				"/>
				<polygon style="fill:#FFFFFF;" points="1551.333,1264.911 1459.238,1266.339 1459.238,779.067 1551.333,780.852 				"/>
				
					<linearGradient id="SVGID_00000114040370915456298110000012608172415079452309_" gradientUnits="userSpaceOnUse" x1="1523.6304" y1="1178.0118" x2="1480.0315" y2="1314.0707">
					<stop  offset="0" style="stop-color:#FF9085"/>
					<stop  offset="1" style="stop-color:#FB6FBB"/>
				</linearGradient>
				<polygon style="fill:url(#SVGID_00000114040370915456298110000012608172415079452309_);" points="1551.333,1264.911 
					1459.238,1266.339 1459.238,1205.61 1551.333,1204.583 				"/>
				<polygon style="fill:#FFFFFF;" points="1677.464,1262.955 1587.041,1264.357 1587.041,781.544 1677.464,783.297 				"/>
				
					<linearGradient id="SVGID_00000017512964028015337300000015794068799002340002_" gradientUnits="userSpaceOnUse" x1="1713.7855" y1="820.1015" x2="1519.7725" y2="1425.5577">
					<stop  offset="0" style="stop-color:#FF9085"/>
					<stop  offset="1" style="stop-color:#FB6FBB"/>
				</linearGradient>
				<polygon style="fill:url(#SVGID_00000017512964028015337300000015794068799002340002_);" points="1677.464,1262.955 
					1587.041,1264.357 1587.041,886.13 1677.464,887.199 				"/>
				<polygon style="fill:#FFFFFF;" points="1801.322,1261.035 1712.526,1262.412 1712.526,783.976 1801.322,785.698 				"/>
				
					<linearGradient id="SVGID_00000163049419604888258800000007509378693998932903_" gradientUnits="userSpaceOnUse" x1="1829.1785" y1="870.1345" x2="1657.2576" y2="1406.6476">
					<stop  offset="0" style="stop-color:#FF9085"/>
					<stop  offset="1" style="stop-color:#FB6FBB"/>
				</linearGradient>
				<polygon style="fill:url(#SVGID_00000163049419604888258800000007509378693998932903_);" points="1801.322,1261.035 
					1712.526,1262.412 1712.526,930.204 1801.322,930.979 				"/>
				<polygon style="fill:#FFFFFF;" points="1922.968,1259.149 1835.756,1260.501 1835.756,786.365 1922.968,788.056 				"/>
				
					<linearGradient id="SVGID_00000101090826325838808900000010792997290196547216_" gradientUnits="userSpaceOnUse" x1="1966.0709" y1="786.634" x2="1759.7513" y2="1430.4952">
					<stop  offset="0" style="stop-color:#FF9085"/>
					<stop  offset="1" style="stop-color:#FB6FBB"/>
				</linearGradient>
				<polygon style="fill:url(#SVGID_00000101090826325838808900000010792997290196547216_);" points="1922.968,1259.149 
					1835.756,1260.501 1835.756,855.305 1922.968,856.553 				"/>
				<polygon style="fill:#FFFFFF;" points="2042.462,1257.297 1956.791,1258.625 1956.791,788.711 2042.462,790.372 				"/>
				
					<linearGradient id="SVGID_00000028286455765198174620000008117170656821486735_" gradientUnits="userSpaceOnUse" x1="2062.9941" y1="915.8885" x2="1912.236" y2="1386.3589">
					<stop  offset="0" style="stop-color:#FF9085"/>
					<stop  offset="1" style="stop-color:#FB6FBB"/>
				</linearGradient>
				<polygon style="fill:url(#SVGID_00000028286455765198174620000008117170656821486735_);" points="2042.462,1257.297 
					1956.791,1258.625 1956.791,969.984 2042.462,970.491 				"/>
				<polygon style="fill:#FFFFFF;" points="2159.859,1255.477 2075.689,1256.782 2075.689,791.016 2159.859,792.647 				"/>
				
					<linearGradient id="SVGID_00000171716651426466914640000005396171257721094810_" gradientUnits="userSpaceOnUse" x1="2155.728" y1="1056.834" x2="2065.4595" y2="1338.5349">
					<stop  offset="0" style="stop-color:#FF9085"/>
					<stop  offset="1" style="stop-color:#FB6FBB"/>
				</linearGradient>
				<polygon style="fill:url(#SVGID_00000171716651426466914640000005396171257721094810_);" points="2159.859,1255.477 
					2075.689,1256.782 2075.689,1095.077 2159.859,1094.792 				"/>
			</g>
		</g>
		<g>
			
				<linearGradient id="SVGID_00000144328107164418600510000014434328122569747126_" gradientUnits="userSpaceOnUse" x1="-2562.3755" y1="2097.8611" x2="-2473.1809" y2="2097.8611" gradientTransform="matrix(-1 0 0 1 -434.6348 0)">
				<stop  offset="0" style="stop-color:#40447E"/>
				<stop  offset="0.9964" style="stop-color:#3C3B6B"/>
			</linearGradient>
			<path style="fill:url(#SVGID_00000144328107164418600510000014434328122569747126_);" d="M2115.596,2079.786
				c10.352,10.446,14.547,21.658,10.787,28.229c-2.598,4.541-8.344,5.726-14.64,6.935c-9.94,1.907-20.301,1.393-41.607-4.623
				c-19.89-5.618-31.58-8.918-31.59-13.696c-0.01-4.472,10.217-7.946,19.193-10.996c12.688-4.311,23.824-5.53,31.465-5.849
				C2098.002,2079.786,2106.799,2079.786,2115.596,2079.786z"/>
			
				<linearGradient id="SVGID_00000144297803917407575720000006014988386268536736_" gradientUnits="userSpaceOnUse" x1="-2253.5605" y1="1944.5182" x2="-2194.5903" y2="1944.5182" gradientTransform="matrix(-1 0 0 1 -434.6348 0)">
				<stop  offset="0" style="stop-color:#40447E"/>
				<stop  offset="0.9964" style="stop-color:#3C3B6B"/>
			</linearGradient>
			<path style="fill:url(#SVGID_00000144297803917407575720000006014988386268536736_);" d="M1806.303,1910.383
				c4.661,2.015,10.64,5.566,12.233,11.433c2.516,9.262-7.385,18.826-23.219,33.741c-11.881,11.192-27.927,26.306-33.512,22.494
				c-3.42-2.335-1.399-10.732,0.482-18.548c2.265-9.409,7.271-23.967,19.671-39.925
				C1781.958,1919.579,1781.958,1919.579,1806.303,1910.383z"/>
			
				<linearGradient id="SVGID_00000054954289298168979780000001077766445988391324_" gradientUnits="userSpaceOnUse" x1="-2518.8345" y1="2093.5356" x2="-2486.4741" y2="2160.5681" gradientTransform="matrix(-1 0 0 1 -434.6348 0)">
				<stop  offset="0" style="stop-color:#311944"/>
				<stop  offset="1" style="stop-color:#A03976"/>
			</linearGradient>
			<path style="fill:url(#SVGID_00000054954289298168979780000001077766445988391324_);" d="M2092.884,2056.77l22.279,24.703
				c2.287,2.537,1.143,6.614-2.148,7.532c-4.879,1.362-11.681,2.466-17.924,0.698c-1.372-0.388-2.583-1.215-3.604-2.212
				l-22.233-21.713L2092.884,2056.77z"/>
			
				<linearGradient id="SVGID_00000147902951922005616860000005054745717554560899_" gradientUnits="userSpaceOnUse" x1="-2207.3257" y1="1828.1899" x2="-2256.8135" y2="2048.6353" gradientTransform="matrix(-1 0 0 1 -434.6348 0)">
				<stop  offset="0" style="stop-color:#311944"/>
				<stop  offset="1" style="stop-color:#A03976"/>
			</linearGradient>
			<path style="fill:url(#SVGID_00000147902951922005616860000005054745717554560899_);" d="M1793.96,1895.467l12.012,17.308
				c1.702,2.453,0.887,5.817-1.728,7.259c-1.727,0.952-3.788,1.962-5.941,2.741c-3.49,1.263-7.4,0.321-9.865-2.454l-13.028-14.667
				L1793.96,1895.467z"/>
			
				<linearGradient id="SVGID_00000056392020706847026190000005449744337702523531_" gradientUnits="userSpaceOnUse" x1="-2220.0583" y1="1996.8357" x2="-2448.678" y2="1768.2162" gradientTransform="matrix(-1 0 0 1 -434.6348 0)">
				<stop  offset="0" style="stop-color:#AB316D"/>
				<stop  offset="1" style="stop-color:#792D3D"/>
			</linearGradient>
			<path style="fill:url(#SVGID_00000056392020706847026190000005449744337702523531_);" d="M2009.672,1532.94
				c-11.419,23.864-25.182,58.284-33.531,101.354c-3.512,18.114-19.941,109.327,15.373,219.243
				c32.866,102.298,93.402,167.416,125.61,197.608c-4.561,3.858-10.878,8.39-19.051,12.193c-13.085,6.088-25.049,7.575-32.705,7.885
				c-98.366-70.218-146.065-149.772-167.719-193.067c-73.054-146.066-54.727-289.462-22.793-350.108
				c10.486-19.915,22.331-30.699,35.748-35.497C1953.662,1477.153,2003.591,1526.751,2009.672,1532.94z"/>
			
				<linearGradient id="SVGID_00000176734941144848790950000002218633552058312628_" gradientUnits="userSpaceOnUse" x1="-2220.0583" y1="1996.8357" x2="-2448.678" y2="1768.2162" gradientTransform="matrix(-1 0 0 1 -434.6348 0)">
				<stop  offset="0" style="stop-color:#AB316D"/>
				<stop  offset="1" style="stop-color:#792D3D"/>
			</linearGradient>
			<path style="opacity:0.3;fill:url(#SVGID_00000176734941144848790950000002218633552058312628_);" d="M1874.855,1528.047
				c10.486-19.915,22.331-30.699,35.748-35.497c43.059-15.397,92.987,34.201,99.069,40.39
				c-11.258,23.529-24.771,57.358-33.152,99.583c-30.082,7.072-72.11,23.848-92.589,63.499
				c-33.134,64.15,14.502,141.033,24.386,156.986c21.755,35.113,34.93,31.821,67.062,82.303
				c24.269,38.128,26.122,54.729,47.248,73.159c24.837,21.667,55.852,28.018,80.896,29.398c4.913,4.991,9.491,9.427,13.6,13.278
				c-4.561,3.858-10.878,8.39-19.051,12.193c-13.085,6.088-25.049,7.575-32.705,7.885
				c-98.366-70.218-146.065-149.772-167.719-193.067C1824.594,1732.089,1842.921,1588.693,1874.855,1528.047z"/>
			
				<linearGradient id="SVGID_00000127001866655818066050000002876255185760725636_" gradientUnits="userSpaceOnUse" x1="-2068.6643" y1="1845.4424" x2="-2297.2839" y2="1616.8226" gradientTransform="matrix(-1 0 0 1 -434.6348 0)">
				<stop  offset="0" style="stop-color:#AB316D"/>
				<stop  offset="1" style="stop-color:#792D3D"/>
			</linearGradient>
			<path style="fill:url(#SVGID_00000127001866655818066050000002876255185760725636_);" d="M1954.041,1527.605
				c-5.292,10.75-14.488,26.792-29.72,42.676c-38.609,40.261-74.71,36.452-115.612,69.615c-5.042,4.087-41.268,34.131-54.648,77.962
				c-25.755,84.37,49.088,167.568,57.375,176.525c-4.811,4.457-12.084,10.223-22.001,15.018c-9.124,4.411-17.454,6.537-23.624,7.621
				c-107.307-98.047-159.74-216.862-124.033-294.068c19.478-42.113,65.59-72.734,99.647-95.348
				c55.685-36.976,108.829-53.769,143.431-61.969C1907.918,1486.292,1930.979,1506.949,1954.041,1527.605z"/>
			
				<linearGradient id="SVGID_00000033365490453951042180000004147389183575075756_" gradientUnits="userSpaceOnUse" x1="-2368.6133" y1="1129.9111" x2="-2495.1162" y2="1520.0881" gradientTransform="matrix(-1 0 0 1 -434.6348 0)">
				<stop  offset="0" style="stop-color:#AA80F9"/>
				<stop  offset="0.9964" style="stop-color:#6165D7"/>
			</linearGradient>
			<path style="fill:url(#SVGID_00000033365490453951042180000004147389183575075756_);" d="M1890.028,1303.811
				c-1.616,47.446,9.384,72.051-6.022,110.774c-11.07,27.824-29.412,46.947-43.33,58.833c7.922,15.2,26.374,45.544,62.4,69.248
				c43.522,28.637,86.809,30.553,103.803,30.408c36.005-18.527,90.617-53.44,134.452-115.616
				c29.715-42.147,62.339-88.423,53.707-147.413c-10.966-74.941-80.408-114.975-100.097-126.327
				c-12.959-7.471-102.455-59.067-157.156-21.143C1893.798,1193.069,1891.236,1268.323,1890.028,1303.811z"/>
			
				<linearGradient id="SVGID_00000148636240008717847440000010839008791999908245_" gradientUnits="userSpaceOnUse" x1="-1955.798" y1="1391.1083" x2="-1994.9897" y2="1351.9165" gradientTransform="matrix(-1 0 0 1 -434.6348 0)">
				<stop  offset="0" style="stop-color:#311944"/>
				<stop  offset="1" style="stop-color:#A03976"/>
			</linearGradient>
			<path style="fill:url(#SVGID_00000148636240008717847440000010839008791999908245_);" d="M1590.917,1357.664
				c-1.432-7.664-6.919-13.229-10.05-16.389c-3.635-3.668-4.379-3.09-6.75-6.091c-5.971-7.558-4.527-15.362-6.824-15.623
				c-1.996-0.227-5.502,5.394-5.263,11.207c0.266,6.498,5.015,8.435,4.119,12.037c-1.259,5.065-12.513,8.745-22.481,6.859
				c-11.557-2.188-17.196-11.505-21.719-9.145c-3.283,1.713-3.072,7.847-3.048,8.383c0.504,11.502,15.871,23.573,30.863,25.148
				c8.632,0.907,11.861-2.221,22.1,0.381c6.791,1.725,9.165,4.066,12.574,2.668
				C1590.022,1374.807,1592.286,1364.991,1590.917,1357.664z"/>
			
				<linearGradient id="SVGID_00000036957439463087147690000005143836819596953771_" gradientUnits="userSpaceOnUse" x1="-2201.5081" y1="1184.0891" x2="-2328.0115" y2="1574.2678" gradientTransform="matrix(-1 0 0 1 -434.6348 0)">
				<stop  offset="0" style="stop-color:#AA80F9"/>
				<stop  offset="0.9964" style="stop-color:#6165D7"/>
			</linearGradient>
			<path style="fill:url(#SVGID_00000036957439463087147690000005143836819596953771_);" d="M1589.266,1353.599
				c92.402,6.398,147.593-17.636,180.863-40.643c75.474-52.194,90.284-135.175,177.815-157.494
				c15.963-4.07,43.763-11.158,58.934,3.048c31.521,29.521-5.65,137.724-71.127,204.234c-14.458,14.687-66.556,66.06-152.532,77.659
				c-110.198,14.866-189.247-47.322-202.884-58.42c-4.321-4.868-5.637-11.683-3.392-17.66
				C1580.099,1355.921,1588.572,1353.764,1589.266,1353.599z"/>
			
				<linearGradient id="SVGID_00000148639414110002299000000006273893812204443042_" gradientUnits="userSpaceOnUse" x1="-2374.251" y1="1128.0824" x2="-2500.7542" y2="1518.2606" gradientTransform="matrix(-1 0 0 1 -434.6348 0)">
				<stop  offset="0" style="stop-color:#AA80F9"/>
				<stop  offset="0.9964" style="stop-color:#6165D7"/>
			</linearGradient>
			<path style="opacity:0.3;fill:url(#SVGID_00000148639414110002299000000006273893812204443042_);" d="M2046.506,1498.9
				c26.02-24.646,13.702-39.92,45.724-89.416c32.619-50.422,56.097-51.357,71.125-85.351c7.774-17.585,12.572-42.841,4.002-79.122
				c13.182,17.759,23.913,39.289,27.681,65.034c8.632,58.99-23.992,105.266-53.707,147.413
				c-43.835,62.177-98.448,97.09-134.452,115.616c-16.993,0.146-60.28-1.77-103.803-30.408
				c-16.147-10.625-28.741-22.579-38.461-33.91c13.29,7.319,28.839,13.713,46.751,17.577
				C1920.045,1528.207,1998.82,1544.069,2046.506,1498.9z"/>
			
				<linearGradient id="SVGID_00000124860517230109301160000007439730425207296148_" gradientUnits="userSpaceOnUse" x1="-2533.9363" y1="1228.3063" x2="-2432.3276" y2="1060.6517" gradientTransform="matrix(-1 0 0 1 -434.6348 0)">
				<stop  offset="0" style="stop-color:#311944"/>
				<stop  offset="1" style="stop-color:#A03976"/>
			</linearGradient>
			<path style="fill:url(#SVGID_00000124860517230109301160000007439730425207296148_);" d="M2070.37,1132.395l7.528,25.431
				c2.408,8.136,7.292,15.319,13.974,20.55l19.975,15.64c0,0-60.922-10.228-90.058-38.616l17.792-5.611
				c1.871-0.59,3.142-2.325,3.142-4.286v-18.697L2070.37,1132.395z"/>
			<g>
				<g>
					
						<linearGradient id="SVGID_00000070801073425194618520000014046318883224014256_" gradientUnits="userSpaceOnUse" x1="-2541.1338" y1="1223.9437" x2="-2439.5249" y2="1056.2893" gradientTransform="matrix(-1 0 0 1 -434.6348 0)">
						<stop  offset="0" style="stop-color:#311944"/>
						<stop  offset="1" style="stop-color:#A03976"/>
					</linearGradient>
					<path style="fill:url(#SVGID_00000070801073425194618520000014046318883224014256_);" d="M2048.47,1145.245
						c-2.9-0.643-23.931,2.799-29.908-7.31c-8.116-13.722-0.04-35.648,0.775-39.036c3.413-14.181,4.683-16.332,7.315-19.333
						l3.722-3.935c0,0,0.23-0.172,0.476-0.342c2.587-1.779,12.251-4.673,14.338-4.777c6.664-0.335,20.225,23.563,27.991,60.391
						c0.631,1.314,1.255,2.642,1.874,3.984C2076.661,1138.376,2048.659,1146.584,2048.47,1145.245z"/>
					<path style="fill:#26264F;" d="M2014.555,1068.798c3.037,11.242,11.542,21.844,14.757,23.055
						c0.415,0.156,2.791,1.184,5.261,3.365c0.337,0.296,0.661,0.663,0.996,1.159c4.355,6.433-4.694,17.782-1.672,20.377
						c2.192,1.882,9.033-3.241,10.474-1.495c1.357,1.642-3.977,7.216-2.404,9.197c1.187,1.496,4.693-1.097,7.855,0.837
						c1.576,0.962,1.487,2.082,3.844,5.682c1.333,2.035,3.017,4.203,4.179,5.348c5.65,5.569,17.306,5.047,18.72,1.839
						c0.393-0.894-0.278-1.378-0.335-4.011c0,0-0.053-2.44,0.836-5.515c1.269-4.392,6.046-8.565,10.53-14.04
						c8.303-10.139,9.414-17.191,9.685-19.545c0.095-0.838,0.129-1.461,0.152-1.909c0.461-9.005-2.774-21.19-8.499-27.687
						c-9.591-10.884-22.092-1.17-36.939-10.53c-17.13-10.798-14.433-32.519-22.23-32.76
						C2021.169,1021.899,2008.94,1048.013,2014.555,1068.798z"/>
					
						<linearGradient id="SVGID_00000152958877801899722260000012602696791711345078_" gradientUnits="userSpaceOnUse" x1="-2539.2932" y1="1225.0588" x2="-2437.6853" y2="1057.4058" gradientTransform="matrix(-1 0 0 1 -434.6348 0)">
						<stop  offset="0" style="stop-color:#311944"/>
						<stop  offset="1" style="stop-color:#A03976"/>
					</linearGradient>
					<path style="fill:url(#SVGID_00000152958877801899722260000012602696791711345078_);" d="M2037.236,1113.031
						c1.748-4.524,7.543-2.256,8.877,2.639c1.336,4.894-2.055,11.258-6.922,11.518
						C2034.324,1127.449,2034.885,1119.12,2037.236,1113.031z"/>
				</g>
			</g>
		</g>
	</g>
</g>
</svg>
